<?xml version="1.0" encoding="UTF-8" standalone="no"?>
<svg width="18px" height="12px" viewBox="0 0 18 12" version="1.1" xmlns="http://www.w3.org/2000/svg" xmlns:xlink="http://www.w3.org/1999/xlink">
    <!-- Generator: Sketch 47.1 (45422) - http://www.bohemiancoding.com/sketch -->
    <title>Fill 1</title>
    <desc>Created with Sketch.</desc>
    <defs></defs>
    <g id="Welcome" stroke="none" stroke-width="1" fill="none" fill-rule="evenodd">
        <g id="Workshops-and-events" transform="translate(-1332.000000, -1863.000000)" fill="#1E2051">
            <path d="M1341.00019,1878 C1340.74668,1878 1340.49317,1877.91407 1340.29967,1877.73807 L1335.28951,1873.1951 C1335.1035,1873.02741 1335,1872.80012 1335,1872.56036 C1335,1872.3206 1335.1035,1872.0947 1335.28951,1871.92424 C1335.66452,1871.58608 1336.31704,1871.58608 1336.69055,1871.92424 L1340.00866,1874.93302 L1340.00866,1860.89806 C1340.00866,1860.4033 1340.45267,1860 1341.00019,1860 C1341.5462,1860 1341.99172,1860.4033 1341.99172,1860.89806 L1341.99172,1874.93302 L1345.30832,1871.92424 C1345.69533,1871.57361 1346.32385,1871.57499 1346.71087,1871.92424 C1347.09638,1872.27487 1347.09638,1872.84586 1346.71087,1873.1951 L1341.70071,1877.73807 C1341.5072,1877.91407 1341.2537,1878 1341.00019,1878" id="Fill-1" transform="translate(1341.000000, 1869.000000) rotate(-90.000000) translate(-1341.000000, -1869.000000) "></path>
        </g>
    </g>
</svg>