<svg viewBox="0 0 992 416" xmlns="http://www.w3.org/2000/svg" role="img"  xmlns:xlink= "http://www.w3.org/1999/xlink">
<style>path{fill: #333;}</style>
<defs><polygon id="path-1" points="252.555446 0.831683168 0.00099009901 0.831683168 0.00099009901 415.836634 252.555446 415.836634"></polygon></defs><g id="Page-1" fill="none" stroke="none" stroke-width="1"><g transform="translate(0.000000, -9.000000)"><path id="Fill-1" d="M570.510891,288.626733 C548.946535,288.626733 533.540594,272.517822 533.540594,244.468317 C533.540594,217.042574 548.580198,201.913861 570.510891,201.913861 C592.441584,201.913861 606.50099,217.042574 606.50099,244.468317 C606.50099,272.517822 592.114851,288.626733 570.510891,288.626733 M570.510891,181.161386 C531.6,181.161386 505.372277,204.814851 505.372277,244.468317 C505.372277,283.864356 532.778218,309.349505 570.510891,309.349505 C606.540594,309.349505 634.669307,282.052475 634.669307,244.468317 C634.669307,204.814851 609.441584,181.161386 570.510891,181.161386" fill="#FEFEFE"></path><path id="Fill-3" d="M947.444554,287.920792 C922.593069,287.920792 907.167327,271.613861 907.167327,245.386139 C907.167327,216.118812 919.949505,201.910891 946.325743,201.910891 C951.682178,201.910891 957.731683,202.514851 965.157426,203.673267 L965.157426,286.940594 C957.731683,287.613861 952.167327,287.920792 947.444554,287.920792 L947.444554,287.920792 Z M965.157426,119.594059 L965.157426,182.039604 C954.60297,180.712871 947.216832,180.693069 942.721782,180.712871 L941.355446,180.712871 C903.008911,180.712871 879.177228,205.722772 879.177228,246.049505 C879.177228,284.821782 903.80099,308.881188 946.533663,308.881188 C960.810891,308.881188 978.850495,306.683168 989.949505,304.811881 L991.553465,304.524752 L991.9,119.594059 L965.157426,119.594059 Z" fill="#FEFEFE"></path><path id="Fill-5" d="M827.336634,287.79604 C825.148515,287.964356 820.861386,288.211881 820.861386,288.211881 C814.980198,288.617822 811.455446,288.825743 807.168317,288.825743 C786.029703,288.825743 772.980198,285.469307 772.980198,268.825743 C772.980198,254.756436 782.455446,249.746535 809.19802,249.746535 L816.118812,249.994059 C816.118812,249.994059 824.613861,250.281188 827.336634,250.390099 L827.336634,287.79604 Z M797.455446,181.627723 C783.940594,181.627723 770.653465,182.934653 756.910891,185.657426 L756.910891,207.172277 C769.069307,204.994059 782.722772,202.607921 794.980198,202.607921 C826.217822,202.607921 827.128713,207.944554 827.138614,229.865347 C824.475248,229.786139 817.574257,229.518812 817.574257,229.518812 L809.871287,229.241584 C785.841584,229.241584 745.673267,229.241584 745.673267,268.182178 C745.673267,303.934653 771.663366,308.370297 799.742574,308.885149 C814.356436,309.142574 829.465347,308.479208 851.841584,304.825743 L853.405941,304.489109 L853.554455,222.786139 C853.554455,184.726733 828.128713,181.627723 797.455446,181.627723 L797.455446,181.627723 Z" fill="#FEFEFE"></path><path id="Fill-7" d="M687.523762,214.09901 L687.523762,306.148515 L660.80099,306.148515 L660.80099,181.950495 L683.751485,181.950495 C683.751485,181.950495 683.543564,193.287129 683.751485,193.287129 C706.008911,180.059406 720.147525,181.772277 732.256436,182.49505 L732.256436,206.059406 C719.137624,205.227723 699.612871,205.564356 687.523762,214.09901" fill="#FEFEFE"></path><path id="Fill-9" d="M478.791089,128.741584 L478.791089,305.80099 L439.246535,305.80099 C439.008911,305.365347 369.513861,165.573267 369.513861,165.573267 L367.286139,165.573267 L367.286139,305.80099 L340.850495,305.80099 L340.850495,128.741584 L364.236634,128.741584 C380.9,128.741584 387.107921,139.781188 391.632673,147.870297 L392.385149,149.206931 L450.187129,267.810891 L452.414851,267.810891 L452.414851,128.741584 L478.791089,128.741584 Z" fill="#FEFEFE"></path><g id="Group-13" transform="translate(0.000000, 9.069307)"><mask id="mask-2" fill="white"><polygon points="252.555446 0.831683168 0.00099009901 0.831683168 0.00099009901 415.836634 252.555446 415.836634"></polygon></mask><g id="Clip-12"></g><path id="Fill-11" d="M16.6346535,120.648515 C54.3475248,123.856436 89.2089109,139.00495 117.59505,163.034653 L117.59505,163.965347 C87.8524752,165.856436 61.4960396,177.628713 40.8425743,196.59901 C25.3970297,177.658416 16.4267327,153.450495 16.4267327,127.123762 C16.4267327,124.955446 16.4960396,122.806931 16.6346535,120.648515 L16.6346535,120.648515 Z M48.6742574,49.0346535 C73.1792079,54.8762376 96.2485149,64.0445545 117.911881,76.5990099 L117.911881,100.173267 C92.4564356,83.9653465 64.109901,72.4405941 34.119802,66.8465347 C38.3673267,60.4108911 43.2485149,54.4405941 48.6742574,49.0346535 L48.6742574,49.0346535 Z M218.406931,66.8465347 C188.456436,72.4405941 160.1,83.9653465 134.694059,100.173267 L134.694059,76.5990099 C156.307921,64.0445545 179.347525,54.8762376 203.862376,49.0346535 C209.317822,54.4405941 214.189109,60.4108911 218.406931,66.8465347 L218.406931,66.8465347 Z M195.466337,281.480198 C194.733663,266.668317 191.585149,252.054455 187.020792,237.816832 C195.951485,232.886139 204.228713,226.915842 211.713861,220.084158 C225.565347,237.084158 234.149505,258.282178 235.832673,281.480198 L195.466337,281.480198 Z M134.367327,399.955446 L134.694059,342.094059 C145.931683,342.866337 156.525743,345.381188 166.812871,349.420792 C159.307921,367.282178 148.49604,384.816832 134.733663,399.935644 C134.614851,399.935644 134.476238,399.955446 134.367327,399.955446 L134.367327,399.955446 Z M85.7435644,349.5 C96.149505,345.381188 106.713861,342.89604 117.911881,342.094059 L118.218812,399.955446 C118.080198,399.935644 117.941584,399.935644 117.812871,399.935644 C104.040594,384.816832 93.2287129,367.282178 85.7435644,349.5 L85.7435644,349.5 Z M65.5158416,237.79703 C60.9217822,252.044554 57.7435644,266.688119 57.0108911,281.480198 L16.7336634,281.480198 C18.4168317,258.282178 27.0009901,237.084158 40.8425743,220.084158 C48.3079208,226.915842 56.5653465,232.886139 65.5158416,237.79703 L65.5158416,237.79703 Z M181.337624,356.608911 C188.278218,360.589109 194.733663,365.341584 200.634653,370.767327 C187.426733,382.915842 173.208911,391.094059 156.119802,396.232673 C165.575248,386.975248 175.29802,369.757426 181.337624,356.608911 L181.337624,356.608911 Z M96.4762376,396.232673 C79.3475248,391.094059 65.149505,382.915842 51.9217822,370.767327 C57.8227723,365.341584 64.2782178,360.589109 71.2485149,356.608911 C77.2386139,369.757426 86.9811881,386.975248 96.4762376,396.232673 L96.4762376,396.232673 Z M156.119802,182.886139 C173.208911,188.014851 187.426733,196.20297 200.634653,208.331683 C194.733663,213.727723 188.278218,218.490099 181.337624,222.5 C175.29802,209.331683 165.575248,192.153465 156.119802,182.886139 L156.119802,182.886139 Z M71.2485149,222.5 C64.2782178,218.490099 57.8227723,213.727723 51.9217822,208.331683 C65.149505,196.20297 79.3475248,188.014851 96.4762376,182.886139 C86.9811881,192.153465 77.2386139,209.331683 71.2485149,222.5 L71.2485149,222.5 Z M117.911881,142.975248 C89.0306931,121.787129 55.0207921,107.866337 18.7237624,104.648515 C20.3871287,96.6881188 22.6148515,89.0247525 25.9019802,81.7970297 C59.2188119,87.1633663 90.6841584,99.8960396 117.911881,119.113861 L117.911881,142.975248 Z M117.911881,58.7277228 C100.674257,49.5 82.8128713,41.7475248 63.9316832,36.3514851 C79.5752475,25.5693069 97.8722772,18.4306931 117.911881,16.9455446 L117.911881,58.7277228 Z M134.694059,16.9455446 C154.684158,18.4306931 172.981188,25.5693069 188.60495,36.3514851 C169.713861,41.7475248 151.882178,49.5 134.694059,58.7277228 L134.694059,16.9455446 Z M134.694059,119.113861 C161.882178,99.8960396 193.327723,87.1633663 226.664356,81.7970297 C229.951485,89.0247525 232.139604,96.6881188 233.822772,104.648515 C197.535644,107.866337 163.525743,121.79703 134.694059,142.975248 L134.694059,119.113861 Z M134.694059,237.00495 L134.367327,179.064356 C134.476238,179.064356 134.614851,179.064356 134.733663,179.084158 C148.49604,194.282178 159.288119,211.747525 166.773267,229.579208 C156.60495,233.589109 146.00099,236.183168 134.694059,237.00495 L134.694059,237.00495 Z M134.694059,281.480198 L134.694059,253.153465 C147.961386,252.311881 160.39703,249.410891 172.268317,244.737624 C175.961386,256.747525 178.19901,269.084158 178.862376,281.480198 L134.694059,281.480198 Z M117.911881,253.153465 L117.911881,281.480198 L73.6247525,281.480198 C74.3178218,269.084158 76.5455446,256.747525 80.2386139,244.727723 C92.129703,249.410891 104.585149,252.311881 117.911881,253.153465 L117.911881,253.153465 Z M118.218812,179.064356 L117.911881,237.00495 C106.535644,236.183168 95.9613861,233.579208 85.7633663,229.569307 C93.2485149,211.757426 104.060396,194.282178 117.852475,179.084158 C117.941584,179.064356 118.080198,179.064356 118.218812,179.064356 L118.218812,179.064356 Z M73.6049505,297.618812 L117.911881,297.618812 L117.911881,325.925743 C104.793069,326.747525 92.3772277,329.569307 80.2188119,334.361386 C76.5455446,322.321782 74.2980198,309.985149 73.6049505,297.618812 L73.6049505,297.618812 Z M172.268317,334.321782 C160.1,329.569307 147.70396,326.747525 134.694059,325.925743 L134.694059,297.618812 L178.862376,297.618812 C178.19901,309.965347 175.961386,322.292079 172.268317,334.321782 L172.268317,334.321782 Z M16.7336634,297.618812 L57.0108911,297.618812 C57.7237624,312.391089 60.9019802,326.99505 65.5059406,341.222772 C56.5455446,346.143564 48.3277228,352.034653 40.8029703,358.935644 C26.9811881,341.975248 18.4168317,320.747525 16.7336634,297.618812 L16.7336634,297.618812 Z M211.753465,358.955446 C204.189109,352.034653 195.951485,346.113861 187.020792,341.193069 C191.585149,326.985149 194.733663,312.361386 195.466337,297.618812 L235.832673,297.618812 C234.149505,320.747525 225.585149,341.99505 211.753465,358.955446 L211.753465,358.955446 Z M211.713861,196.59901 C191.040594,177.628713 164.664356,165.856436 134.981188,163.965347 L134.981188,163.034653 C163.327723,139.014851 198.19901,123.866337 235.941584,120.658416 C236.060396,122.816832 236.119802,124.955446 236.119802,127.123762 C236.119802,153.450495 227.149505,177.658416 211.713861,196.59901 L211.713861,196.59901 Z M252.555446,127.123762 C252.555446,57.5 195.911881,0.826732673 126.278218,0.826732673 C56.6247525,0.826732673 0.00099009901,57.5 0.00099009901,127.123762 C0.00099009901,158.024752 11.1594059,186.371287 29.6247525,208.331683 C11.1594059,230.321782 0.00099009901,258.658416 0.00099009901,289.559406 C0.00099009901,359.183168 56.6247525,415.836634 126.278218,415.836634 C195.911881,415.836634 252.555446,359.183168 252.555446,289.559406 C252.555446,258.658416 241.39703,230.321782 222.892079,208.331683 C241.39703,186.371287 252.555446,158.024752 252.555446,127.123762 L252.555446,127.123762 Z" fill="#FEFEFE"></path></g></g></g></svg>