<?xml version="1.0" encoding="UTF-8"?>
<svg id="Layer_1" xmlns="http://www.w3.org/2000/svg" viewBox="0 0 260.95 76.16">
  <defs>
    <style>
      .cls-1 {
        fill: #767676;
      }

      .cls-2 {
        fill: #bdbdbc;
      }
    </style>
  </defs>
  <polygon class="cls-2" points="46.96 26.71 46.96 0 33.65 0 33.65 26.71 0 26.71 0 39.99 0 40.03 33.65 40.03 33.65 66.95 46.98 66.95 46.98 40.03 106.84 40.03 106.84 26.71 46.96 26.71"/>
  <polygon class="cls-1" points="0 40.03 0 39.99 0 66.95 33.65 66.95 33.65 40.03 0 40.03"/>
  <rect class="cls-1" width="33.65" height="26.71"/>
  <rect class="cls-1" x="46.98" y="40.01" width="59.86" height="26.94"/>
  <rect class="cls-1" x="46.96" width="59.88" height="26.71"/>
  <g>
    <path d="M124.34,10.72c-2.18-.88-3.85-2.18-3.85-4.95,0-3.62,2.8-5.77,6.31-5.77s5.94,2.26,6,6l-2.77.65c-.28-2.57-1.47-3.73-3.28-3.73-1.58,0-3.11.88-3.11,2.57s1.53,2.32,2.74,2.8l2.86,1.13c2.52.99,4.24,2.35,4.24,5.23,0,3.73-2.94,5.83-6.65,5.83-3.99,0-6.9-2.43-6.93-6.51l2.77-.56c.34,2.6,1.61,4.16,4.1,4.16,1.73,0,3.54-.73,3.54-2.71,0-1.84-1.56-2.38-3.22-3.03l-2.74-1.1Z"/>
    <path d="M144.82,20.31l-2.26-7.15-2.24,7.15h-2.91l-3.59-14.34h2.91l2.57,9.67,2.29-7.75h1.95l2.29,7.75,2.57-9.67h2.88l-3.56,14.34h-2.91Z"/>
    <path d="M154.45,14.11c.34,2.97,1.98,3.54,3.31,3.54s2.52-.57,3.34-1.78l2.6.68c-.76,2.4-2.97,3.93-5.88,3.93-3.31,0-6.48-1.95-6.48-7.3s3.25-7.38,6.39-7.38,6.36,1.95,6.36,7.35v.96h-9.64ZM160.93,11.71c-.42-2.57-1.92-3.08-3.11-3.08-1.38,0-2.83.74-3.34,3.08h6.45Z"/>
    <path d="M175.47,20.31l-.11-1.3c-1.3,1.13-2.38,1.47-3.56,1.47-2.86,0-6.2-1.95-6.2-7.35s3.34-7.33,6.11-7.33c1.3,0,2.35.43,3.56,1.44V.17h3v20.14h-2.8ZM175.27,12.16c-.37-2.49-1.81-3.54-3.42-3.54-1.38,0-3.2.77-3.2,4.53s1.78,4.5,3.25,4.5c1.36,0,3-.68,3.37-2.97v-2.52Z"/>
    <path d="M183.27,14.11c.34,2.97,1.98,3.54,3.31,3.54s2.52-.57,3.34-1.78l2.6.68c-.76,2.4-2.97,3.93-5.88,3.93-3.31,0-6.47-1.95-6.47-7.3s3.25-7.38,6.39-7.38,6.36,1.95,6.36,7.35v.96h-9.64ZM189.75,11.71c-.42-2.57-1.92-3.08-3.11-3.08-1.39,0-2.83.74-3.34,3.08h6.45Z"/>
    <path d="M203,20.31v-8.29c0-2.83-1.41-3.39-2.43-3.39-1.1,0-2.46.65-2.8,2.72v8.96h-3V5.97h2.77l.08,1.19c1.16-.96,2.18-1.36,3.31-1.36,2.26,0,5.06,1.56,5.06,5.97v8.54h-3Z"/>
  </g>
  <g>
    <path d="M126.48,50.82c-3.55-1.43-6.27-3.55-6.27-8.06,0-5.9,4.56-9.4,10.28-9.4s9.68,3.69,9.77,9.77l-4.52,1.06c-.46-4.19-2.4-6.08-5.35-6.08-2.58,0-5.07,1.43-5.07,4.19s2.49,3.78,4.47,4.56l4.65,1.84c4.1,1.61,6.91,3.82,6.91,8.53,0,6.08-4.79,9.49-10.83,9.49-6.5,0-11.25-3.96-11.29-10.6l4.52-.92c.55,4.24,2.63,6.77,6.68,6.77,2.81,0,5.76-1.2,5.76-4.42,0-3-2.53-3.87-5.25-4.93l-4.47-1.8Z"/>
    <path d="M168.39,56.35c.55,4.84,3.23,5.76,5.39,5.76s4.1-.92,5.44-2.9l4.24,1.11c-1.24,3.92-4.84,6.4-9.58,6.4-5.39,0-10.55-3.18-10.55-11.89s5.3-12.03,10.41-12.03,10.37,3.18,10.37,11.98v1.57h-15.71ZM178.94,52.43c-.69-4.19-3.13-5.02-5.07-5.02-2.26,0-4.61,1.2-5.44,5.02h10.51Z"/>
    <path d="M201.58,66.44v-4.47h4.7v-14.42h-4.7v-4.47h9.49v18.89h4.7v4.47h-14.19ZM208.63,40.08c-1.79,0-3.22-1.52-3.22-3.41s1.43-3.46,3.22-3.46,3.32,1.52,3.32,3.46-1.47,3.41-3.32,3.41Z"/>
    <path d="M232.29,64.41c-2.17,1.89-3.96,2.3-5.67,2.3-4.65,0-10.09-3.18-10.09-11.98s5.44-11.94,10.04-11.94c2.07,0,3.78.64,5.86,2.44l.14-2.17h4.61v23.36c0,5.58-3.96,9.72-10.19,9.72-4.79,0-8.34-2.4-9.49-6.41l4.24-1.1c1.34,1.98,3.28,2.9,5.44,2.9,3.27,0,5.12-2.03,5.12-5.12v-2.03ZM232.29,53.17c-.6-4.05-2.95-5.76-5.58-5.76-2.26,0-5.21,1.29-5.21,7.37s2.9,7.33,5.3,7.33c2.21,0,4.88-1.11,5.48-4.84v-4.1Z"/>
    <path d="M245.24,56.35c.55,4.84,3.23,5.76,5.39,5.76s4.1-.92,5.44-2.9l4.24,1.11c-1.24,3.92-4.84,6.4-9.58,6.4-5.39,0-10.55-3.18-10.55-11.89s5.3-12.03,10.41-12.03,10.37,3.18,10.37,11.98v1.57h-15.71ZM255.79,52.43c-.69-4.19-3.13-5.02-5.07-5.02-2.26,0-4.61,1.2-5.44,5.02h10.51Z"/>
    <path d="M199.56,43.13c-.87-.23-1.75-.32-2.25-.32-1.84,0-3.83,1.2-5.58,2.95l-.18-2.67h-4.56v23.36h4.88v-13.5c.65-3.73,2.9-4.98,4.97-4.98.69,0,1.52.14,2.72.37v-5.21Z"/>
    <path d="M150.21,66.44l-8.3-23.36h5.06l5.63,16.65,5.64-16.65h5.05l-8.29,23.36h-4.79Z"/>
  </g>
</svg>