<svg id="BMZLogo" width="202" height="136" viewBox="0 0 101 68" version="1.1" xmlns="http://www.w3.org/2000/svg" role="img"  xmlns:xlink="http://www.w3.org/1999/xlink" xml:space="preserve" xmlnsserif="http://www.serif.com/" style="fill-rule:evenodd;clip-rule:evenodd;stroke-linejoin:round;stroke-miterlimit:2"><g id="Artboard1" transform="matrix(1,0,0,1.08679,-12.7308,-15.3197)"><rect x="12.731" y="14.096" width="100.205" height="62.185" style="fill:none"></rect><g transform="matrix(1,0,0,0.920143,0.730817,6.18027)"><path d="M28.7,47.4L27.8,47.4C28,47.7 28.1,48 28.1,48.4C28.1,49.6 27.2,50.2 26,50.2C25.8,50.2 25.6,50.2 25.5,50.1C25.3,50.2 25.2,50.3 25.2,50.6C25.2,50.9 25.4,51 25.8,51L27,51C27.9,51 28.5,51.4 28.5,52.2C28.5,53.3 27.5,54.3 25.7,54.3C24.4,54.3 23.7,53.8 23.7,53C23.7,52.2 24.4,51.8 24.7,51.7C24.4,51.6 24.3,51.3 24.3,51C24.3,50.4 24.9,50.1 25,50C24.4,49.7 24,49.2 24,48.4C24,47.3 25,46.7 26,46.7C26.3,46.7 26.6,46.7 26.8,46.8L28.7,46.8L28.7,47.4ZM25.2,52C24.9,52.2 24.7,52.5 24.7,52.9C24.7,53.5 25.1,53.9 25.9,53.9C27.1,53.9 27.7,53.4 27.7,52.7C27.7,52.2 27.4,52 26.8,52L25.2,52ZM25,48.5C25,49.4 25.5,49.7 26.1,49.7C26.8,49.7 27.3,49.3 27.3,48.5C27.3,47.7 26.8,47.3 26.2,47.3C25.5,47.3 25,47.6 25,48.5Z" style="fill:rgb(65,64,66);fill-rule:nonzero"></path><path d="M30.4,49.5C30.4,50.9 31,51.6 32.1,51.6C32.8,51.6 33.2,51.3 33.5,51.1C33.6,51.2 33.6,51.3 33.6,51.4C33.6,51.7 32.9,52.3 31.7,52.3C30.5,52.3 29.4,51.5 29.4,49.6C29.4,47.7 30.5,46.7 31.7,46.7C32.9,46.7 33.5,47.5 33.5,48.5C33.5,48.8 33.4,49.1 33.4,49.4L30.4,49.4L30.4,49.5ZM32.6,48.9C32.6,48.8 32.7,48.6 32.7,48.4C32.7,47.8 32.5,47.2 31.7,47.2C31,47.2 30.5,47.7 30.4,48.8L32.6,48.8L32.6,48.9Z" style="fill:rgb(65,64,66);fill-rule:nonzero"></path><path d="M36.1,47.7C36.4,47.3 36.8,46.7 37.5,46.7C38,46.7 38.2,46.9 38.2,47.2C38.2,47.4 38.1,47.6 38,47.7C37.9,47.6 37.6,47.5 37.3,47.5C36.7,47.5 36.4,47.7 36.1,48.1L36.1,51.5L36.9,51.6C37,51.6 37.1,51.7 37.1,51.7C37.1,51.8 37,51.9 37,52L34.6,52L34.6,51.9C34.6,51.7 34.7,51.6 34.9,51.5L35.3,51.4L35.3,47.3L34.5,47.2L34.5,47.1C34.5,46.9 34.6,46.8 34.9,46.8L36.2,46.7L36.1,47.7Z" style="fill:rgb(65,64,66);fill-rule:nonzero"></path><path d="M47.1,51.6L47.8,51.7C47.9,51.7 48,51.8 48,51.8C48,51.9 47.9,52 47.9,52.1L45.6,52.1L45.6,52C45.6,51.8 45.7,51.7 45.9,51.6L46.3,51.5L46.3,48.7C46.3,47.7 45.8,47.4 45.2,47.4C44.4,47.4 44,47.7 43.7,48C43.7,48.2 43.8,48.4 43.8,48.6L43.8,51.5L44.5,51.6C44.6,51.6 44.7,51.7 44.7,51.7C44.7,51.8 44.6,51.9 44.6,52L42.3,52L42.3,51.9C42.3,51.7 42.4,51.6 42.6,51.5L43,51.4L43,48.6C43,47.6 42.5,47.3 41.9,47.3C41.2,47.3 40.8,47.6 40.5,47.8L40.5,51.4L41.2,51.5C41.3,51.5 41.4,51.6 41.4,51.6C41.4,51.7 41.3,51.8 41.3,51.9L39,51.9L39,51.8C39,51.6 39.1,51.5 39.3,51.4L39.7,51.3L39.7,47.2L38.9,47.1L38.9,47C38.9,46.8 39,46.7 39.3,46.7L40.6,46.6L40.5,47.3C40.7,47.1 41.2,46.5 42.3,46.5C42.9,46.5 43.4,46.8 43.7,47.4C44,47.1 44.6,46.5 45.6,46.5C46.6,46.5 47.3,47.2 47.3,48.5L47.3,51.6L47.1,51.6Z" style="fill:rgb(65,64,66);fill-rule:nonzero"></path><path d="M52.3,51C52.3,51.5 52.5,51.6 52.7,51.6C52.9,51.6 53.1,51.5 53.1,51.5C53.1,51.6 53.2,51.7 53.2,51.8C53.2,51.9 52.9,52.2 52.3,52.2C51.8,52.2 51.5,52 51.5,51.4C51.4,51.6 51,52.2 50,52.2C49.2,52.2 48.6,51.7 48.6,50.8C48.6,49.6 49.9,49.2 51.2,49.2L51.5,49.2L51.5,48.7C51.5,47.8 51.2,47.3 50.5,47.3C50.2,47.3 49.9,47.4 49.9,47.4C49.8,47.6 49.7,48 49.6,48.4L49.4,48.4C49.1,48.4 48.9,48.2 48.9,47.9C48.9,47.2 49.8,46.7 50.7,46.7C51.9,46.7 52.4,47.3 52.4,48.6L52.4,51L52.3,51ZM51.1,49.8C50.1,49.9 49.5,50.2 49.5,50.8C49.5,51.3 49.8,51.6 50.3,51.6C50.8,51.6 51.2,51.2 51.4,51L51.4,49.7L51.1,49.8Z" style="fill:rgb(65,64,66);fill-rule:nonzero"></path><path d="M58.8,51.6L59.5,51.7C59.6,51.7 59.7,51.8 59.7,51.8C59.7,51.9 59.6,52 59.6,52.1L57.3,52.1L57.3,52C57.3,51.8 57.4,51.7 57.6,51.6L58,51.5L58,48.7C58,47.7 57.4,47.4 56.8,47.4C56.1,47.4 55.6,47.7 55.4,47.9L55.4,51.5L56.1,51.6C56.2,51.6 56.3,51.7 56.3,51.7C56.3,51.8 56.2,51.9 56.2,52L53.9,52L53.9,51.9C53.9,51.7 54,51.6 54.2,51.5L54.6,51.4L54.6,47.3L53.8,47.2L53.8,47.1C53.8,46.9 53.9,46.8 54.2,46.8L55.5,46.7L55.4,47.4C55.7,47.1 56.2,46.6 57.2,46.6C58.3,46.6 58.9,47.3 58.9,48.6L58.9,51.6L58.8,51.6Z" style="fill:rgb(65,64,66);fill-rule:nonzero"></path></g><g transform="matrix(1,0,0,0.920143,0.730817,6.18027)"><path d="M26.7,57.1C26.6,57 26.4,56.9 26,56.9C25.4,56.9 25,57.2 25,58C25,58.9 25.4,59.2 25.9,59.2C26.3,59.2 26.5,59 26.7,58.9L27,59.6C26.8,59.8 26.5,60 25.8,60C24.7,60 24,59.5 24,57.9C24,56.5 25,55.9 26,55.9C26.6,55.9 26.9,56.1 27.1,56.2L26.7,57.1Z" style="fill:rgb(65,64,66);fill-rule:nonzero"></path><path d="M29.4,60C28.4,60 27.7,59.4 27.7,58C27.7,56.6 28.6,56 29.5,56C30.5,56 31.2,56.6 31.2,58C31.2,59.3 30.3,60 29.4,60ZM29.4,56.8C29,56.8 28.6,57.1 28.6,58C28.6,58.9 28.9,59.2 29.4,59.2C29.8,59.2 30.1,58.9 30.1,58C30.2,57.1 29.8,56.8 29.4,56.8Z" style="fill:rgb(65,64,66);fill-rule:nonzero"></path><path d="M33.8,60C32.8,60 32.1,59.4 32.1,58C32.1,56.6 33,56 33.9,56C34.9,56 35.6,56.6 35.6,58C35.6,59.3 34.7,60 33.8,60ZM33.8,56.8C33.4,56.8 33,57.1 33,58C33,58.9 33.3,59.2 33.8,59.2C34.2,59.2 34.5,58.9 34.5,58C34.6,57.1 34.2,56.8 33.8,56.8Z" style="fill:rgb(65,64,66);fill-rule:nonzero"></path><path d="M38.3,60C38,60 37.8,59.9 37.6,59.8L37.6,61.4L36.6,61.4L36.6,56L37.5,56L37.5,56.4C37.6,56.2 38,55.9 38.6,55.9C39.4,55.9 40,56.5 40,57.8C40.1,59.3 39.4,60 38.3,60ZM37.6,57L37.6,59C37.7,59.1 37.9,59.1 38.1,59.1C38.7,59.1 39,58.7 39,57.8C39,57 38.7,56.7 38.2,56.7C38,56.8 37.8,56.9 37.6,57Z" style="fill:rgb(65,64,66);fill-rule:nonzero"></path><path d="M44,58.3L41.9,58.3C42,58.9 42.3,59.2 42.9,59.2C43.4,59.2 43.7,59 43.8,58.9L44,59.6C44,59.7 43.6,60 42.7,60C41.7,60 40.9,59.4 40.9,58C40.9,56.6 41.7,56 42.7,56C43.5,56 44,56.5 44,57.5L44,58.3ZM41.9,57.6L43.1,57.6L43.1,57.4C43.1,57 42.9,56.7 42.6,56.7C42.2,56.7 41.9,57 41.9,57.6Z" style="fill:rgb(65,64,66);fill-rule:nonzero"></path><path d="M47.3,56.9L47,56.9C46.6,56.9 46.3,57.1 46.2,57.3L46.2,60L45.2,60L45.2,56.2L46.1,56.2L46.1,56.7C46.3,56.4 46.5,56.1 47.1,56.1L47.4,56.1L47.3,56.9Z" style="fill:rgb(65,64,66);fill-rule:nonzero"></path><path d="M49.8,57.7L50,57.7L50,57.6C50,57.1 49.8,56.8 49.4,56.8C48.9,56.8 48.6,57 48.5,57.2L48.2,56.6C48.4,56.4 48.8,56 49.6,56C50.5,56 51,56.5 51,57.6L51,58.9C51,59.3 51,59.7 51.1,59.9L50,59.9L50,59.5C49.9,59.7 49.6,60 49.1,60C48.5,60 48,59.5 48,58.8C48,58.1 48.8,57.7 49.8,57.7ZM49.9,59L49.9,58.3L49.7,58.3C49.2,58.3 48.9,58.5 48.9,58.8C48.9,59.1 49.1,59.3 49.3,59.3C49.7,59.2 49.8,59.1 49.9,59Z" style="fill:rgb(65,64,66);fill-rule:nonzero"></path><path d="M54.2,56.9L53.3,56.9L53.3,58.5C53.3,59.1 53.5,59.2 53.8,59.2C54,59.2 54.1,59.2 54.2,59.1L54.3,59.8C54.2,59.8 54,60 53.6,60C52.7,60 52.4,59.6 52.4,58.5L52.4,56.8L51.9,56.8L51.9,56.1L52.4,56L52.5,54.9L53.4,54.9L53.4,56L54.4,56L54.2,56.9Z" style="fill:rgb(65,64,66);fill-rule:nonzero"></path><path d="M55.7,55.4C55.4,55.4 55.1,55.2 55.1,54.8C55.1,54.4 55.3,54.2 55.7,54.2C56,54.2 56.3,54.4 56.3,54.8C56.3,55.2 56.1,55.4 55.7,55.4ZM56.2,59.9L55.2,59.9L55.2,56.1L56.2,56.1L56.2,59.9Z" style="fill:rgb(65,64,66);fill-rule:nonzero"></path><path d="M59,60C58,60 57.3,59.4 57.3,58C57.3,56.6 58.2,56 59.1,56C60.1,56 60.8,56.6 60.8,58C60.8,59.3 59.9,60 59,60ZM59,56.8C58.6,56.8 58.2,57.1 58.2,58C58.2,58.9 58.5,59.2 59,59.2C59.4,59.2 59.7,58.9 59.7,58C59.8,57.1 59.4,56.8 59,56.8Z" style="fill:rgb(65,64,66);fill-rule:nonzero"></path><path d="M64.2,59.9L64.2,57.6C64.2,57 64,56.8 63.6,56.8C63.3,56.8 63,56.9 62.9,57.1L62.9,59.9L61.9,59.9L61.9,56.1L62.8,56.1L62.8,56.5C62.9,56.3 63.3,56 63.9,56C64.7,56 65.2,56.5 65.2,57.5L65.2,59.9L64.2,59.9Z" style="fill:rgb(65,64,66);fill-rule:nonzero"></path></g><g transform="matrix(1,0,0,0.920143,0.730817,6.18027)"><g><path d="M24,66.5L24,63.5L24.6,63.5C25.7,63.5 26.2,63.9 26.2,64.9C26.2,66 25.6,66.5 24.5,66.5L24,66.5ZM24.4,63.8L24.4,66.1L24.6,66.1C25.4,66.1 25.9,65.8 25.9,64.9C25.9,64.1 25.5,63.8 24.7,63.8L24.4,63.8Z" style="fill:rgb(99,100,102);fill-rule:nonzero"></path><path d="M28.7,63.8L27.5,63.8L27.5,64.8L28.6,64.8L28.6,65.1L27.5,65.1L27.5,66.1L28.9,66.1L28.9,66.4L27.2,66.4L27.2,63.4L28.8,63.4L28.7,63.8Z" style="fill:rgb(99,100,102);fill-rule:nonzero"></path><path d="M31.7,65.2C31.7,66 31.3,66.5 30.6,66.5C29.9,66.5 29.5,66.1 29.5,65.2L29.5,63.5L29.9,63.5L29.9,65.2C29.9,65.9 30.2,66.1 30.6,66.1C31.1,66.1 31.3,65.8 31.3,65.2L31.3,63.5L31.7,63.5L31.7,65.2Z" style="fill:rgb(99,100,102);fill-rule:nonzero"></path><path d="M34.5,63.8L33.6,63.8L33.6,66.5L33.2,66.5L33.2,63.8L32.3,63.8L32.3,63.5L34.5,63.5L34.5,63.8Z" style="fill:rgb(99,100,102);fill-rule:nonzero"></path><path d="M36.4,64C36.3,64 36.2,63.8 35.9,63.8C35.6,63.8 35.4,64 35.4,64.2C35.4,64.4 35.5,64.6 35.9,64.8L36.2,65C36.6,65.2 36.8,65.5 36.8,65.8C36.8,66.3 36.4,66.6 35.8,66.6C35.3,66.6 35.1,66.4 35,66.3L35.1,66C35.2,66.1 35.4,66.3 35.7,66.3C36.1,66.3 36.3,66.1 36.3,65.9C36.3,65.6 36.2,65.5 35.8,65.3L35.6,65C35.2,64.7 35,64.5 35,64.1C35,63.7 35.3,63.4 35.9,63.4C36.3,63.4 36.5,63.6 36.6,63.6L36.4,64Z" style="fill:rgb(99,100,102);fill-rule:nonzero"></path><path d="M38.7,63.4C39.2,63.4 39.4,63.6 39.5,63.7L39.3,64C39.2,63.9 39,63.8 38.7,63.8C38.2,63.8 37.7,64.1 37.7,65C37.7,65.9 38.1,66.2 38.6,66.2C39,66.2 39.2,66 39.3,66L39.4,66.3C39.3,66.4 39.1,66.6 38.6,66.6C37.8,66.6 37.3,66.1 37.3,65.1C37.3,63.9 38,63.4 38.7,63.4Z" style="fill:rgb(99,100,102);fill-rule:nonzero"></path><path d="M42.3,66.5L41.9,66.5L41.9,65.2L40.4,65.2L40.4,66.5L40,66.5L40,63.5L40.4,63.5L40.4,64.8L41.9,64.8L41.9,63.5L42.3,63.5L42.3,66.5Z" style="fill:rgb(99,100,102);fill-rule:nonzero"></path><path d="M44.9,63.8L43.7,63.8L43.7,64.8L44.8,64.8L44.8,65.1L43.7,65.1L43.7,66.1L45,66.1L45,66.4L43.3,66.4L43.3,63.4L44.9,63.4L44.9,63.8Z" style="fill:rgb(99,100,102);fill-rule:nonzero"></path><path d="M48.6,63.7L47.1,66.1L48.7,66.1L48.7,66.4L46.6,66.4L46.6,66.2L48.1,63.8L46.7,63.8L46.7,63.5L48.6,63.5L48.6,63.7Z" style="fill:rgb(99,100,102);fill-rule:nonzero"></path></g><g><path d="M51.5,65.2C51.5,66 51.1,66.5 50.4,66.5C49.7,66.5 49.3,66.1 49.3,65.2L49.3,63.5L49.7,63.5L49.7,65.2C49.7,65.9 50,66.1 50.4,66.1C50.9,66.1 51.1,65.8 51.1,65.2L51.1,63.5L51.5,63.5L51.5,65.2Z" style="fill:rgb(99,100,102);fill-rule:nonzero"></path><path d="M53.7,64C53.6,64 53.5,63.8 53.1,63.8C52.8,63.8 52.6,64 52.6,64.2C52.6,64.4 52.7,64.6 53.1,64.8L53.4,65C53.8,65.2 54,65.5 54,65.8C54,66.3 53.6,66.6 53,66.6C52.5,66.6 52.3,66.4 52.2,66.3L52.3,66C52.4,66.1 52.6,66.3 52.9,66.3C53.3,66.3 53.5,66.1 53.5,65.9C53.5,65.6 53.4,65.5 53,65.3L52.9,65C52.5,64.7 52.3,64.5 52.3,64.1C52.3,63.7 52.6,63.4 53.2,63.4C53.6,63.4 53.8,63.6 53.9,63.6L53.7,64Z" style="fill:rgb(99,100,102);fill-rule:nonzero"></path></g><g><path d="M56.5,66.5L56.2,65.5L55.1,65.5L54.8,66.5L54.4,66.5L55.5,63.5L55.8,63.5L56.9,66.5L56.5,66.5ZM55.6,64L55.2,65.2L56.1,65.2L55.6,64Z" style="fill:rgb(99,100,102);fill-rule:nonzero"></path><path d="M60.2,66.5L59.8,66.5L59.8,64.4L59,66.5L58.7,66.5L57.8,64.4L57.8,66.5L57.4,66.5L57.4,63.5L57.8,63.5L58.8,65.9L59.8,63.5L60.2,63.5L60.2,66.5Z" style="fill:rgb(99,100,102);fill-rule:nonzero"></path><path d="M63.9,66.5L63.5,66.5L63.5,64.4L62.6,66.5L62.3,66.5L61.4,64.4L61.4,66.5L61,66.5L61,63.5L61.4,63.5L62.4,65.9L63.4,63.5L63.8,63.5L63.8,66.5L63.9,66.5Z" style="fill:rgb(99,100,102);fill-rule:nonzero"></path></g><g><path d="M66.5,63.8L65.3,63.8L65.3,64.8L66.4,64.8L66.4,65.1L65.3,65.1L65.3,66.1L66.7,66.1L66.7,66.4L65,66.4L65,63.4L66.6,63.4L66.5,63.8Z" style="fill:rgb(99,100,102);fill-rule:nonzero"></path></g><g><path d="M69.6,66.5L69.3,66.5L67.8,64.2L67.8,66.5L67.4,66.5L67.4,63.5L67.7,63.5L69.2,65.8L69.2,63.5L69.6,63.5L69.6,66.5Z" style="fill:rgb(99,100,102);fill-rule:nonzero"></path><path d="M72.2,66.5L71.9,65.5L70.8,65.5L70.5,66.5L70.1,66.5L71.2,63.5L71.5,63.5L72.6,66.5L72.2,66.5ZM71.4,64L71,65.2L71.9,65.2L71.4,64Z" style="fill:rgb(99,100,102);fill-rule:nonzero"></path><path d="M74.8,66.5L74.1,65.3L73.7,65.3L73.7,66.5L73.3,66.5L73.3,63.5L73.9,63.5C74.7,63.5 75.1,63.8 75.1,64.3C75.1,64.7 74.9,65 74.5,65.1L75.3,66.4L74.8,66.4L74.8,66.5ZM73.9,63.8L73.6,63.8L73.6,65L73.8,65C74.3,65 74.6,64.8 74.6,64.4C74.6,64 74.4,63.8 73.9,63.8Z" style="fill:rgb(99,100,102);fill-rule:nonzero"></path><path d="M77.1,64.9C77.5,65 77.7,65.2 77.7,65.6C77.7,66.1 77.4,66.4 76.5,66.4L75.8,66.4L75.8,63.4L76.4,63.4C77.2,63.4 77.5,63.7 77.5,64.2C77.6,64.7 77.4,64.8 77.1,64.9ZM76.5,63.8L76.2,63.8L76.2,64.8L76.5,64.8C77,64.8 77.2,64.6 77.2,64.3C77.2,64 77,63.8 76.5,63.8ZM76.6,65.1L76.3,65.1L76.3,66.1L76.6,66.1C77.1,66.1 77.4,65.9 77.4,65.6C77.3,65.3 77,65.1 76.6,65.1Z" style="fill:rgb(99,100,102);fill-rule:nonzero"></path></g><g><path d="M80.1,63.8L78.9,63.8L78.9,64.8L80,64.8L80,65.1L78.9,65.1L78.9,66.1L80.3,66.1L80.3,66.4L78.6,66.4L78.6,63.4L80.2,63.4L80.1,63.8Z" style="fill:rgb(99,100,102);fill-rule:nonzero"></path></g><g><path d="M81.1,63.8L80.7,63.8L80.7,63.5L81.8,63.5L81.8,63.8L81.4,63.8L81.4,66.2L81.8,66.2L81.8,66.5L80.7,66.5L80.7,66.2L81.1,66.2L81.1,63.8Z" style="fill:rgb(99,100,102);fill-rule:nonzero"></path></g><g><path d="M84.5,63.8L83.6,63.8L83.6,66.5L83.2,66.5L83.2,63.8L82.3,63.8L82.3,63.5L84.5,63.5L84.5,63.8Z" style="fill:rgb(99,100,102);fill-rule:nonzero"></path></g></g><g transform="matrix(1,0,0,0.920143,0.730817,6.18027)"><path d="M92.3,36.8C96.5,33.3 101,29 102.1,27.8C101.5,25 101.1,22.6 101.1,22.5C93.7,31.5 85.2,37.1 79.8,38.8C70.1,42 68.1,38.5 67,37.2C63.4,33.2 62.4,30 58.4,26.2C54.7,22.7 50.1,21.1 47.6,20.4C31.6,15.7 19.3,24.4 19.2,24.4C19.7,26 20.3,27.5 20.8,29.1C23.5,27.1 27.3,25.4 29.8,24.5C32.1,23.7 35.4,22.9 37.3,22.7C39.2,22.5 42.5,22.5 44,22.5C45.5,22.6 49.2,23.4 50.5,23.8C52.8,24.5 55.4,25.7 56.4,26.4C57.5,27 59.1,27.9 61.2,30.1C63,31.9 65.3,35.7 66.2,37.2C67.1,38.7 68.5,40.7 72.2,42.6C74.6,43.8 78.3,44.2 82.3,42.8C86.1,41.5 89.8,38.9 92.3,36.8Z" style="fill:rgb(65,64,66)"></path><path d="M82.7,46.3C91.3,44.9 99.1,37 103.2,33.3C102.9,31.6 102.5,29.6 102.1,27.8C100.9,29 96.5,33.3 92.3,36.8C89.8,38.8 86.1,41.5 82.4,42.8C78.4,44.2 74.7,43.8 72.3,42.6C68.6,40.7 67.2,38.7 66.3,37.2C65.4,35.6 63,31.9 61.3,30.1C59.2,27.9 57.6,27.1 56.5,26.4C55.4,25.8 52.8,24.6 50.6,23.8C49.3,23.4 45.6,22.6 44.1,22.5C42.6,22.4 39.3,22.4 37.4,22.7C35.5,22.9 32.2,23.7 29.9,24.5C27.4,25.4 23.6,27.1 20.9,29.1C21.5,30.8 22.1,32.5 22.6,34.1C24.3,32.8 29.8,29 34.8,27.5C40.3,25.9 45.6,25.8 51.3,27.5C56.6,29.1 60.1,31.7 61.1,32.6C62.4,33.6 64.3,35.8 65.2,37C67.4,39.8 68.9,41.3 70.2,42.4C72.4,44.3 77.3,47.2 82.7,46.3Z" style="fill:rgb(109,110,113)"></path><path d="M91.3,47.1C99.3,44.1 104.1,38.1 104.2,38.1C104.2,38 103.8,36 103.3,33.4C99.2,37 91.4,44.9 82.8,46.4C77.4,47.3 72.6,44.4 70.2,42.4C68.9,41.3 67.4,39.9 65.2,37C64.3,35.9 62.4,33.7 61.1,32.6C60.1,31.8 56.6,29.1 51.3,27.5C45.6,25.8 40.4,25.9 34.8,27.5C29.8,29 24.3,32.8 22.6,34.1C23.1,35.6 23.6,37.1 24.1,38.5C25.7,37.1 34.3,30.1 46,29.6C51.3,29.4 56.5,30.5 59.6,32.6C62.5,34.5 64.8,37.3 65.7,38.6C69.2,43.1 73.5,49.1 80.8,49C86.8,49 89.7,47.7 91.3,47.1Z" style="fill:rgb(206,207,209)"></path><path d="M82.7,46.3C91.3,44.9 99.1,37 103.2,33.3C102.9,31.6 102.5,29.6 102.1,27.8C100.9,29 96.5,33.3 92.3,36.8C89.8,38.8 86.1,41.5 82.4,42.8C78.4,44.2 74.7,43.8 72.3,42.6C68.6,40.7 67.2,38.7 66.3,37.2C65.4,35.6 63,31.9 61.3,30.1C59.2,27.9 57.6,27.1 56.5,26.4C55.4,25.8 52.8,24.6 50.6,23.8C49.3,23.4 45.6,22.6 44.1,22.5C42.6,22.4 39.3,22.4 37.4,22.7C35.5,22.9 32.2,23.7 29.9,24.5C27.4,25.4 23.6,27.1 20.9,29.1C21.5,30.8 22.1,32.5 22.6,34.1C24.3,32.8 29.8,29 34.8,27.5C40.3,25.9 45.6,25.8 51.3,27.5C56.6,29.1 60.1,31.7 61.1,32.6C62.4,33.6 64.3,35.8 65.2,37C67.4,39.8 68.9,41.3 70.2,42.4C72.4,44.3 77.3,47.2 82.7,46.3Z" style="fill:none"></path><g><clipPath id="_clip1"><path d="M82.7,46.3C91.3,44.9 99.1,37 103.2,33.3C102.9,31.6 102.5,29.6 102.1,27.8C100.9,29 96.5,33.3 92.3,36.8C89.8,38.8 86.1,41.5 82.4,42.8C78.4,44.2 74.7,43.8 72.3,42.6C68.6,40.7 67.2,38.7 66.3,37.2C65.4,35.6 63,31.9 61.3,30.1C59.2,27.9 57.6,27.1 56.5,26.4C55.4,25.8 52.8,24.6 50.6,23.8C49.3,23.4 45.6,22.6 44.1,22.5C42.6,22.4 39.3,22.4 37.4,22.7C35.5,22.9 32.2,23.7 29.9,24.5C27.4,25.4 23.6,27.1 20.9,29.1C21.5,30.8 22.1,32.5 22.6,34.1C24.3,32.8 29.8,29 34.8,27.5C40.3,25.9 45.6,25.8 51.3,27.5C56.6,29.1 60.1,31.7 61.1,32.6C62.4,33.6 64.3,35.8 65.2,37C67.4,39.8 68.9,41.3 70.2,42.4C72.4,44.3 77.3,47.2 82.7,46.3Z"></path></clipPath><g clip-path="url(#_clip1)"><path d="M66.3,18.1L41.5,8.4L38.2,37.1L56.2,44.1L66.3,18.1Z" style="fill:url(#_Linear2)"></path></g><clipPath id="_clip3"><path d="M82.7,46.3C91.3,44.9 99.1,37 103.2,33.3C102.9,31.6 102.5,29.6 102.1,27.8C100.9,29 96.5,33.3 92.3,36.8C89.8,38.8 86.1,41.5 82.4,42.8C78.4,44.2 74.7,43.8 72.3,42.6C68.6,40.7 67.2,38.7 66.3,37.2C65.4,35.6 63,31.9 61.3,30.1C59.2,27.9 57.6,27.1 56.5,26.4C55.4,25.8 52.8,24.6 50.6,23.8C49.3,23.4 45.6,22.6 44.1,22.5C42.6,22.4 39.3,22.4 37.4,22.7C35.5,22.9 32.2,23.7 29.9,24.5C27.4,25.4 23.6,27.1 20.9,29.1C21.5,30.8 22.1,32.5 22.6,34.1C24.3,32.8 29.8,29 34.8,27.5C40.3,25.9 45.6,25.8 51.3,27.5C56.6,29.1 60.1,31.7 61.1,32.6C62.4,33.6 64.3,35.8 65.2,37C67.4,39.8 68.9,41.3 70.2,42.4C72.4,44.3 77.3,47.2 82.7,46.3Z"></path></clipPath><g clip-path="url(#_clip3)"><path d="M57.7,39.2L82.5,48.9L85.9,20.3L67.8,13.3L57.7,39.2Z" style="fill:url(#_Linear4)"></path></g></g><g><clipPath id="_clip5"><path d="M91.3,47.1C99.3,44.1 104.1,38.1 104.2,38.1C104.2,38 103.8,36 103.3,33.4C99.2,37 91.4,44.9 82.8,46.4C77.4,47.3 72.6,44.4 70.2,42.4C68.9,41.3 67.4,39.9 65.2,37C64.3,35.9 62.4,33.7 61.1,32.6C60.1,31.8 56.6,29.1 51.3,27.5C45.6,25.8 40.4,25.9 34.8,27.5C29.8,29 24.3,32.8 22.6,34.1C23.1,35.6 23.6,37.1 24.1,38.5C25.7,37.1 34.3,30.1 46,29.6C51.3,29.4 56.5,30.5 59.6,32.6C62.5,34.5 64.8,37.3 65.7,38.6C69.2,43.1 73.5,49.1 80.8,49C86.8,49 89.7,47.7 91.3,47.1Z"></path></clipPath><g clip-path="url(#_clip5)"><path d="M67,27.4L45.4,19L42.5,43.9L58.2,50L67,27.4Z" style="fill:url(#_Linear6)"></path></g><clipPath id="_clip7"><path d="M91.3,47.1C99.3,44.1 104.1,38.1 104.2,38.1C104.2,38 103.8,36 103.3,33.4C99.2,37 91.4,44.9 82.8,46.4C77.4,47.3 72.6,44.4 70.2,42.4C68.9,41.3 67.4,39.9 65.2,37C64.3,35.9 62.4,33.7 61.1,32.6C60.1,31.8 56.6,29.1 51.3,27.5C45.6,25.8 40.4,25.9 34.8,27.5C29.8,29 24.3,32.8 22.6,34.1C23.1,35.6 23.6,37.1 24.1,38.5C25.7,37.1 34.3,30.1 46,29.6C51.3,29.4 56.5,30.5 59.6,32.6C62.5,34.5 64.8,37.3 65.7,38.6C69.2,43.1 73.5,49.1 80.8,49C86.8,49 89.7,47.7 91.3,47.1Z"></path></clipPath><g clip-path="url(#_clip7)"><path d="M55.4,56.3L83.1,67.1L85.6,38.1L65.5,30.3L55.4,56.3Z" style="fill:url(#_Linear8)"></path></g></g><g><clipPath id="_clip9"><path d="M92.3,36.8C96.5,33.3 101,29 102.1,27.8C101.5,25 101.1,22.6 101.1,22.5C93.7,31.5 85.2,37.1 79.8,38.8C70.1,42 68.1,38.5 67,37.2C63.4,33.2 62.4,30 58.4,26.2C54.7,22.7 50.1,21.1 47.6,20.4C31.6,15.7 19.3,24.4 19.2,24.4C19.7,26 20.3,27.5 20.8,29.1C23.5,27.1 27.3,25.4 29.8,24.5C32.1,23.7 35.4,22.9 37.3,22.7C39.2,22.5 42.5,22.5 44,22.5C45.5,22.6 49.2,23.4 50.5,23.8C52.8,24.5 55.4,25.7 56.4,26.4C57.5,27 59.1,27.9 61.2,30.1C63,31.9 65.3,35.7 66.2,37.2C67.1,38.7 68.5,40.7 72.2,42.6C74.6,43.8 78.3,44.2 82.3,42.8C86.1,41.5 89.8,38.9 92.3,36.8Z"></path></clipPath><g clip-path="url(#_clip9)"><path d="M69.1,23.9L44.3,14.2L41,42.8L59,49.9L69.1,23.9Z" style="fill:url(#_Linear10)"></path></g><clipPath id="_clip11"><path d="M92.3,36.8C96.5,33.3 101,29 102.1,27.8C101.5,25 101.1,22.6 101.1,22.5C93.7,31.5 85.2,37.1 79.8,38.8C70.1,42 68.1,38.5 67,37.2C63.4,33.2 62.4,30 58.4,26.2C54.7,22.7 50.1,21.1 47.6,20.4C31.6,15.7 19.3,24.4 19.2,24.4C19.7,26 20.3,27.5 20.8,29.1C23.5,27.1 27.3,25.4 29.8,24.5C32.1,23.7 35.4,22.9 37.3,22.7C39.2,22.5 42.5,22.5 44,22.5C45.5,22.6 49.2,23.4 50.5,23.8C52.8,24.5 55.4,25.7 56.4,26.4C57.5,27 59.1,27.9 61.2,30.1C63,31.9 65.3,35.7 66.2,37.2C67.1,38.7 68.5,40.7 72.2,42.6C74.6,43.8 78.3,44.2 82.3,42.8C86.1,41.5 89.8,38.9 92.3,36.8Z"></path></clipPath><g clip-path="url(#_clip11)"><path d="M58.2,51.9L82.9,61.6L86.3,33L68.3,26L58.2,51.9Z" style="fill:url(#_Linear12)"></path></g><clipPath id="_clip13"><path d="M92.3,36.8C96.5,33.3 101,29 102.1,27.8C101.5,25 101.1,22.6 101.1,22.5C93.7,31.5 85.2,37.1 79.8,38.8C70.1,42 68.1,38.5 67,37.2C63.4,33.2 62.4,30 58.4,26.2C54.7,22.7 50.1,21.1 47.6,20.4C31.6,15.7 19.3,24.4 19.2,24.4C19.7,26 20.3,27.5 20.8,29.1C23.5,27.1 27.3,25.4 29.8,24.5C32.1,23.7 35.4,22.9 37.3,22.7C39.2,22.5 42.5,22.5 44,22.5C45.5,22.6 49.2,23.4 50.5,23.8C52.8,24.5 55.4,25.7 56.4,26.4C57.5,27 59.1,27.9 61.2,30.1C63,31.9 65.3,35.7 66.2,37.2C67.1,38.7 68.5,40.7 72.2,42.6C74.6,43.8 78.3,44.2 82.3,42.8C86.1,41.5 89.8,38.9 92.3,36.8Z"></path></clipPath><g clip-path="url(#_clip13)"><rect x="70.7" y="33.6" width="13.9" height="14.5" style="fill:url(#_Linear14)"></rect></g></g></g></g><defs><linearGradient id="_Linear2" x1="0" y1="0" x2="1" y2="0" gradientUnits="userSpaceOnUse" gradientTransform="matrix(-15.7283,-2.11246,2.11246,-15.7283,57.7665,27.4399)"><stop offset="0" style="stop-color:rgb(76,76,78);stop-opacity:1"></stop><stop offset="0.52" style="stop-color:rgb(82,82,84);stop-opacity:1"></stop><stop offset="1" style="stop-color:rgb(92,93,95);stop-opacity:1"></stop></linearGradient><linearGradient id="_Linear4" x1="0" y1="0" x2="1" y2="0" gradientUnits="userSpaceOnUse" gradientTransform="matrix(15.7283,2.11263,-2.11263,15.7283,66.3036,29.9017)"><stop offset="0" style="stop-color:rgb(76,76,78);stop-opacity:1"></stop><stop offset="0.52" style="stop-color:rgb(82,82,84);stop-opacity:1"></stop><stop offset="1" style="stop-color:rgb(92,93,95);stop-opacity:1"></stop></linearGradient><linearGradient id="_Linear6" x1="0" y1="0" x2="1" y2="0" gradientUnits="userSpaceOnUse" gradientTransform="matrix(-13.6771,-1.83703,1.83703,-13.6771,59.523,35.5628)"><stop offset="0" style="stop-color:rgb(76,76,78);stop-opacity:1"></stop><stop offset="0.12" style="stop-color:rgb(82,82,84);stop-opacity:1"></stop><stop offset="0.29" style="stop-color:rgb(98,99,102);stop-opacity:1"></stop><stop offset="0.5" style="stop-color:rgb(123,125,127);stop-opacity:1"></stop><stop offset="0.73" style="stop-color:rgb(156,158,160);stop-opacity:1"></stop><stop offset="0.98" style="stop-color:rgb(201,203,204);stop-opacity:1"></stop><stop offset="1" style="stop-color:rgb(206,207,209);stop-opacity:1"></stop></linearGradient><linearGradient id="_Linear8" x1="0" y1="0" x2="1" y2="0" gradientUnits="userSpaceOnUse" gradientTransform="matrix(17.4259,2.77285,-2.77285,17.4259,64.4558,47.1297)"><stop offset="0" style="stop-color:rgb(76,76,78);stop-opacity:1"></stop><stop offset="0.12" style="stop-color:rgb(82,82,84);stop-opacity:1"></stop><stop offset="0.29" style="stop-color:rgb(98,99,102);stop-opacity:1"></stop><stop offset="0.5" style="stop-color:rgb(123,125,127);stop-opacity:1"></stop><stop offset="0.73" style="stop-color:rgb(156,158,160);stop-opacity:1"></stop><stop offset="0.98" style="stop-color:rgb(201,203,204);stop-opacity:1"></stop><stop offset="1" style="stop-color:rgb(206,207,209);stop-opacity:1"></stop></linearGradient><linearGradient id="_Linear10" x1="0" y1="0" x2="1" y2="0" gradientUnits="userSpaceOnUse" gradientTransform="matrix(-15.729,-2.11251,2.11251,-15.729,60.5369,33.2236)"><stop offset="0" style="stop-color:rgb(76,76,78);stop-opacity:1"></stop><stop offset="0.71" style="stop-color:rgb(69,69,71);stop-opacity:1"></stop><stop offset="1" style="stop-color:rgb(65,64,66);stop-opacity:1"></stop></linearGradient><linearGradient id="_Linear12" x1="0" y1="0" x2="1" y2="0" gradientUnits="userSpaceOnUse" gradientTransform="matrix(15.7292,2.11259,-2.11259,15.7292,66.7193,42.6088)"><stop offset="0" style="stop-color:rgb(76,76,78);stop-opacity:1"></stop><stop offset="0.28" style="stop-color:rgb(76,76,78);stop-opacity:1"></stop><stop offset="0.7" style="stop-color:rgb(72,72,74);stop-opacity:1"></stop><stop offset="1" style="stop-color:rgb(65,64,66);stop-opacity:1"></stop></linearGradient><linearGradient id="_Linear14" x1="0" y1="0" x2="1" y2="0" gradientUnits="userSpaceOnUse" gradientTransform="matrix(-11.9226,-3.2899,3.2899,-11.9226,83.7598,42.5836)"><stop offset="0" style="stop-color:rgb(65,64,66);stop-opacity:1"></stop><stop offset="0.6" style="stop-color:rgb(67,67,69);stop-opacity:1"></stop><stop offset="1" style="stop-color:rgb(76,76,78);stop-opacity:1"></stop></linearGradient></defs></svg>