<?xml version="1.0" encoding="UTF-8" standalone="no"?>
<!DOCTYPE svg PUBLIC "-//W3C//DTD SVG 1.1//EN" "http://www.w3.org/Graphics/SVG/1.1/DTD/svg11.dtd">
    <svg version="1.1" viewBox="0 0 1000 135">
      <defs>
        <polygon id="path-1" points="0 134.379 1000 134.379 1000 0 0 0" />
      </defs>
      <g id="Page-1" fill="none" stroke="none" strokeWidth="1">
        <g>
          <path id="Fill-1" d="M31.4904,71.1105 L23.2134,71.1105 L23.2134,117.8575 L34.0274,117.8575 C42.1364,117.8575 49.2334,113.3525 49.2334,97.0185 C49.2334,80.5475 45.5144,71.1105 31.4904,71.1105 Z M39.0964,132.0755 C35.2094,132.4995 30.6494,132.4995 23.7224,132.4995 L0.2384,132.4995 L0.2384,57.3105 L20.1744,57.3105 C26.0884,57.3105 34.8714,57.3105 38.7584,57.7365 C60.8914,59.8465 74.4034,72.6615 74.4034,95.4705 C74.4034,117.4335 59.3704,129.9635 39.0964,132.0755 Z" fill="#FFFFFF" />
          <path id="Fill-3" d="M116.6149,74.4914 C114.7579,82.0944 110.8709,94.4814 108.1669,102.5094 L124.5569,102.5094 C122.0199,94.6234 118.3039,82.0944 116.6149,74.4914 L116.6149,74.4914 Z M136.5529,132.4984 L129.6239,116.4474 L102.7589,116.4474 L96.3419,132.4984 L72.5189,132.4984 L105.9719,56.6094 L128.9499,56.6094 L160.3749,132.4984 L136.5529,132.4984 Z" fill="#FFFFFF" />
          <path id="Fill-5" d="M216.2887,84.6281 L215.9477,56.8891 L236.8977,56.8891 L236.8977,132.4981 L213.7527,132.3571 L196.8597,101.5241 C192.9697,94.4851 189.4237,87.7261 186.8877,82.2321 C187.2267,88.1471 187.3997,98.5661 187.5677,103.6361 L188.0737,132.4981 L166.7847,132.4981 L166.7847,56.8891 L191.4487,56.8891 L209.0237,86.0341 C212.9077,92.5141 214.7677,97.1561 217.4687,103.4951 C216.7947,96.5951 216.2887,89.9781 216.2887,84.6281" fill="#FFFFFF" />
          <mask id="mask-2" fill="white">
            <polygon points="0 134.379 1000 134.379 1000 0 0 0" />
          </mask>
          <g id="Clip-8" />
          <polygon id="Fill-7" fill="#FFFFFF" points="255.814 132.499 279.295 132.499 279.295 57.03 255.814 57.03" />
          <path id="Fill-9" d="M328.2887,71.1105 L320.0117,71.1105 L320.0117,117.8575 L330.8247,117.8575 C338.9347,117.8575 346.0317,113.3525 346.0317,97.0185 C346.0317,80.5475 342.3117,71.1105 328.2887,71.1105 M335.8947,132.0755 C332.0077,132.4995 327.4467,132.4995 320.5197,132.4995 L297.0367,132.4995 L297.0367,57.3105 L316.9717,57.3105 C322.8857,57.3105 331.6697,57.3105 335.5537,57.7365 C357.6897,59.8465 371.2017,72.6615 371.2017,95.4705 C371.2017,117.4335 356.1677,129.9635 335.8947,132.0755" fill="#FFFFFF" />
          <path id="Fill-10" d="M412.4186,74.4914 C410.5616,82.0944 406.6746,94.4814 403.9706,102.5094 L420.3596,102.5094 C417.8236,94.6234 414.1066,82.0944 412.4186,74.4914 L412.4186,74.4914 Z M432.3566,132.4984 L425.4266,116.4474 L398.5676,116.4474 L392.1446,132.4984 L368.3256,132.4984 L401.7756,56.6094 L424.7526,56.6094 L456.1786,132.4984 L432.3566,132.4984 Z" fill="#FFFFFF" />
          <polygon id="Fill-11" fill="#FFFFFF" points="475.854 134.379 481.73 134.379 481.73 54.788 475.854 54.788" />
          <path id="Fill-12" d="M12.0236,0.0895 L16.4696,14.2575 C17.1056,16.2995 17.3496,17.1095 17.6436,18.5715 C17.9876,17.1095 18.3296,15.8055 18.8676,14.1425 L23.4636,0.0895 L32.4056,0.0895 L35.4336,28.3905 L28.6896,28.3905 L27.4186,13.2835 C27.2736,11.4885 27.1276,10.2705 27.1276,8.7645 C26.7356,10.3885 26.4946,11.2095 25.9026,12.9195 L20.5296,28.3905 L14.5156,28.3905 L9.6816,13.5305 C9.2366,12.1455 8.3106,8.5995 8.3106,8.5995 C8.3106,10.2705 8.2106,11.8595 8.0636,13.6075 L6.8916,28.3905 L0.0006,28.3905 L3.1786,0.0895 L12.0236,0.0895 Z" fill="#FFFFFF" />
          <polygon id="Fill-13" fill="#FFFFFF" points="41.053 28.392 47.847 28.392 47.847 6.565 41.053 6.565" />
          <path id="Fill-14" d="M69.5006,14.5446 L69.4006,6.5236 L75.4646,6.5236 L75.4646,28.3926 L68.7656,28.3506 L63.8806,19.4296 C62.7566,17.3966 61.7296,15.4366 60.9946,13.8506 C61.0946,15.5606 61.1416,18.5696 61.1946,20.0416 L61.3416,28.3926 L55.1796,28.3926 L55.1796,6.5236 L62.3156,6.5236 L67.3996,14.9536 C68.5236,16.8286 69.0626,18.1696 69.8446,20.0026 C69.6476,18.0046 69.5006,16.0896 69.5006,14.5446" fill="#FFFFFF" />
          <polygon id="Fill-15" fill="#FFFFFF" points="82.892 28.392 89.686 28.392 89.686 6.565 82.892 6.565" />
          <path id="Fill-16" d="M104.445,28.8771 C101.267,28.8771 97.995,28.3091 94.82,27.0491 L96.968,22.8891 C99.705,23.8721 101.906,24.5221 104.786,24.5221 C107.867,24.5221 109.43,23.8721 109.43,22.3621 C109.43,21.1821 108.406,20.3291 106.01,19.9201 L102.686,19.2701 C99.852,18.6581 97.945,17.6431 96.968,16.1711 C96.236,15.1121 95.894,14.0181 95.894,12.7941 C95.894,8.7621 100.243,5.8351 106.546,5.8351 C110.115,5.8351 114.173,6.7321 116.615,8.0681 L113.534,11.8571 C111.048,10.7571 108.747,10.2281 106.693,10.2281 C104.642,10.2281 103.174,11.0041 103.174,12.2231 C103.174,13.2851 103.713,13.7681 105.91,14.1791 L109.43,14.8711 C114.026,15.7711 116.86,17.8811 116.86,21.2271 C116.86,25.8641 111.925,28.8771 104.445,28.8771" fill="#FFFFFF" />
          <path id="Fill-17" d="M140.4186,10.8795 L133.8686,10.8795 L133.8686,28.3905 L127.1716,28.3905 L127.1716,10.8795 L120.3776,10.8795 L120.3776,6.5665 L141.6896,6.5665 C141.7366,6.5665 140.4186,10.8795 140.4186,10.8795" fill="#FFFFFF" />
          <path id="Fill-18" d="M153.7599,10.5099 L151.5119,10.5099 L151.5119,15.6889 L153.6599,15.6889 C157.2319,15.6889 158.3559,14.8679 158.3559,13.1199 C158.3559,11.3689 157.3259,10.5099 153.7599,10.5099 L153.7599,10.5099 Z M159.3299,28.3909 C158.1589,26.9259 157.5729,26.2729 156.4969,24.7219 C153.3219,20.2849 152.7829,19.5929 152.0009,19.5929 L151.5619,19.6319 L151.5619,28.3909 L145.1559,28.3909 L145.1559,6.4849 L155.3219,6.4849 C158.1589,6.4849 161.0429,6.9319 162.8019,8.3149 C164.5149,9.7419 165.1479,11.3249 165.1479,13.1199 C165.1479,16.1719 162.5579,18.7349 159.8219,19.2319 C161.5809,20.8999 166.3719,27.4179 167.0539,28.3909 L159.3299,28.3909 Z" fill="#FFFFFF" />
          <path id="Fill-19" d="M183.3302,19.3073 L183.3302,28.3903 L176.5362,28.3903 L176.5362,19.3493 L167.5402,6.4433 L175.3622,6.4433 L178.5902,11.8163 C179.1722,12.7543 179.7112,13.6493 180.2492,14.5903 C180.6902,13.6493 181.0822,12.7923 181.7172,11.7393 L184.8452,6.5253 L192.6132,6.5253 L183.3302,19.3073 Z" fill="#FFFFFF" />
          <path id="Fill-20" d="M222.9689,10.1486 C219.1049,10.1486 217.5429,12.7946 217.5429,17.7576 C217.5429,23.2606 219.2999,24.8906 222.9689,24.8906 C226.3879,24.8906 228.2449,23.0166 228.2449,17.2316 C228.2449,12.7946 227.0269,10.1486 222.9689,10.1486 M223.3069,28.7156 C214.9509,28.7156 210.2609,24.1166 210.2609,17.5986 C210.2609,10.4346 215.1449,6.2826 223.0659,6.2826 C230.4929,6.2826 235.7239,9.9426 235.7239,17.2316 C235.7239,24.0726 231.5699,28.7156 223.3069,28.7156" fill="#FFFFFF" />
          <polygon id="Fill-21" fill="#FFFFFF" points="256.3991 10.7565 247.9421 10.7565 247.9421 14.9555 254.6391 14.9555 254.6391 19.2285 247.9421 19.2285 247.9421 28.3935 241.4401 28.3935 241.4401 6.6055 257.1791 6.6055" />
          <polygon id="Fill-22" fill="#FFFFFF" points="296.0827 0.172 295.3027 4.774 284.5007 4.774 284.5007 11.248 293.1487 11.248 293.1487 15.885 284.5007 15.885 284.5007 28.393 277.6537 28.393 277.6537 0.172" />
          <path id="Fill-23" d="M310.2541,10.1486 C306.3971,10.1486 304.8311,12.7946 304.8311,17.7576 C304.8311,23.2606 306.5911,24.8906 310.2541,24.8906 C313.6761,24.8906 315.5361,23.0166 315.5361,17.2316 C315.5361,12.7946 314.3151,10.1486 310.2541,10.1486 M310.5981,28.7156 C302.2361,28.7156 297.5481,24.1166 297.5481,17.5986 C297.5481,10.4346 302.4331,6.2826 310.3541,6.2826 C317.7871,6.2826 323.0041,9.9426 323.0041,17.2316 C323.0041,24.0726 318.8581,28.7156 310.5981,28.7156" fill="#FFFFFF" />
          <path id="Fill-24" d="M336.3996,10.5099 L334.1486,10.5099 L334.1486,15.6889 L336.2996,15.6889 C339.8626,15.6889 340.9896,14.8679 340.9896,13.1199 C340.9896,11.3689 339.9596,10.5099 336.3996,10.5099 L336.3996,10.5099 Z M341.9636,28.3909 C340.7926,26.9259 340.2096,26.2729 339.1276,24.7219 C335.9556,20.2849 335.4166,19.5929 334.6366,19.5929 L334.1926,19.6319 L334.1926,28.3909 L327.7956,28.3909 L327.7956,6.4849 L337.9556,6.4849 C340.7926,6.4849 343.6816,6.9319 345.4356,8.3149 C347.1486,9.7419 347.7806,11.3249 347.7806,13.1199 C347.7806,16.1719 345.1946,18.7349 342.4546,19.2319 C344.2146,20.8999 349.0046,27.4179 349.6876,28.3909 L341.9636,28.3909 Z" fill="#FFFFFF" />
          <polygon id="Fill-25" fill="#FFFFFF" points="353.7921 28.3917 353.7921 6.4827 370.4611 6.4827 369.5311 10.7167 360.2921 10.7167 360.2921 14.7917 368.0191 14.7917 368.0191 19.0647 360.4451 19.0647 360.4451 23.9517 370.7551 23.9517 370.7551 28.3917" />
          <polygon id="Fill-26" fill="#FFFFFF" points="376.423 28.392 383.217 28.392 383.217 6.565 376.423 6.565" />
          <path id="Fill-27" d="M401.694,28.5934 C397.151,28.5934 393.97,27.4984 391.622,25.1334 C389.571,23.0964 388.644,20.8164 388.644,17.6794 C388.644,10.6764 393.92,6.1604 402.029,6.1604 C405.602,6.1604 409.021,7.0904 411.616,8.7224 L408.097,11.9364 C406.284,10.8384 404.28,10.2264 402.085,10.2264 C397.489,10.2264 395.971,12.4274 395.971,17.9624 C395.971,23.3384 398.125,24.8474 401.986,24.8474 C403.112,24.8474 403.892,24.6444 404.819,24.3594 L404.819,20.1224 L401.003,20.1224 L400.079,15.9704 L411.757,15.9704 L411.757,26.5604 C408.435,27.9434 405.26,28.5934 401.694,28.5934" fill="#FFFFFF" />
          <path id="Fill-28" d="M431.9928,14.5446 L431.8928,6.5236 L437.9538,6.5236 L437.9538,28.3926 L431.2578,28.3506 L426.3728,19.4296 C425.2518,17.3966 424.2248,15.4366 423.4868,13.8506 C423.5868,15.5606 423.6338,18.5696 423.6868,20.0416 L423.8338,28.3926 L417.6718,28.3926 L417.6718,6.5236 L424.8108,6.5236 L429.8918,14.9536 C431.0188,16.8286 431.5548,18.1696 432.3368,20.0026 C432.1398,18.0046 431.9928,16.0896 431.9928,14.5446" fill="#FFFFFF" />
          <path id="Fill-29" d="M475.1491,16.9445 C475.1491,16.9445 474.0221,13.9785 473.2921,11.2445 C472.9511,9.9445 471.9241,6.2365 471.9241,6.2365 C471.9241,6.2365 470.9471,9.5765 470.3091,11.6925 C469.6761,13.7315 469.2341,15.0785 468.5051,16.9445 L475.1491,16.9445 Z M486.5391,28.3905 L479.2041,28.3905 L476.8141,21.6705 L466.8421,21.6705 L464.4501,28.3905 L457.3121,28.3905 L468.4551,0.0015 L475.8321,0.0015 L486.5391,28.3905 Z" fill="#FFFFFF" />
          <polygon id="Fill-30" fill="#FFFFFF" points="505.0124 10.7565 496.5554 10.7565 496.5554 14.9555 503.2524 14.9555 503.2524 19.2285 496.5554 19.2285 496.5554 28.3935 490.0554 28.3935 490.0554 6.6055 505.7984 6.6055" />
          <polygon id="Fill-31" fill="#FFFFFF" points="525.2448 10.7565 516.7878 10.7565 516.7878 14.9555 523.4818 14.9555 523.4818 19.2285 516.7878 19.2285 516.7878 28.3935 510.2878 28.3935 510.2878 6.6055 526.0208 6.6055" />
          <path id="Fill-32" d="M539.7574,11.611 C539.2194,13.815 538.0984,17.396 537.3124,19.717 L542.0584,19.717 C541.3174,17.434 540.2454,13.815 539.7574,11.611 L539.7574,11.611 Z M545.5254,28.392 L543.5274,23.749 L535.7554,23.749 L533.8934,28.392 L526.9984,28.392 L536.6764,6.442 L543.3264,6.442 L552.4214,28.392 L545.5254,28.392 Z" fill="#FFFFFF" />
          <polygon id="Fill-33" fill="#FFFFFF" points="556.18 28.392 562.974 28.392 562.974 6.565 556.18 6.565" />
          <path id="Fill-34" d="M578.3766,10.5099 L576.1256,10.5099 L576.1256,15.6889 L578.2766,15.6889 C581.8496,15.6889 582.9766,14.8679 582.9766,13.1199 C582.9766,11.3689 581.9456,10.5099 578.3766,10.5099 L578.3766,10.5099 Z M583.9466,28.3909 C582.7786,26.9259 582.1896,26.2729 581.1136,24.7219 C577.9336,20.2849 577.3996,19.5929 576.6086,19.5929 L576.1736,19.6319 L576.1736,28.3909 L569.7726,28.3909 L569.7726,6.4849 L579.9416,6.4849 C582.7786,6.4849 585.6626,6.9319 587.4226,8.3149 C589.1286,9.7419 589.7616,11.3249 589.7616,13.1199 C589.7616,16.1719 587.1756,18.7349 584.4386,19.2319 C586.1976,20.8999 590.9886,27.4179 591.6776,28.3909 L583.9466,28.3909 Z" fill="#FFFFFF" />
          <path id="Fill-35" d="M603.3961,28.8771 C600.2271,28.8771 596.9491,28.3091 593.7741,27.0491 L595.9221,22.8891 C598.6591,23.8721 600.8661,24.5221 603.7411,24.5221 C606.8241,24.5221 608.3891,23.8721 608.3891,22.3621 C608.3891,21.1821 607.3571,20.3291 604.9641,19.9201 L601.6421,19.2701 C598.8061,18.6581 596.9051,17.6431 595.9221,16.1711 C595.1961,15.1121 594.8481,14.0181 594.8481,12.7941 C594.8481,8.7621 599.2001,5.8351 605.5021,5.8351 C609.0661,5.8351 613.1261,6.7321 615.5721,8.0681 L612.4911,11.8571 C609.9991,10.7571 607.7041,10.2281 605.6501,10.2281 C603.6021,10.2281 602.1301,11.0041 602.1301,12.2231 C602.1301,13.2851 602.6691,13.7681 604.8681,14.1791 L608.3891,14.8711 C612.9831,15.7711 615.8161,17.8811 615.8161,21.2271 C615.8161,25.8641 610.8841,28.8771 603.3961,28.8771" fill="#FFFFFF" />
          <path id="Fill-36" d="M648.9108,10.1486 C645.0538,10.1486 643.4878,12.7946 643.4878,17.7576 C643.4878,23.2606 645.2508,24.8906 648.9108,24.8906 C652.3388,24.8906 654.1948,23.0166 654.1948,17.2316 C654.1948,12.7946 652.9718,10.1486 648.9108,10.1486 M649.2548,28.7156 C640.8978,28.7156 636.2048,24.1166 636.2048,17.5986 C636.2048,10.4346 641.0898,6.2826 649.0108,6.2826 C656.4428,6.2826 661.6698,9.9426 661.6698,17.2316 C661.6698,24.0726 657.5118,28.7156 649.2548,28.7156" fill="#FFFFFF" />
          <polygon id="Fill-37" fill="#FFFFFF" points="682.3492 10.7565 673.8862 10.7565 673.8862 14.9555 680.5802 14.9555 680.5802 19.2285 673.8862 19.2285 673.8862 28.3935 667.3892 28.3935 667.3892 6.6055 683.1252 6.6055" />
          <path id="Fill-38" d="M710.4459,23.7487 L714.1089,23.7487 C714.8949,23.7487 715.5809,23.6667 716.2129,23.5017 C717.4839,23.1777 718.4579,22.5247 719.1939,21.4657 C720.1759,20.0417 720.6649,17.9227 720.6649,15.0337 C720.6649,11.7377 720.3179,8.9657 718.9529,7.0917 C717.8319,5.5467 716.2599,4.7317 713.5709,4.7317 L710.4459,4.7317 L710.4459,23.7487 Z M710.3449,0.2507 C712.3019,0.2507 714.8949,0.3357 716.2599,0.4177 C719.1429,0.6157 721.5889,1.5507 723.6929,3.2257 C726.8149,5.7937 728.3359,9.4137 728.3359,14.5037 C728.3359,18.3707 727.1589,21.5507 724.9139,24.1547 C722.8629,26.4767 719.8319,27.9447 716.6539,28.2327 C715.3859,28.3097 713.7709,28.3917 711.7699,28.3917 L703.5049,28.3917 L703.5049,0.2507 L710.3449,0.2507 Z" fill="#FFFFFF" />
          <polygon id="Fill-39" fill="#FFFFFF" points="733.4635 28.3917 733.4635 6.4827 750.1295 6.4827 749.1995 10.7167 739.9695 10.7167 739.9695 14.7917 747.6915 14.7917 747.6915 19.0647 740.1105 19.0647 740.1105 23.9517 750.4275 23.9517 750.4275 28.3917" />
          <path id="Fill-40" d="M770.4645,14.5446 L770.3635,6.5236 L776.4315,6.5236 L776.4315,28.3926 L769.7295,28.3506 L764.8475,19.4296 C763.7175,17.3966 762.6955,15.4366 761.9575,13.8506 C762.0585,15.5606 762.1105,18.5696 762.1575,20.0416 L762.3055,28.3926 L756.1435,28.3926 L756.1435,6.5236 L763.2785,6.5236 L768.3635,14.9536 C769.4855,16.8286 770.0265,18.1696 770.8085,20.0026 C770.6115,18.0046 770.4645,16.0896 770.4645,14.5446" fill="#FFFFFF" />
          <path id="Fill-41" d="M806.9274,28.3917 L806.0444,17.7577 C805.9444,16.6197 805.8474,15.5597 805.7494,14.0567 C805.4114,15.3157 804.8664,16.4987 804.4314,17.6427 L800.5244,28.3507 L794.9504,28.3507 L791.4324,17.9637 C791.0874,16.9837 790.5524,15.3157 790.1604,13.5677 C790.1144,15.0797 790.0134,16.6197 789.8664,17.9637 L789.0364,28.3917 L782.4404,28.3917 L785.2764,6.5647 L793.4394,6.5647 L796.7574,16.6657 C797.2454,18.0937 797.5404,18.9817 797.8344,20.3677 C798.1764,19.0227 798.5204,17.7257 798.9584,16.4597 L802.4274,6.5647 L810.6374,6.5647 L813.3234,28.3917 L806.9274,28.3917 Z" fill="#FFFFFF" />
          <path id="Fill-42" d="M828.9176,11.611 C828.3796,13.815 827.2526,17.396 826.4786,19.717 L831.2156,19.717 C830.4826,17.434 829.4086,13.815 828.9176,11.611 L828.9176,11.611 Z M834.6856,28.392 L832.6846,23.749 L824.9126,23.749 L823.0536,28.392 L816.1596,28.392 L825.8406,6.442 L832.4866,6.442 L841.5796,28.392 L834.6856,28.392 Z" fill="#FFFFFF" />
          <path id="Fill-43" d="M853.4518,10.5099 L851.2038,10.5099 L851.2038,15.6889 L853.3518,15.6889 C856.9248,15.6889 858.0458,14.8679 858.0458,13.1199 C858.0458,11.3689 857.0208,10.5099 853.4518,10.5099 L853.4518,10.5099 Z M859.0218,28.3909 C857.8478,26.9259 857.2678,26.2729 856.1878,24.7219 C853.0138,20.2849 852.4748,19.5929 851.6978,19.5929 L851.2538,19.6319 L851.2538,28.3909 L844.8508,28.3909 L844.8508,6.4849 L855.0118,6.4849 C857.8478,6.4849 860.7318,6.9319 862.4968,8.3149 C864.2038,9.7419 864.8428,11.3249 864.8428,13.1199 C864.8428,16.1719 862.2498,18.7349 859.5138,19.2319 C861.2758,20.8999 866.0658,27.4179 866.7428,28.3909 L859.0218,28.3909 Z" fill="#FFFFFF" />
          <polygon id="Fill-44" fill="#FFFFFF" points="885.8053 28.3917 877.6963 17.0667 877.6963 28.3917 871.0023 28.3917 871.0023 6.5647 877.6963 6.5647 877.6963 16.3367 885.0293 6.5647 893.0913 6.5647 884.6843 16.6197 894.5033 28.3917" />
          <polygon id="Fill-45" fill="#FFFFFF" points="511.979 83.351 517.955 83.351 517.955 64.149 511.979 64.149" />
          <path id="Fill-46" d="M536.9938,71.1681 L536.9088,64.1121 L542.2378,64.1121 L542.2378,83.3501 L536.3488,83.3141 L532.0508,75.4671 C531.0648,73.6751 530.1588,71.9561 529.5148,70.5591 C529.5988,72.0631 529.6468,74.7141 529.6848,76.0021 L529.8168,83.3501 L524.3998,83.3501 L524.3998,64.1121 L530.6768,64.1121 L535.1458,71.5271 C536.1348,73.1751 536.6058,74.3551 537.2978,75.9701 C537.1238,74.2141 536.9938,72.5301 536.9938,71.1681" fill="#FFFFFF" />
          <path id="Fill-47" d="M563.2994,67.9445 L557.5414,67.9445 L557.5414,83.3475 L551.6534,83.3475 L551.6534,67.9445 L545.6774,67.9445 L545.6774,64.1455 L564.4174,64.1455 C564.4614,64.1455 563.2994,67.9445 563.2994,67.9445" fill="#FFFFFF" />
          <polygon id="Fill-48" fill="#FFFFFF" points="567.7701 83.3478 567.7701 64.0748 582.4261 64.0748 581.6111 67.7998 573.4871 67.7998 573.4871 71.3838 580.2751 71.3838 580.2751 75.1448 573.6141 75.1448 573.6141 79.4438 582.6821 79.4438 582.6821 83.3478" />
          <path id="Fill-49" d="M594.8043,67.6222 L592.8293,67.6222 L592.8293,72.1742 L594.7193,72.1742 C597.8563,72.1742 598.8473,71.4562 598.8473,69.9142 C598.8473,68.3722 597.9443,67.6222 594.8043,67.6222 L594.8043,67.6222 Z M599.7063,83.3472 C598.6763,82.0582 598.1583,81.4832 597.2143,80.1242 C594.4153,76.2172 593.9453,75.6102 593.2593,75.6102 L592.8713,75.6452 L592.8713,83.3472 L587.2403,83.3472 L587.2403,64.0762 L596.1813,64.0762 C598.6763,64.0762 601.2103,64.4672 602.7573,65.6882 C604.2613,66.9392 604.8243,68.3372 604.8243,69.9142 C604.8243,72.6012 602.5433,74.8572 600.1333,75.2872 C601.6843,76.7552 605.8943,82.4902 606.5003,83.3472 L599.7063,83.3472 Z" fill="#FFFFFF" />
          <path id="Fill-50" d="M622.8727,71.1681 L622.7867,64.1121 L628.1187,64.1121 L628.1187,83.3501 L622.2277,83.3141 L617.9297,75.4671 C616.9427,73.6751 616.0397,71.9561 615.3927,70.5591 C615.4807,72.0631 615.5217,74.7141 615.5657,76.0021 L615.6957,83.3501 L610.2787,83.3501 L610.2787,64.1121 L616.5587,64.1121 L621.0237,71.5271 C622.0137,73.1751 622.4837,74.3551 623.1787,75.9701 C623.0047,74.2141 622.8727,72.5301 622.8727,71.1681" fill="#FFFFFF" />
          <path id="Fill-51" d="M642.7311,68.589 C642.2571,70.523 641.2681,73.674 640.5831,75.716 L644.7521,75.716 C644.1081,73.709 643.1641,70.523 642.7311,68.589 L642.7311,68.589 Z M647.8001,83.349 L646.0391,79.265 L639.2061,79.265 L637.5761,83.349 L631.5141,83.349 L640.0241,64.037 L645.8711,64.037 L653.8621,83.349 L647.8001,83.349 Z" fill="#FFFFFF" />
          <path id="Fill-52" d="M669.9772,67.9445 L664.2212,67.9445 L664.2212,83.3475 L658.3282,83.3475 L658.3282,67.9445 L652.3552,67.9445 L652.3552,64.1455 L671.0952,64.1455 C671.1392,64.1455 669.9772,67.9445 669.9772,67.9445" fill="#FFFFFF" />
          <polygon id="Fill-53" fill="#FFFFFF" points="674.579 83.351 680.556 83.351 680.556 64.149 674.579 64.149" />
          <path id="Fill-54" d="M696.4137,67.2999 C693.0157,67.2999 691.6417,69.6269 691.6417,73.9959 C691.6417,78.8339 693.1887,80.2669 696.4137,80.2669 C699.4207,80.2669 701.0517,78.6159 701.0517,73.5309 C701.0517,69.6269 699.9797,67.2999 696.4137,67.2999 M696.7137,83.6359 C689.3607,83.6359 685.2347,79.5839 685.2347,73.8559 C685.2347,67.5499 689.5337,63.8949 696.4987,63.8949 C703.0307,63.8949 707.6307,67.1199 707.6307,73.5309 C707.6307,79.5519 703.9787,83.6359 696.7137,83.6359" fill="#FFFFFF" />
          <path id="Fill-55" d="M724.4811,71.1681 L724.3961,64.1121 L729.7251,64.1121 L729.7251,83.3501 L723.8361,83.3141 L719.5381,75.4671 C718.5491,73.6751 717.6491,71.9561 717.0021,70.5591 C717.0901,72.0631 717.1311,74.7141 717.1691,76.0021 L717.3021,83.3501 L711.8871,83.3501 L711.8871,64.1121 L718.1611,64.1121 L722.6331,71.5271 C723.6231,73.1751 724.0931,74.3551 724.7821,75.9701 C724.6111,74.2141 724.4811,72.5301 724.4811,71.1681" fill="#FFFFFF" />
          <path id="Fill-56" d="M744.3405,68.589 C743.8665,70.523 742.8775,73.674 742.1925,75.716 L746.3615,75.716 C745.7175,73.709 744.7735,70.523 744.3405,68.589 L744.3405,68.589 Z M749.4095,83.349 L747.6475,79.265 L740.8155,79.265 L739.1855,83.349 L733.1235,83.349 L741.6335,64.037 L747.4805,64.037 L755.4715,83.349 L749.4095,83.349 Z" fill="#FFFFFF" />
          <polygon id="Fill-57" fill="#FFFFFF" points="772.4899 83.3478 758.9959 83.3478 758.9959 64.1458 764.7989 64.1458 764.8399 79.4788 773.6939 79.4788" />
          <path id="Fill-58" d="M519.7594,113.38 L517.6524,113.38 L517.6524,125.274 L520.4044,125.274 C522.4664,125.274 524.2734,124.128 524.2734,119.974 C524.2734,115.783 523.3254,113.38 519.7594,113.38 M521.6924,128.893 C520.7034,129.001 519.5414,129.001 517.7814,129.001 L511.8054,129.001 L511.8054,109.869 L516.8784,109.869 C518.3824,109.869 520.6184,109.869 521.6074,109.979 C527.2384,110.514 530.6754,113.775 530.6754,119.576 C530.6754,125.167 526.8504,128.354 521.6924,128.893" fill="#FFFFFF" />
          <polygon id="Fill-59" fill="#FFFFFF" points="534.6744 129.0001 534.6744 109.7271 549.3304 109.7271 548.5134 113.4521 540.3924 113.4521 540.3924 117.0331 547.1804 117.0331 547.1804 120.7971 540.5154 120.7971 540.5154 125.0961 549.5874 125.0961 549.5874 129.0001" />
          <path id="Fill-60" d="M564.4606,118.1437 L568.4566,109.7957 L574.4766,109.7957 L565.4046,129.1457 L560.4646,129.1457 L551.6076,109.7957 L557.8846,109.7957 L561.4946,118.2147 C562.0506,119.5417 562.6126,121.0097 562.9566,122.1937 C563.3866,120.9047 563.8136,119.5067 564.4606,118.1437" fill="#FFFFFF" />
          <polygon id="Fill-61" fill="#FFFFFF" points="577.9576 129.0001 577.9576 109.7271 592.6136 109.7271 591.7966 113.4521 583.6756 113.4521 583.6756 117.0331 590.4636 117.0331 590.4636 120.7971 583.7986 120.7971 583.7986 125.0961 592.8706 125.0961 592.8706 129.0001" />
          <polygon id="Fill-62" fill="#FFFFFF" points="611.569 129.0001 598.072 129.0001 598.072 109.7981 603.878 109.7981 603.919 125.1311 612.773 125.1311" />
          <path id="Fill-63" d="M624.2897,112.9503 C620.8917,112.9503 619.5177,115.2773 619.5177,119.6503 C619.5177,124.4843 621.0647,125.9183 624.2897,125.9183 C627.2977,125.9183 628.9277,124.2693 628.9277,119.1823 C628.9277,115.2773 627.8557,112.9503 624.2897,112.9503 M624.5907,129.2873 C617.2367,129.2873 613.1117,125.2383 613.1117,119.5063 C613.1117,113.2003 617.4107,109.5463 624.3757,109.5463 C630.9077,109.5463 635.5067,112.7703 635.5067,119.1823 C635.5067,125.2023 631.8547,129.2873 624.5907,129.2873" fill="#FFFFFF" />
          <path id="Fill-64" d="M647.8873,113.2726 L645.2653,113.2726 L645.2653,118.5016 L647.8433,118.5016 C650.1643,118.5016 651.1533,117.8606 651.1533,115.7806 C651.1533,114.3816 650.2493,113.2726 647.8873,113.2726 M652.3133,121.7996 C650.6353,122.1566 649.7763,122.1916 647.5873,122.1916 L645.2653,122.1916 L645.2653,129.0006 L639.5073,129.0006 L639.5073,109.6886 L646.0393,109.6886 C650.8533,109.6886 652.1393,110.0836 653.5603,110.6576 C656.0083,111.5866 657.3413,113.5226 657.3413,115.7806 C657.3413,118.5016 655.4103,121.1176 652.3133,121.7996" fill="#FFFFFF" />
          <path id="Fill-65" d="M681.7574,129.0001 L680.9864,119.6511 C680.8984,118.6481 680.8124,117.7161 680.7274,116.3891 C680.4244,117.5011 679.9504,118.5361 679.5624,119.5431 L676.1224,128.9651 L671.2264,128.9651 L668.1304,119.8281 C667.8334,118.9661 667.3544,117.5011 667.0154,115.9621 C666.9684,117.2861 666.8824,118.6481 666.7564,119.8281 L666.0244,129.0001 L660.2244,129.0001 L662.7164,109.7981 L669.8934,109.7981 L672.8154,118.6841 C673.2474,119.9351 673.5004,120.7231 673.7594,121.9441 C674.0624,120.7581 674.3654,119.6131 674.7504,118.5041 L677.7994,109.7981 L685.0234,109.7981 L687.3864,129.0001 L681.7574,129.0001 Z" fill="#FFFFFF" />
          <polygon id="Fill-66" fill="#FFFFFF" points="692.8883 129.0001 692.8883 109.7271 707.5443 109.7271 706.7263 113.4521 698.6053 113.4521 698.6053 117.0331 705.3933 117.0331 705.3933 120.7971 698.7353 120.7971 698.7353 125.0961 707.8033 125.0961 707.8033 129.0001" />
          <path id="Fill-67" d="M725.4264,116.8185 L725.3414,109.7625 L730.6694,109.7625 L730.6694,129.0005 L724.7794,128.9645 L720.4834,121.1185 C719.4944,119.3265 718.5944,117.6075 717.9474,116.2105 C718.0344,117.7155 718.0764,120.3675 718.1144,121.6565 L718.2464,129.0005 L712.8324,129.0005 L712.8324,109.7625 L719.1064,109.7625 L723.5784,117.1775 C724.5674,118.8255 725.0374,120.0085 725.7274,121.6215 C725.5564,119.8645 725.4264,118.1805 725.4264,116.8185" fill="#FFFFFF" />
          <path id="Fill-68" d="M752.5905,113.5958 L746.8355,113.5958 L746.8355,128.9988 L740.9425,128.9988 L740.9425,113.5958 L734.9685,113.5958 L734.9685,109.7968 L753.7085,109.7968 C753.7535,109.7968 752.5905,113.5958 752.5905,113.5958" fill="#FFFFFF" />
          <path id="Fill-69" d="M779.9723,129.3224 C776.6613,129.3224 774.0783,128.7134 771.9303,127.2454 C769.5273,125.3824 768.3653,122.9454 768.3653,119.9004 C768.3653,117.3194 768.9233,115.3484 770.2123,113.5944 C772.1903,110.9084 775.9293,109.3314 780.0133,109.3314 C782.5083,109.3314 785.2153,110.0104 786.5043,110.8384 L783.9243,113.9184 C782.7203,113.3094 781.3433,112.9504 780.1403,112.9504 C778.7693,112.9504 777.1323,113.4154 776.4033,114.1304 C775.2433,115.0984 774.8113,116.6394 774.8113,118.8264 C774.8113,121.5844 775.1123,123.0904 775.9293,124.0934 C776.9213,125.2034 778.2953,125.8114 780.3143,125.8114 C781.8173,125.8114 782.9793,125.5234 784.4863,124.6644 L787.0643,127.4244 C785.0833,128.7134 782.9353,129.3224 779.9723,129.3224" fill="#FFFFFF" />
          <path id="Fill-70" d="M799.6588,112.9503 C796.2598,112.9503 794.8858,115.2773 794.8858,119.6503 C794.8858,124.4843 796.4328,125.9183 799.6588,125.9183 C802.6658,125.9183 804.2958,124.2693 804.2958,119.1823 C804.2958,115.2773 803.2238,112.9503 799.6588,112.9503 M799.9588,129.2873 C792.6048,129.2873 788.4798,125.2383 788.4798,119.5063 C788.4798,113.2003 792.7788,109.5463 799.7438,109.5463 C806.2758,109.5463 810.8748,112.7703 810.8748,119.1823 C810.8748,125.2023 807.2228,129.2873 799.9588,129.2873" fill="#FFFFFF" />
          <path id="Fill-71" d="M824.5455,112.9503 C821.1475,112.9503 819.7735,115.2773 819.7735,119.6503 C819.7735,124.4843 821.3205,125.9183 824.5455,125.9183 C827.5535,125.9183 829.1835,124.2693 829.1835,119.1823 C829.1835,115.2773 828.1115,112.9503 824.5455,112.9503 M824.8465,129.2873 C817.4925,129.2873 813.3675,125.2383 813.3675,119.5063 C813.3675,113.2003 817.6665,109.5463 824.6315,109.5463 C831.1635,109.5463 835.7625,112.7703 835.7625,119.1823 C835.7625,125.2023 832.1105,129.2873 824.8465,129.2873" fill="#FFFFFF" />
          <path id="Fill-72" d="M848.1432,113.2726 L845.5212,113.2726 L845.5212,118.5016 L848.0992,118.5016 C850.4202,118.5016 851.4102,117.8606 851.4102,115.7806 C851.4102,114.3816 850.5062,113.2726 848.1432,113.2726 M852.5692,121.7996 C850.8912,122.1566 850.0322,122.1916 847.8432,122.1916 L845.5212,122.1916 L845.5212,129.0006 L839.7632,129.0006 L839.7632,109.6886 L846.2952,109.6886 C851.1092,109.6886 852.3952,110.0836 853.8162,110.6576 C856.2642,111.5866 857.5972,113.5226 857.5972,115.7806 C857.5972,118.5016 855.6662,121.1176 852.5692,121.7996" fill="#FFFFFF" />
          <polygon id="Fill-73" fill="#FFFFFF" points="860.733 129.0001 860.733 109.7271 875.395 109.7271 874.575 113.4521 866.454 113.4521 866.454 117.0331 873.245 117.0331 873.245 120.7971 866.58 120.7971 866.58 125.0961 875.648 125.0961 875.648 129.0001" />
          <path id="Fill-74" d="M887.7701,113.2726 L885.7951,113.2726 L885.7951,117.8226 L887.6841,117.8226 C890.8211,117.8226 891.8121,117.1066 891.8121,115.5656 C891.8121,114.0236 890.9091,113.2726 887.7701,113.2726 L887.7701,113.2726 Z M892.6711,129.0006 C891.6391,127.7086 891.1241,127.1376 890.1791,125.7756 C887.3811,121.8716 886.9111,121.2616 886.2251,121.2616 L885.8391,121.2966 L885.8391,129.0006 L880.2051,129.0006 L880.2051,109.7276 L889.1471,109.7276 C891.6391,109.7276 894.1751,110.1186 895.7231,111.3366 C897.2271,112.5926 897.7891,113.9906 897.7891,115.5656 C897.7891,118.2516 895.5081,120.5086 893.0981,120.9406 C894.6491,122.4066 898.8601,128.1376 899.4621,129.0006 L892.6711,129.0006 Z" fill="#FFFFFF" />
          <path id="Fill-75" d="M912.1393,114.2404 C911.6653,116.1744 910.6833,119.3284 909.9923,121.3704 L914.1603,121.3704 C913.5163,119.3634 912.5723,116.1744 912.1393,114.2404 L912.1393,114.2404 Z M917.2123,129.0004 L915.4503,124.9164 L908.6183,124.9164 L906.9843,129.0004 L900.9233,129.0004 L909.4323,109.6914 L915.2793,109.6914 L923.2743,129.0004 L917.2123,129.0004 Z" fill="#FFFFFF" />
          <path id="Fill-76" d="M940.2526,113.5958 L934.4916,113.5958 L934.4916,128.9988 L928.6036,128.9988 L928.6036,113.5958 L922.6306,113.5958 L922.6306,109.7968 L941.3706,109.7968 C941.4116,109.7968 940.2526,113.5958 940.2526,113.5958" fill="#FFFFFF" />
          <polygon id="Fill-77" fill="#FFFFFF" points="944.852 129 950.829 129 950.829 109.798 944.852 109.798" />
          <path id="Fill-78" d="M965.8268,112.9503 C962.4338,112.9503 961.0548,115.2773 961.0548,119.6503 C961.0548,124.4843 962.6048,125.9183 965.8268,125.9183 C968.8338,125.9183 970.4708,124.2693 970.4708,119.1823 C970.4708,115.2773 969.3928,112.9503 965.8268,112.9503 M966.1268,129.2873 C958.7798,129.2873 954.6478,125.2383 954.6478,119.5063 C954.6478,113.2003 958.9468,109.5463 965.9118,109.5463 C972.4438,109.5463 977.0438,112.7703 977.0438,119.1823 C977.0438,125.2023 973.3918,129.2873 966.1268,129.2873" fill="#FFFFFF" />
          <path id="Fill-79" d="M994.7535,116.8185 L994.6685,109.7625 L999.9995,109.7625 L999.9995,129.0005 L994.1065,128.9645 L989.8105,121.1185 C988.8245,119.3265 987.9215,117.6075 987.2745,116.2105 C987.3615,117.7155 987.4025,120.3675 987.4475,121.6565 L987.5735,129.0005 L982.1595,129.0005 L982.1595,109.7625 L988.4395,109.7625 L992.9055,117.1775 C993.8945,118.8255 994.3645,120.0085 995.0595,121.6215 C994.8865,119.8645 994.7535,118.1805 994.7535,116.8185" fill="#FFFFFF" />
        </g>
      </g>
    </svg>