<svg viewBox="0 0 1000 364" xmlns="http://www.w3.org/2000/svg" role="img"  xmlns:xlink= "http://www.w3.org/1999/xlink"><style>path{fill: #333;}</style><defs><polygon id="path-1" points="6.12668406e-15 200.206912 6.12668406e-15 0.959152542 172.568305 0.959152542 172.568305 200.206912"></polygon><polygon id="path-3" points="577.189831 252.027966 577.189831 0.492372881 1.06864407 0.492372881 1.06864407 252.027966"></polygon></defs><g id="Page-1" fill="none" stroke="none" stroke-width="1"><g transform="translate(0.000000, -1.000000)"><polygon id="Fill-1" fill="#FEFEFE" points="172.470847 182.866271 181.099661 174.237458 189.731864 182.866271 181.101356 191.495085"></polygon><g id="Group-15" transform="translate(0.000000, 1.435593)"><g id="Group-4" fill="#FEFEFE" transform="translate(81.355932, 0.000000)"><path id="Fill-2" d="M24.8816949,60.5967797 L118.541017,154.256102 L99.8528814,172.945932 L6.19355932,79.2849153 C0.171525424,73.2645763 -0.525084746,64.2001695 4.6359322,59.0391525 C9.79694915,53.8781356 18.859661,54.5764407 24.8816949,60.5967797 M36.3698305,17.4544068 L145.795254,126.879831 L127.107119,145.569661 L17.68,36.1425424 C11.659661,30.1222034 10.9630508,21.0577966 16.1240678,15.8967797 C21.2833898,10.7357627 30.3477966,11.4323729 36.3698305,17.4544068 M134.512203,6.33576271 L200.425763,72.249322 L181.737627,90.9374576 L115.824068,25.0238983 C109.802034,19.0035593 109.105424,9.93915254 114.266441,4.77813559 C119.427458,-0.382881356 128.491864,0.315423729 134.512203,6.33576271 M78.9155932,5.27305085 L173.202034,99.5594915 L154.512203,118.249322 L60.2274576,23.9628814 C54.2054237,17.9408475 53.5088136,8.87644068 58.6698305,3.71542373 C63.8291525,-1.44389831 72.8935593,-0.747288136 78.9155932,5.27305085"></path></g><g id="Group-7" transform="translate(0.000000, 79.661017)"><mask id="mask-2" fill="white"><polygon points="6.12668406e-15 200.206912 6.12668406e-15 0.959152542 172.568305 0.959152542 172.568305 200.206912"></polygon></mask><g id="Clip-6"></g><path id="Fill-5" d="M60.2208475,176.504915 L153.880169,82.8438983 L172.568305,101.533729 L78.9089831,195.191356 C72.8886441,201.215085 63.8225424,201.91 58.6632203,196.748983 C53.5022034,191.589661 54.1988136,182.525254 60.2208475,176.504915 M17.0767797,165.01678 L126.503898,55.5913559 L145.192034,74.2794915 L35.7666102,183.70661 C29.7462712,189.726949 20.6801695,190.423559 15.5191525,185.262542 C10.3598305,180.101525 11.0564407,171.037119 17.0767797,165.01678 M5.95813559,66.8727119 L71.8733898,0.959152542 L90.5615254,19.6489831 L24.6479661,85.5625424 C18.6259322,91.5828814 9.56322034,92.2811864 4.40220339,87.1201695 C-0.758813559,81.9591525 -0.0605084746,72.8947458 5.95813559,66.8727119 M5.0140678,122.779492 L99.3022034,28.4930508 L117.988644,47.1828814 L23.7038983,141.469322 C17.6818644,147.489661 8.61745763,148.186271 3.45644068,143.026949 C-1.70457627,137.865932 -1.00627119,128.799831 5.0140678,122.779492" fill="#FEFEFE"></path></g><path id="Fill-8" d="M256.240169,302.373898 L162.580847,208.714576 L181.268983,190.024746 L274.928305,283.685763 C280.950339,289.706102 281.646949,298.770508 276.485932,303.931525 C271.324915,309.092542 262.262203,308.395932 256.240169,302.373898 M244.753729,345.517966 L135.32661,236.090847 L154.014746,217.402712 L263.441864,326.828136 C269.462203,332.848475 270.158814,341.914576 264.997797,347.073898 C259.838475,352.234915 250.774068,351.538305 244.753729,345.517966 M146.609661,356.634915 L80.6961017,290.721356 L99.3859322,272.03322 L165.297797,337.94678 C171.319831,343.967119 172.016441,353.031525 166.855424,358.194237 C161.694407,363.355254 152.63,362.655254 146.609661,356.634915 M202.182542,357.699322 L107.896102,263.412881 L126.584237,244.723051 L220.870678,339.009492 C226.892712,345.029831 227.589322,354.095932 222.428305,359.255254 C217.267288,364.414576 208.202881,363.717966 202.182542,357.699322" fill="#FEFEFE"></path><path id="Fill-10" d="M302.232881,106.508475 L208.573559,200.167797 L189.883729,181.479661 L283.544746,87.820339 C289.565085,81.7983051 298.629492,81.1016949 303.790508,86.2627119 C308.951525,91.4237288 308.25322,100.486441 302.232881,106.508475 M345.376949,117.994915 L235.949831,227.422034 L217.261695,208.733898 L326.687119,99.3067797 C332.707458,93.2864407 341.773559,92.5898305 346.934576,97.7491525 C352.093898,102.910169 351.397288,111.974576 345.376949,117.994915 M356.493898,216.138983 L290.580339,282.052542 L271.892203,263.364407 L337.805763,197.450847 C343.826102,191.428814 352.890508,190.732203 358.051525,195.89322 C363.212542,201.054237 362.514237,210.118644 356.493898,216.138983 M357.437966,160.530508 L263.151525,254.816949 L244.46339,236.127119 L338.749831,141.840678 C344.770169,135.820339 353.834576,135.122034 358.995593,140.283051 C364.15661,145.444068 363.46,154.508475 357.437966,160.530508" fill="#FEFEFE"></path><g id="Group-14" transform="translate(422.033898, 57.627119)"><mask id="mask-4" fill="white"><polygon points="577.189831 252.027966 577.189831 0.492372881 1.06864407 0.492372881 1.06864407 252.027966"></polygon></mask><g id="Clip-13"></g><path id="Fill-12" d="M182.061864,53.1533898 C182.061864,63.2161017 190.324576,71.8381356 200.383898,71.8381356 C210.44322,71.8381356 218.34661,63.2161017 218.34661,53.1533898 C218.34661,43.0923729 210.44322,34.4686441 200.383898,34.4686441 C189.965254,34.4686441 182.061864,43.0923729 182.061864,53.1533898 L182.061864,53.1533898 Z M1.06864407,243.644915 L9.81610169,243.644915 C12.7313559,229.061864 16.3771186,223.594068 18.5635593,220.312712 C24.3957627,226.873729 45.1686441,250.570339 84.8957627,250.570339 C131.182203,250.570339 160.702542,221.770339 160.702542,180.94322 C160.702542,135.009322 131.182203,121.15678 84.1652542,100.377119 C56.1025424,87.9838983 26.2177966,74.8601695 26.2177966,46.0601695 C26.2177966,30.0211864 37.15,9.24152542 67.7652542,9.24152542 C96.1940678,9.24152542 121.707627,28.1974576 131.911017,67.9330508 L139.565254,67.9330508 L139.565254,4.86694915 L131.911017,4.86694915 C131.182203,9.24152542 130.45339,16.1686441 122.434746,26.0110169 C113.687288,16.5330508 98.3805085,0.492372881 66.6720339,0.492372881 C26.5822034,0.492372881 2.89237288,28.9279661 2.89237288,60.2788136 C2.89237288,106.211017 42.6177966,123.344915 69.5889831,135.009322 C71.7754237,135.739831 83.8008475,140.841525 85.9872881,141.936441 C110.409322,152.507627 135.190678,166.360169 135.190678,194.794068 C135.190678,217.031356 117.333051,241.819492 81.6144068,241.819492 C25.1228814,241.819492 13.0974576,182.765254 9.81610169,165.995763 L1.06864407,165.995763 L1.06864407,243.644915 Z M219.24322,94.5449153 C213.412712,94.5449153 204.665254,97.8262712 199.197458,98.9194915 C185.348305,101.472034 175.507627,103.294068 166.031356,104.022881 L166.031356,112.04322 C191.544915,112.04322 193.733051,112.04322 193.733051,152.14322 L193.733051,196.25339 C193.733051,234.166949 193.733051,238.175424 172.227966,238.175424 L166.031356,238.175424 L166.031356,246.195763 L244.75678,246.195763 L244.75678,238.175424 C219.24322,238.175424 219.24322,236.717797 219.24322,196.25339 L219.24322,94.5449153 Z M371.04322,116.05339 C359.014407,105.117797 339.699153,94.5449153 318.195763,94.5449153 C280.290678,94.5449153 247.124576,125.531356 247.124576,174.016102 C247.124576,222.500847 282.841525,252.027966 316.372034,252.027966 C345.529661,252.027966 364.482203,233.436441 372.499153,225.780508 C372.499153,234.166949 372.499153,243.278814 374.687288,252.027966 C381.611017,250.570339 402.385593,248.017797 420.609322,247.288983 L420.609322,239.268644 C396.555085,239.268644 396.555085,237.082203 396.555085,197.34661 L396.555085,1.22118644 C393.639831,1.22118644 392.54661,1.58728814 383.070339,3.77372881 C377.236441,5.23305085 360.473729,8.51271186 345.529661,8.87711864 L345.529661,16.8974576 C371.04322,16.8974576 371.04322,18.3550847 371.04322,58.8194915 L371.04322,116.05339 Z M371.04322,215.938136 C351.361864,241.45678 328.765254,241.45678 324.392373,241.45678 C307.261864,241.45678 276.648305,230.519492 276.648305,172.55678 C276.648305,161.621186 277.012712,105.482203 323.297458,105.482203 C346.258475,105.482203 363.024576,119.699153 371.04322,126.260169 L371.04322,215.938136 Z M570.629661,219.583898 C568.077119,234.529661 560.060169,236.717797 555.685593,236.717797 C544.387288,236.717797 544.387288,225.780508 544.387288,204.638136 L544.387288,145.580508 C544.387288,127.719492 544.387288,94.5449153 488.988983,94.5449153 C444.161864,94.5449153 429.582203,118.239831 429.582203,128.082203 C429.582203,134.644915 435.05,138.290678 440.516102,138.290678 C452.544915,138.290678 454.365254,125.895763 455.824576,118.239831 C458.373729,105.482203 472.95339,102.565254 485.709322,102.565254 C515.595763,102.565254 518.877119,120.063559 518.877119,141.572034 L518.877119,148.861864 L491.177119,160.163559 C440.880508,180.578814 424.116102,198.075424 424.116102,218.855085 C424.116102,239.997458 443.795763,249.839831 460.197458,249.839831 C480.24322,249.839831 501.017797,237.082203 518.877119,224.322881 C520.697458,233.072034 523.614407,249.839831 547.304237,249.839831 C567.348305,249.839831 576.460169,235.988983 577.190678,219.583898 L570.629661,219.583898 Z M518.877119,214.844915 C512.678814,219.948305 491.177119,237.082203 474.775424,237.082203 C460.561864,237.082203 453.636441,224.687288 453.636441,211.929661 C453.636441,187.504237 480.607627,172.922881 499.558475,165.266949 L518.877119,157.24661 L518.877119,214.844915 Z" fill="#FEFEFE"></path></g></g></g></g></svg>