<svg viewBox="0 0 1000 239">
      <defs>
        <polygon id="path-1" points="0.1585 35 20.1355 35 20.1355 0.5462 0.1585 0.5462" />
      </defs>
      <g id="Page-1" fill="none" stroke="none" strokeWidth="1">
        <g transform="translate(0.000000, -1.000000)">
          <polygon id="Fill-1" fill="#FFFFFF" points="226.2799 27.7739 206.2839 27.7739 206.3879 16.4349 259.2619 16.4349 259.1589 27.7739 239.4729 27.7739 238.9569 87.7609 225.7639 87.7609" />
          <g id="Group-125" transform="translate(0.000000, 0.280000)">
            <path id="Fill-2" d="M293.8941,48.2111 C297.7401,48.2111 300.6611,47.1661 302.6531,45.0651 C304.6461,42.9741 305.6421,40.3451 305.6421,37.1811 C305.6421,33.8831 304.5241,31.3431 302.2941,29.5571 C300.0601,27.7711 297.1561,26.8741 293.5841,26.8741 L285.9561,26.8741 L285.7491,48.2111 L293.8941,48.2111 Z M272.6601,16.1581 L295.2361,16.1581 C303.4121,16.1581 309.4921,18.0651 313.4771,21.8751 C317.4621,25.6891 319.4541,30.6571 319.4541,36.7681 C319.4541,41.2381 318.2331,45.0521 315.7971,48.2111 C313.3561,51.3701 309.9721,53.7441 305.6421,55.3231 L325.9471,81.8121 L314.1991,88.7941 L294.4101,61.3951 C293.2391,59.7531 291.6601,58.9311 289.6671,58.9311 L285.5431,58.9311 L285.4401,87.4801 L271.9371,87.4801 L272.6601,16.1581 Z" fill="#FFFFFF" />
            <path id="Fill-4" d="M364.8873,29.8981 L355.6973,57.7961 L373.1533,57.7961 L364.8873,29.8981 Z M343.8823,88.7941 L331.6143,85.2131 L359.0313,16.1581 L371.1963,16.1581 L396.6533,85.0921 L383.7703,88.7941 L376.7613,68.5161 L351.9193,68.5161 L343.8823,88.7941 Z" fill="#FFFFFF" />
            <polygon id="Fill-6" fill="#FFFFFF" points="409.6422 18.4001 421.9062 14.6891 455.1982 69.3401 454.5832 15.8471 467.7752 15.8471 467.1562 85.1131 453.7972 88.8331 421.3722 34.6171 421.1882 34.9041 422.2162 87.4831 409.0232 87.4831" />
            <path id="Fill-8" d="M487.357,73.3605 C489.35,74.7065 491.463,75.8325 493.698,76.7395 C495.928,77.6505 498.005,78.1035 499.931,78.1035 C503.503,78.1035 506.303,77.1255 508.331,75.1685 C510.359,73.2125 511.373,70.7625 511.373,67.8095 C511.373,64.1075 507.918,60.5755 501.012,57.2105 C494.106,53.8495 489.229,51.1075 486.379,48.9805 C483.525,46.8535 482.103,42.3255 482.103,35.3975 C482.103,29.4295 484.297,24.4885 488.699,20.5805 C493.092,16.6675 498.831,14.7155 505.907,14.7155 C509.277,14.7155 512.644,15.2275 516.009,16.2585 C519.379,17.2915 522.708,18.7675 526.007,20.6925 L520.442,30.5875 C517.144,28.6445 514.672,27.3025 513.021,26.5525 C511.373,25.8085 509.345,25.4315 506.94,25.4315 C503.709,25.4315 500.962,26.2745 498.696,27.9535 C496.426,29.6355 495.295,31.9825 495.295,35.0025 C495.295,38.7095 498.917,42.4155 506.168,46.1175 C513.415,49.8195 518.396,52.6695 521.11,54.6575 C523.825,56.6455 525.186,60.8675 525.186,67.3165 C525.186,73.4905 522.96,78.6145 518.522,82.6985 C514.074,86.7815 508.412,88.8195 501.524,88.8195 C494.774,88.8195 488.299,87.0025 482.103,83.3585 L487.357,73.3605 Z" fill="#FFFFFF" />
            <path id="Fill-10" d="M560.8458,48.8293 C564.4858,48.8293 567.4958,47.8153 569.8658,45.7873 C572.2358,43.7633 573.4198,41.0983 573.4198,37.7993 C573.4198,35.0533 572.4908,32.5453 570.6378,30.2793 C568.7838,28.0083 565.6928,26.8773 561.3628,26.8773 L554.3528,26.8773 L554.1468,48.8293 L560.8458,48.8293 Z M541.0568,16.1573 L561.1558,16.1573 C570.1578,16.1573 576.7538,18.0463 580.9448,21.8253 C585.1358,25.6033 587.2318,30.9653 587.2318,37.9033 C587.2318,44.8453 584.7588,50.1893 579.8098,53.9323 C574.8648,57.6783 568.6808,59.5493 561.2588,59.5493 L553.9408,59.5493 L553.8368,87.4783 L540.3338,87.4783 L541.0568,16.1573 Z" fill="#FFFFFF" />
            <path id="Fill-12" d="M627.6154,29.8981 L618.4254,57.7961 L635.8814,57.7961 L627.6154,29.8981 Z M606.6094,88.7941 L594.3414,85.2131 L621.7594,16.1581 L633.9244,16.1581 L659.3814,85.0921 L646.4974,88.7941 L639.4884,68.5161 L614.6464,68.5161 L606.6094,88.7941 Z" fill="#FFFFFF" />
            <path id="Fill-14" d="M693.7052,48.2111 C697.5512,48.2111 700.4722,47.1661 702.4642,45.0651 C704.4562,42.9741 705.4532,40.3451 705.4532,37.1811 C705.4532,33.8831 704.3352,31.3431 702.1052,29.5571 C699.8702,27.7711 696.9672,26.8741 693.3952,26.8741 L685.7672,26.8741 L685.5602,48.2111 L693.7052,48.2111 Z M672.4712,16.1581 L695.0472,16.1581 C703.2232,16.1581 709.3032,18.0651 713.2872,21.8751 C717.2722,25.6891 719.2652,30.6571 719.2652,36.7681 C719.2652,41.2381 718.0442,45.0521 715.6072,48.2111 C713.1662,51.3701 709.7832,53.7441 705.4532,55.3231 L725.7582,81.8121 L714.0102,88.7941 L694.2212,61.3951 C693.0502,59.7531 691.4702,58.9311 689.4772,58.9311 L685.3532,58.9311 L685.2512,87.4801 L671.7482,87.4801 L672.4712,16.1581 Z" fill="#FFFFFF" />
            <polygon id="Fill-16" fill="#FFFFFF" points="738.1271 16.1564 776.2651 16.1564 776.2651 27.4954 751.3191 27.4954 750.9071 45.8404 775.8531 45.8404 775.8531 56.5604 751.0101 56.5604 750.9071 76.1424 776.2651 76.1424 776.2651 87.4824 737.4041 87.4824" />
            <polygon id="Fill-18" fill="#FFFFFF" points="792.2394 18.4001 804.5034 14.6891 837.7954 69.3401 837.1794 15.8471 850.3734 15.8471 849.7544 85.1131 836.3944 88.8331 803.9694 34.6171 803.7854 34.9041 804.8124 87.4831 791.6204 87.4831" />
            <path id="Fill-20" d="M927.9825,81.9157 C924.7525,84.1817 921.1795,85.8997 917.2625,87.0667 C913.3445,88.2377 909.3605,88.8217 905.3075,88.8217 C894.6555,88.8217 885.8285,85.3567 878.8195,78.4247 C871.8105,71.4957 868.3055,62.6787 868.3055,51.9717 C868.3055,40.9957 871.7075,32.0387 878.5095,25.1107 C885.3125,18.1777 894.0725,14.7127 904.7925,14.7127 C913.7945,14.7127 921.5565,17.4637 928.0865,22.9607 L922.3155,32.8557 C920.1835,30.8587 917.5365,29.2257 914.3775,27.9557 C911.2175,26.6857 908.1575,26.0527 905.2055,26.0527 C898.3305,26.0527 892.7655,28.4537 888.5075,33.2497 C884.2445,38.0517 882.1175,44.0867 882.1175,51.3567 C882.1175,58.3527 884.2625,64.4557 888.5565,69.6657 C892.8515,74.8797 898.2625,77.4817 904.7925,77.4817 C908.9165,77.4817 912.2275,77.1137 914.7365,76.3737 C917.2445,75.6377 919.9105,74.4937 922.7275,72.9497 L927.9825,81.9157 Z" fill="#FFFFFF" />
            <polygon id="Fill-22" fill="#FFFFFF" points="956.5343 57.8884 932.9303 21.4924 944.9883 14.6894 963.6463 44.8124 983.0223 14.6894 994.6723 21.3884 970.3463 57.4754 969.9333 87.4824 956.1213 87.4824" />
            <polygon id="Fill-24" fill="#FFFFFF" points="224.2188 105.8493 237.4118 105.8493 236.7928 177.1753 223.5998 177.1753" />
            <polygon id="Fill-26" fill="#FFFFFF" points="253.2848 108.0925 265.5488 104.3815 298.8408 159.0325 298.2208 105.5395 311.4178 105.5395 310.7988 174.8055 297.4398 178.5255 265.0148 124.3095 264.8308 124.5965 265.8588 177.1745 252.6658 177.1745" />
            <polygon id="Fill-28" fill="#FFFFFF" points="341.4098 117.1867 321.4138 117.1867 321.5168 105.8477 374.3918 105.8477 374.2878 117.1867 354.6028 117.1867 354.0868 177.1737 340.8938 177.1737" />
            <polygon id="Fill-30" fill="#FFFFFF" points="385.1119 105.8493 423.2499 105.8493 423.2499 117.1883 398.3049 117.1883 397.8919 135.5333 422.8369 135.5333 422.8369 146.2523 397.9949 146.2523 397.8919 165.8353 423.2499 165.8353 423.2499 177.1753 384.3889 177.1753" />
            <path id="Fill-32" d="M457.88,137.904 C461.726,137.904 464.647,136.858 466.639,134.758 C468.631,132.668 469.628,130.038 469.628,126.874 C469.628,123.576 468.51,121.036 466.28,119.25 C464.046,117.464 461.142,116.567 457.57,116.567 L449.942,116.567 L449.735,137.904 L457.88,137.904 Z M436.646,105.851 L459.222,105.851 C467.398,105.851 473.478,107.758 477.463,111.568 C481.447,115.382 483.44,120.349 483.44,126.462 C483.44,130.93 482.219,134.745 479.782,137.904 C477.341,141.063 473.958,143.437 469.628,145.016 L489.933,171.506 L478.185,178.487 L458.396,151.088 C457.225,149.445 455.645,148.624 453.653,148.624 L449.529,148.624 L449.426,177.173 L435.923,177.173 L436.646,105.851 Z" fill="#FFFFFF" />
            <polygon id="Fill-34" fill="#FFFFFF" points="499.5191 108.0925 511.7831 104.3815 545.0741 159.0325 544.4601 105.5395 557.6521 105.5395 557.0331 174.8055 543.6751 178.5255 511.2541 124.3095 511.0651 124.5965 512.0931 177.1745 498.9001 177.1745" />
            <path id="Fill-36" d="M600.6105,119.5915 L591.4205,147.4885 L608.8765,147.4885 L600.6105,119.5915 Z M579.6045,178.4875 L567.3375,174.9065 L594.7545,105.8465 L606.9195,105.8465 L632.3765,174.7855 L619.4935,178.4875 L612.4835,158.2095 L587.6415,158.2095 L579.6045,178.4875 Z" fill="#FFFFFF" />
            <polygon id="Fill-38" fill="#FFFFFF" points="656.3937 117.1867 636.3977 117.1867 636.5007 105.8477 689.3747 105.8477 689.2717 117.1867 669.5857 117.1867 669.0697 177.1737 655.8767 177.1737" />
            <polygon id="Fill-40" fill="#FFFFFF" points="699.5802 105.8493 712.7722 105.8493 712.1532 177.1753 698.9602 177.1753" />
            <path id="Fill-42" d="M763.0704,167.7946 C770.2864,167.7946 776.1604,165.2406 780.6964,160.1306 C785.2284,155.0236 787.4994,148.7996 787.4994,141.4586 C787.4994,133.8486 785.2474,127.5566 780.7464,122.5846 C776.2454,117.6126 770.3534,115.1266 763.0704,115.1266 C756.6804,115.1266 751.0124,117.5276 746.0634,122.3246 C741.1144,127.1256 738.6414,133.5026 738.6414,141.4586 C738.6414,149.2796 740.8764,155.6206 745.3414,160.4886 C749.8104,165.3616 755.7164,167.7946 763.0704,167.7946 M763.0704,104.4066 C774.4104,104.4066 783.6134,107.9426 790.6944,115.0096 C797.7704,122.0776 801.3114,130.8956 801.3114,141.4586 C801.3114,151.9586 797.6494,160.7586 790.3314,167.8616 C783.0164,174.9606 773.9244,178.5146 763.0704,178.5146 C752.1434,178.5146 743.0394,175.0326 735.7564,168.0676 C728.4724,161.1046 724.8344,152.2316 724.8344,141.4586 C724.8344,131.0976 728.5224,122.3336 735.9134,115.1626 C743.2994,107.9916 752.3504,104.4066 763.0704,104.4066" fill="#FFFFFF" />
            <polygon id="Fill-44" fill="#FFFFFF" points="814.3995 108.0925 826.6635 104.3815 859.9555 159.0325 859.3395 105.5395 872.5335 105.5395 871.9145 174.8055 858.5545 178.5255 826.1335 124.3095 825.9455 124.5965 826.9725 177.1745 813.7805 177.1745" />
            <path id="Fill-46" d="M915.4913,119.5915 L906.3013,147.4885 L923.7573,147.4885 L915.4913,119.5915 Z M894.4853,178.4875 L882.2173,174.9065 L909.6353,105.8465 L921.8003,105.8465 L947.2573,174.7855 L934.3733,178.4875 L927.3643,158.2095 L902.5223,158.2095 L894.4853,178.4875 Z" fill="#FFFFFF" />
            <polygon id="Fill-48" fill="#FFFFFF" points="958.2872 105.8493 971.4792 105.8493 970.8602 165.8353 998.7942 165.8353 998.7942 177.1753 957.6682 177.1753" />
            <path id="Fill-50" d="M103.7399,54.7038 C103.7399,46.0978 96.7619,39.1198 88.1509,39.1198 C79.5439,39.1198 72.5669,46.0978 72.5669,54.7038 C72.5669,63.3148 79.5439,70.2928 88.1509,70.2928 C96.7619,70.2928 103.7399,63.3148 103.7399,54.7038" fill="#FFFFFF" />
            <path id="Fill-52" d="M110.7921,175.9597 C102.6161,169.9057 98.6041,146.4287 98.6041,129.5737 C98.6041,127.0117 98.7441,124.4807 98.9811,121.9807 L98.8201,121.9807 C86.7631,121.9807 75.1851,120.7787 64.3661,118.5937 C63.1861,136.0267 69.3111,159.9217 74.7281,174.3847 C73.6501,174.1027 72.5511,173.8557 71.4881,173.5317 C63.7961,157.0097 59.0131,136.3007 58.3401,113.6937 C69.9131,116.7987 82.9481,118.3427 96.6971,117.8897 C141.4951,116.4127 177.3931,94.3887 179.0441,68.0757 C181.1091,75.4567 182.2351,83.2247 182.2351,91.2617 C182.2351,101.1377 180.5481,110.6147 177.4831,119.4507 C167.3461,148.6367 141.9251,170.6737 110.7921,175.9597 M29.9261,60.5227 C26.0441,56.8787 23.2491,52.8677 21.7411,48.6087 C31.3481,31.8627 46.4131,18.6427 64.5371,11.4227 C49.2301,23.6237 37.1421,40.6487 29.9261,60.5227 M10.3841,91.2617 C10.3841,86.1277 10.8821,81.1247 11.7391,76.2377 C13.2511,83.0847 17.0701,89.4347 22.7691,95.0077 C22.6031,97.6737 22.4901,100.3617 22.4901,103.0767 C22.4901,118.2437 25.1601,132.6967 29.9801,145.8857 C17.7341,131.0367 10.3841,112.0057 10.3841,91.2617 M144.6491,14.8467 C144.4601,14.7297 144.6711,14.8827 144.4831,14.7707 L142.0731,18.5527 C142.1491,18.6027 142.2261,18.6477 142.3021,18.6967 C148.3691,22.5427 153.9161,27.1377 158.8251,32.3427 C161.4501,35.1247 163.8771,38.0867 166.1211,41.2007 C166.1211,41.2587 166.1301,41.3127 166.1301,41.3757 C166.1301,62.8247 133.5121,80.2177 93.2831,80.2177 C81.7281,80.2177 70.8061,78.7777 61.1041,76.2247 C67.8171,40.2587 85.5201,12.8947 107.3371,6.0607 C114.6781,7.0027 121.7191,8.8877 128.3601,11.5577 C128.3601,11.5577 130.5271,7.8417 130.3161,7.6127 C130.0971,7.3837 124.6261,5.4547 121.6881,4.5927 C113.1791,2.0847 104.1871,0.7207 94.8671,0.7207 C89.2391,0.7207 83.7291,1.2407 78.3671,2.1787 C33.8431,9.9917 0.0001,48.8197 0.0001,95.5827 C0.0001,130.8487 19.2591,161.5957 47.8131,177.9477 C57.7741,183.6467 68.8541,187.6127 80.6601,189.3907 C85.2951,190.0817 90.0381,190.4487 94.8671,190.4487 C127.2431,190.4487 155.8181,174.2187 172.9371,149.4617 C183.5191,134.1597 189.7291,115.6007 189.7291,95.5827 C189.7291,61.4567 171.6941,31.5577 144.6491,14.8467" fill="#FFFFFF" />
            <path id="Fill-54" d="M225.3468,205.1794 L225.4368,196.8824 L229.0438,196.8824 L228.9548,205.1794 L235.0888,205.1794 L235.0888,207.8854 L228.9098,207.8854 L228.8198,217.0624 L228.8198,222.3664 C228.8198,224.2864 229.5018,225.2464 230.8748,225.2464 C231.4138,225.2464 232.0108,225.1164 232.6658,224.8524 C233.3208,224.5914 233.9178,224.3044 234.4558,223.9814 L235.6268,226.2834 C234.7568,226.8534 233.8458,227.3204 232.8938,227.6834 C231.9388,228.0424 230.9878,228.2224 230.0358,228.2224 C228.3978,228.2224 227.1908,227.7284 226.4188,226.7374 C225.6428,225.7494 225.2568,224.3354 225.2568,222.5094 L225.2568,216.0754 L225.3018,207.8854 L221.4698,207.8854 L221.4698,205.1794 L225.3468,205.1794 Z" fill="#FFFFFF" />
            <path id="Fill-56" d="M240.4522,193.8161 L244.1952,193.8161 L244.0602,208.6961 C244.9842,207.4031 246.1292,206.3891 247.4972,205.6531 C248.8702,204.9181 250.2392,204.5491 251.6082,204.5491 C254.0532,204.5491 255.7942,205.1291 256.8352,206.2861 C257.8762,207.4441 258.4022,209.1301 258.4022,211.3571 L258.4022,216.4991 L258.3522,227.6361 L254.7492,227.6361 L254.8832,217.5361 L254.8832,211.3571 C254.8832,210.1851 254.5202,209.2961 253.7982,208.6961 C253.0792,208.0941 252.0702,207.7941 250.7782,207.7941 C249.5752,207.7941 248.4572,208.1171 247.4212,208.7631 C246.3802,209.4091 245.2632,210.4721 244.0602,211.9441 L243.8802,227.6361 L240.2732,227.6361 L240.4522,193.8161 Z" fill="#FFFFFF" />
            <path id="Fill-58" d="M280.4049,213.4763 C280.4049,211.7043 279.9969,210.2233 279.1889,209.0343 C278.3769,207.8493 277.1119,207.2523 275.3969,207.2523 C273.8039,207.2523 272.4669,207.8723 271.3849,209.1013 C270.3039,210.3353 269.5989,211.7933 269.2669,213.4763 L280.4049,213.4763 Z M268.9529,215.9133 L268.9529,216.6753 C268.9529,219.2203 269.4689,221.3303 270.5059,223.0023 C271.5429,224.6763 273.1439,225.5163 275.3069,225.5163 C276.4829,225.5163 277.5419,225.2513 278.4889,224.7173 C279.4359,224.1833 280.5079,223.3793 281.7109,222.3163 L283.4699,224.2373 C282.2089,225.4943 280.8719,226.4673 279.4579,227.1713 C278.0449,227.8723 276.5279,228.2223 274.9039,228.2223 C271.8069,228.2223 269.3929,227.1803 267.6649,225.0943 C265.9379,223.0073 265.0719,220.1043 265.0719,216.3843 C265.0719,213.1753 266.0409,210.3983 267.9799,208.0603 C269.9229,205.7173 272.3769,204.5463 275.3569,204.5463 C278.2419,204.5463 280.4049,205.5163 281.8499,207.4553 C283.2899,209.3973 284.0129,211.9733 284.0129,215.1913 L284.0129,215.9133 L268.9529,215.9133 Z" fill="#FFFFFF" />
            <path id="Fill-60" d="M313.8189,206.9831 C312.5849,206.9831 311.5569,207.4721 310.7319,208.4461 C309.9019,209.4241 309.4889,210.7121 309.4889,212.3051 C309.4889,213.6871 309.8569,214.8591 310.5969,215.8231 C311.3329,216.7841 312.3609,217.2631 313.6839,217.2631 C315.2769,217.2631 316.4399,216.7971 317.1799,215.8681 C317.9159,214.9351 318.2839,213.7011 318.2839,212.1701 C318.2839,210.5151 317.9289,209.2361 317.2249,208.3341 C316.5159,207.4321 315.3809,206.9831 313.8189,206.9831 L313.8189,206.9831 Z M313.0519,236.1151 C314.8239,236.1151 316.5159,235.6791 318.1269,234.8181 C319.7329,233.9571 320.5369,232.7051 320.5369,231.0711 C320.5369,229.8691 319.9309,228.9711 318.7099,228.3751 C317.4939,227.7731 315.0529,227.1541 311.3819,226.5071 C309.4889,227.5041 308.1959,228.4011 307.5059,229.2051 C306.8139,230.0071 306.4689,230.9371 306.4689,231.9911 C306.4689,233.4541 307.1459,234.5041 308.4969,235.1501 C309.8519,235.7921 311.3689,236.1151 313.0519,236.1151 L313.0519,236.1151 Z M325.5889,208.0201 L320.2669,207.8851 C320.8369,208.5451 321.2499,209.2361 321.5059,209.9591 C321.7609,210.6811 321.8919,211.4301 321.8919,212.2151 C321.8919,214.3791 321.1379,216.1691 319.6339,217.5831 C318.1309,218.9921 316.2689,219.7011 314.0429,219.7011 C312.6609,219.7011 311.3559,219.4131 310.1209,218.8431 C309.0669,219.6241 308.3939,220.1801 308.0929,220.5121 C307.7929,220.8401 307.6399,221.1591 307.6399,221.4601 C307.6399,221.9081 308.0929,222.3161 308.9949,222.6751 C309.8969,223.0351 311.9029,223.4431 315.0129,223.8911 C318.1269,224.3441 320.4689,225.0181 322.0489,225.9241 C323.6279,226.8261 324.4179,228.2351 324.4179,230.1611 C324.4179,232.6871 323.2289,234.6701 320.8549,236.1151 C318.4769,237.5551 315.9369,238.2781 313.2309,238.2781 C310.5569,238.2781 308.1599,237.8111 306.0429,236.8781 C303.9199,235.9491 302.8609,234.3111 302.8609,231.9641 C302.8609,230.5831 303.3859,229.4561 304.4409,228.5811 C305.4899,227.7111 306.9799,226.7631 308.9049,225.7401 C306.9799,225.5341 305.5979,225.1701 304.7549,224.6591 C303.9159,224.1471 303.4939,223.5191 303.4939,222.7651 C303.4939,222.0741 303.8659,221.3961 304.6199,220.7371 C305.3689,220.0781 306.7379,219.1751 308.7209,218.0311 C307.7029,217.2191 306.9709,216.3391 306.5359,215.3921 C306.1009,214.4461 305.8809,213.2961 305.8809,211.9421 C305.8809,209.7791 306.6659,208.0061 308.2279,206.6251 C309.7889,205.2381 311.6829,204.5461 313.9089,204.5461 C314.6579,204.5461 315.3889,204.6231 316.0989,204.7751 C316.8029,204.9231 317.4719,205.1971 318.1039,205.5841 L325.5889,205.4491 L325.5889,208.0201 Z" fill="#FFFFFF" />
            <polygon id="Fill-62" fill="#FFFFFF" points="330.8189 193.8161 334.4259 193.8161 334.1569 227.6361 330.5489 227.6361" />
            <path id="Fill-64" d="M351.2018,225.5163 C353.0958,225.5163 354.7428,224.7313 356.1378,223.1563 C357.5378,221.5803 358.2378,219.3243 358.2378,216.3843 C358.2378,213.4183 357.6098,211.1523 356.3668,209.5903 C355.1148,208.0343 353.5168,207.2523 351.5608,207.2523 C349.6668,207.2523 348.0248,208.0423 346.6248,209.6183 C345.2248,211.1883 344.5288,213.4463 344.5288,216.3843 C344.5288,219.3553 345.1528,221.6173 346.3998,223.1783 C347.6478,224.7363 349.2448,225.5163 351.2018,225.5163 M351.6058,204.5473 C354.8858,204.5473 357.4518,205.5973 359.3188,207.6973 C361.1808,209.7973 362.1148,212.6963 362.1148,216.3843 C362.1148,219.5353 361.1278,222.2943 359.1618,224.6683 C357.1918,227.0373 354.5218,228.2223 351.1568,228.2223 C347.8808,228.2223 345.3098,227.1723 343.4428,225.0723 C341.5808,222.9723 340.6518,220.0733 340.6518,216.3843 C340.6518,213.2353 341.6348,210.4753 343.6048,208.1053 C345.5698,205.7323 348.2398,204.5473 351.6058,204.5473" fill="#FFFFFF" />
            <path id="Fill-66" d="M372.3053,221.6472 C373.8673,224.0482 375.7463,225.2472 377.9413,225.2472 C379.8343,225.2472 381.4283,224.3442 382.7203,222.5492 C384.0123,220.7462 384.6593,218.6952 384.6593,216.3832 C384.6593,213.5072 384.0933,211.3082 382.9533,209.7962 C381.8133,208.2802 380.4053,207.5262 378.7313,207.5262 C377.4113,207.5262 376.1913,207.9392 375.0693,208.7592 C373.9473,209.5852 373.0683,210.5542 372.4393,211.6632 L372.3053,221.6472 Z M368.9213,193.8172 L372.5293,193.8172 L372.4393,208.1992 C373.1303,207.1492 374.0913,206.2782 375.3253,205.5872 C376.5593,204.8912 377.9543,204.5462 379.5203,204.5462 C381.8363,204.5462 383.9183,205.4932 385.7673,207.3822 C387.6163,209.2762 388.5403,212.2282 388.5403,216.2502 C388.5403,219.3732 387.5973,222.1452 385.7183,224.5782 C383.8423,227.0052 381.5043,228.2212 378.7083,228.2212 C377.2953,228.2212 376.0383,227.9572 374.9433,227.4222 C373.8443,226.8882 372.9643,226.1932 372.3053,225.3352 L372.0803,227.6332 L368.6523,227.6332 L368.9213,193.8172 Z" fill="#FFFFFF" />
            <path id="Fill-68" d="M406.711,215.8669 C400.308,216.6789 397.104,218.6169 397.104,221.6819 C397.104,222.9159 397.467,223.8629 398.19,224.5269 C398.908,225.1859 399.886,225.5179 401.12,225.5179 C402.143,225.5179 403.072,225.2219 403.916,224.6349 C404.754,224.0519 405.598,223.2479 406.442,222.2249 L406.711,215.8669 Z M414.286,226.5999 C413.626,227.1119 412.958,227.5069 412.28,227.7939 C411.602,228.0809 410.876,228.2239 410.095,228.2239 C409.121,228.2239 408.336,227.8659 407.739,227.1519 C407.147,226.4379 406.801,225.5629 406.711,224.5269 C405.782,225.6529 404.773,226.5509 403.678,227.2199 C402.583,227.8879 401.349,228.2239 399.971,228.2239 C397.992,228.2239 396.417,227.6239 395.251,226.4259 C394.084,225.2269 393.501,223.6659 393.501,221.7499 C393.501,218.9039 394.874,216.8579 397.624,215.6109 C400.375,214.3679 403.373,213.7489 406.621,213.7489 L406.711,210.9079 C406.711,209.8849 406.433,209.0629 405.877,208.4489 C405.32,207.8339 404.459,207.5239 403.283,207.5239 C402.349,207.5239 401.465,207.7219 400.622,208.1119 C399.783,208.5029 398.504,209.3419 396.79,210.6349 L395.304,208.2919 C397.736,206.6989 399.486,205.6759 400.555,205.2219 C401.623,204.7739 402.937,204.5499 404.503,204.5499 C406.334,204.5499 407.734,205.0429 408.694,206.0349 C409.655,207.0219 410.139,208.4179 410.139,210.2169 L409.776,222.3189 C409.776,223.3109 409.883,224.0919 410.095,224.6619 C410.301,225.2309 410.741,225.5179 411.4,225.5179 C411.732,225.5179 412.038,225.4519 412.325,225.3259 C412.612,225.1999 412.935,225.0199 413.294,224.7969 L414.286,226.5999 Z" fill="#FFFFFF" />
            <polygon id="Fill-70" fill="#FFFFFF" points="418.9317 193.8161 422.5387 193.8161 422.2697 227.6361 418.6617 227.6361" />
            <path id="Fill-72" d="M458.1632,210.2292 C456.7492,208.4252 455.1252,207.5232 453.2942,207.5232 C451.4582,207.5232 449.8742,208.3632 448.5332,210.0412 C447.1962,211.7232 446.5272,214.0612 446.5272,217.0592 C446.5272,219.5182 447.1912,221.4972 448.5112,222.9962 C449.8342,224.4952 451.4132,225.2442 453.2492,225.2442 C454.1782,225.2442 455.1112,224.9702 456.0452,224.4222 C456.9742,223.8752 457.7412,223.2032 458.3422,222.4042 L460.1912,224.5082 C458.0862,226.9852 455.5602,228.2232 452.6162,228.2232 C449.7312,228.2232 447.3492,227.1562 445.4682,225.0292 C443.5882,222.8972 442.6502,220.0162 442.6502,216.3862 C442.6502,213.2052 443.6512,210.4362 445.6482,208.0802 C447.6492,205.7242 450.1482,204.5482 453.1552,204.5482 C454.6312,204.5482 455.9912,204.8752 457.2382,205.5312 C458.4862,206.1912 459.5762,207.1282 460.5102,208.3542 L458.1632,210.2292 Z" fill="#FFFFFF" />
            <path id="Fill-74" d="M474.5763,225.5163 C476.4703,225.5163 478.1173,224.7313 479.5123,223.1563 C480.9123,221.5803 481.6123,219.3243 481.6123,216.3843 C481.6123,213.4183 480.9893,211.1523 479.7413,209.5903 C478.4893,208.0343 476.8913,207.2523 474.9353,207.2523 C473.0413,207.2523 471.3993,208.0423 469.9993,209.6183 C468.6033,211.1883 467.9033,213.4463 467.9033,216.3843 C467.9033,219.3553 468.5273,221.6173 469.7753,223.1783 C471.0223,224.7363 472.6243,225.5163 474.5763,225.5163 M474.9843,204.5473 C478.2603,204.5473 480.8273,205.5973 482.6943,207.6973 C484.5563,209.7973 485.4893,212.6963 485.4893,216.3843 C485.4893,219.5353 484.5073,222.2943 482.5363,224.6683 C480.5673,227.0373 477.8973,228.2223 474.5313,228.2223 C471.2553,228.2223 468.6843,227.1723 466.8223,225.0723 C464.9553,222.9723 464.0263,220.0733 464.0263,216.3843 C464.0263,213.2353 465.0093,210.4753 466.9793,208.1053 C468.9453,205.7323 471.6153,204.5473 474.9843,204.5473" fill="#FFFFFF" />
            <path id="Fill-76" d="M503.6622,215.8669 C497.2582,216.6789 494.0582,218.6169 494.0582,221.6819 C494.0582,222.9159 494.4182,223.8629 495.1402,224.5269 C495.8582,225.1859 496.8362,225.5179 498.0702,225.5179 C499.0942,225.5179 500.0222,225.2219 500.8662,224.6349 C501.7052,224.0519 502.5492,223.2479 503.3922,222.2249 L503.6622,215.8669 Z M511.2362,226.5999 C510.5772,227.1119 509.9082,227.5069 509.2302,227.7939 C508.5532,228.0809 507.8262,228.2239 507.0452,228.2239 C506.0712,228.2239 505.2862,227.8659 504.6892,227.1519 C504.0972,226.4379 503.7522,225.5629 503.6622,224.5269 C502.7322,225.6529 501.7242,226.5509 500.6282,227.2199 C499.5332,227.8879 498.2992,228.2239 496.9222,228.2239 C494.9432,228.2239 493.3682,227.6239 492.2012,226.4259 C491.0342,225.2269 490.4512,223.6659 490.4512,221.7499 C490.4512,218.9039 491.8242,216.8579 494.5752,215.6109 C497.3262,214.3679 500.3232,213.7489 503.5722,213.7489 L503.6622,210.9079 C503.6622,209.8849 503.3842,209.0629 502.8272,208.4489 C502.2702,207.8339 501.4092,207.5239 500.2332,207.5239 C499.3002,207.5239 498.4162,207.7219 497.5722,208.1119 C496.7332,208.5029 495.4542,209.3419 493.7402,210.6349 L492.2552,208.2919 C494.6872,206.6989 496.4372,205.6759 497.5052,205.2219 C498.5732,204.7739 499.8882,204.5499 501.4542,204.5499 C503.2852,204.5499 504.6842,205.0429 505.6452,206.0349 C506.6052,207.0219 507.0902,208.4179 507.0902,210.2169 L506.7262,222.3189 C506.7262,223.3109 506.8342,224.0919 507.0452,224.6619 C507.2522,225.2309 507.6912,225.5179 508.3502,225.5179 C508.6832,225.5179 508.9882,225.4519 509.2752,225.3259 C509.5622,225.1999 509.8862,225.0199 510.2442,224.7969 L511.2362,226.5999 Z" fill="#FFFFFF" />
            <polygon id="Fill-78" fill="#FFFFFF" points="515.882 193.8161 519.489 193.8161 519.221 227.6361 515.612 227.6361" />
            <path id="Fill-80" d="M527.1554,204.7282 L530.7624,204.7282 L530.5834,227.6362 L526.9754,227.6362 L527.1554,204.7282 Z M526.9754,200.4882 L530.8524,200.4882 L530.8524,196.4312 L526.9754,196.4312 L526.9754,200.4882 Z" fill="#FFFFFF" />
            <path id="Fill-82" d="M540.1417,205.1794 L540.2317,196.8824 L543.8397,196.8824 L543.7497,205.1794 L549.8837,205.1794 L549.8837,207.8854 L543.7047,207.8854 L543.6157,217.0624 L543.6157,222.3664 C543.6157,224.2864 544.3017,225.2464 545.6707,225.2464 C546.2087,225.2464 546.8057,225.1164 547.4607,224.8524 C548.1167,224.5914 548.7127,224.3044 549.2507,223.9814 L550.4227,226.2834 C549.5517,226.8534 548.6407,227.3204 547.6897,227.6834 C546.7347,228.0424 545.7827,228.2224 544.8307,228.2224 C543.1937,228.2224 541.9867,227.7284 541.2147,226.7374 C540.4387,225.7494 540.0517,224.3354 540.0517,222.5094 L540.0517,216.0754 L540.0967,207.8854 L536.2647,207.8854 L536.2647,205.1794 L540.1417,205.1794 Z" fill="#FFFFFF" />
            <path id="Fill-84" d="M554.8878,204.7282 L558.4948,204.7282 L558.3158,227.6362 L554.7078,227.6362 L554.8878,204.7282 Z M554.7078,200.4882 L558.5848,200.4882 L558.5848,196.4312 L554.7078,196.4312 L554.7078,200.4882 Z" fill="#FFFFFF" />
            <path id="Fill-86" d="M575.3595,225.5163 C577.2535,225.5163 578.9005,224.7313 580.2965,223.1563 C581.6955,221.5803 582.3955,219.3243 582.3955,216.3843 C582.3955,213.4183 581.7715,211.1523 580.5245,209.5903 C579.2725,208.0343 577.6745,207.2523 575.7185,207.2523 C573.8255,207.2523 572.1825,208.0423 570.7825,209.6183 C569.3825,211.1883 568.6865,213.4463 568.6865,216.3843 C568.6865,219.3553 569.3105,221.6173 570.5575,223.1783 C571.8055,224.7363 573.4075,225.5163 575.3595,225.5163 M575.7675,204.5473 C579.0445,204.5473 581.6105,205.5973 583.4775,207.6973 C585.3395,209.7973 586.2725,212.6963 586.2725,216.3843 C586.2725,219.5353 585.2855,222.2943 583.3205,224.6683 C581.3505,227.0373 578.6795,228.2223 575.3145,228.2223 C572.0395,228.2223 569.4675,227.1723 567.6055,225.0723 C565.7385,222.9723 564.8095,220.0733 564.8095,216.3843 C564.8095,213.2353 565.7925,210.4753 567.7625,208.1053 C569.7275,205.7323 572.3975,204.5473 575.7675,204.5473" fill="#FFFFFF" />
            <path id="Fill-88" d="M593.0363,204.7282 L596.6443,204.7282 L596.4653,208.7852 C597.4213,207.4972 598.6143,206.4642 600.0373,205.6982 C601.4593,204.9302 602.8323,204.5482 604.1513,204.5482 C606.6063,204.5482 608.3603,205.1272 609.4113,206.2862 C610.4563,207.4432 610.9813,209.1352 610.9813,211.3562 L610.9813,216.4992 L610.9363,227.6362 L607.3333,227.6362 L607.4683,217.5352 L607.4683,211.3562 C607.4683,210.1852 607.1043,209.2962 606.3773,208.6952 C605.6553,208.0932 604.6453,207.7932 603.3443,207.7932 C602.1373,207.7932 601.0153,208.1162 599.9733,208.7622 C598.9323,209.4132 597.8073,210.4722 596.5993,211.9442 L596.4653,227.6362 L592.8573,227.6362 L593.0363,204.7282 Z" fill="#FFFFFF" />
            <path id="Fill-90" d="M644.7589,215.8669 C638.3549,216.6789 635.1549,218.6169 635.1549,221.6819 C635.1549,222.9159 635.5149,223.8629 636.2369,224.5269 C636.9549,225.1859 637.9329,225.5179 639.1669,225.5179 C640.1909,225.5179 641.1189,225.2219 641.9629,224.6349 C642.8019,224.0519 643.6459,223.2479 644.4889,222.2249 L644.7589,215.8669 Z M652.3329,226.5999 C651.6729,227.1119 651.0049,227.5069 650.3269,227.7939 C649.6499,228.0809 648.9229,228.2239 648.1419,228.2239 C647.1679,228.2239 646.3829,227.8659 645.7859,227.1519 C645.1939,226.4379 644.8479,225.5629 644.7589,224.5269 C643.8289,225.6529 642.8199,226.5509 641.7249,227.2199 C640.6299,227.8879 639.3959,228.2239 638.0189,228.2239 C636.0389,228.2239 634.4649,227.6239 633.2979,226.4259 C632.1309,225.2269 631.5479,223.6659 631.5479,221.7499 C631.5479,218.9039 632.9209,216.8579 635.6709,215.6109 C638.4219,214.3679 641.4199,213.7489 644.6689,213.7489 L644.7589,210.9079 C644.7589,209.8849 644.4809,209.0629 643.9239,208.4489 C643.3669,207.8339 642.5059,207.5239 641.3299,207.5239 C640.3969,207.5239 639.5129,207.7219 638.6689,208.1119 C637.8299,208.5029 636.5509,209.3419 634.8369,210.6349 L633.3519,208.2919 C635.7829,206.6989 637.5329,205.6759 638.6019,205.2219 C639.6699,204.7739 640.9849,204.5499 642.5509,204.5499 C644.3809,204.5499 645.7809,205.0429 646.7409,206.0349 C647.7019,207.0219 648.1869,208.4179 648.1869,210.2169 L647.8229,222.3189 C647.8229,223.3109 647.9309,224.0919 648.1419,224.6619 C648.3489,225.2309 648.7879,225.5179 649.4469,225.5179 C649.7799,225.5179 650.0849,225.4519 650.3719,225.3259 C650.6589,225.1999 650.9829,225.0199 651.3409,224.7969 L652.3329,226.5999 Z" fill="#FFFFFF" />
            <path id="Fill-92" d="M666.4034,206.9831 C665.1694,206.9831 664.1414,207.4721 663.3154,208.4461 C662.4854,209.4241 662.0724,210.7121 662.0724,212.3051 C662.0724,213.6871 662.4404,214.8591 663.1804,215.8231 C663.9174,216.7841 664.9444,217.2631 666.2684,217.2631 C667.8614,217.2631 669.0234,216.7971 669.7634,215.8681 C670.5004,214.9351 670.8684,213.7011 670.8684,212.1701 C670.8684,210.5151 670.5134,209.2361 669.8084,208.3341 C669.0994,207.4321 667.9654,206.9831 666.4034,206.9831 L666.4034,206.9831 Z M665.6354,236.1151 C667.4084,236.1151 669.0994,235.6791 670.7114,234.8181 C672.3174,233.9571 673.1204,232.7051 673.1204,231.0711 C673.1204,229.8691 672.5144,228.9711 671.2944,228.3751 C670.0784,227.7731 667.6324,227.1541 663.9664,226.5071 C662.0724,227.5041 660.7804,228.4011 660.0894,229.2051 C659.3984,230.0071 659.0524,230.9371 659.0524,231.9911 C659.0524,233.4541 659.7304,234.5041 661.0814,235.1501 C662.4364,235.7921 663.9534,236.1151 665.6354,236.1151 L665.6354,236.1151 Z M678.1734,208.0201 L672.8514,207.8851 C673.4214,208.5451 673.8344,209.2361 674.0904,209.9591 C674.3454,210.6811 674.4754,211.4301 674.4754,212.2151 C674.4754,214.3791 673.7214,216.1691 672.2184,217.5831 C670.7154,218.9921 668.8534,219.7011 666.6274,219.7011 C665.2454,219.7011 663.9394,219.4131 662.7054,218.8431 C661.6514,219.6241 660.9774,220.1801 660.6764,220.5121 C660.3774,220.8401 660.2234,221.1591 660.2234,221.4601 C660.2234,221.9081 660.6764,222.3161 661.5794,222.6751 C662.4814,223.0351 664.4874,223.4431 667.5964,223.8911 C670.7114,224.3441 673.0534,225.0181 674.6324,225.9241 C676.2124,226.8261 677.0024,228.2351 677.0024,230.1611 C677.0024,232.6871 675.8124,234.6701 673.4394,236.1151 C671.0604,237.5551 668.5214,238.2781 665.8154,238.2781 C663.1404,238.2781 660.7444,237.8111 658.6274,236.8781 C656.5044,235.9491 655.4454,234.3111 655.4454,231.9641 C655.4454,230.5831 655.9694,229.4561 657.0244,228.5811 C658.0744,227.7111 659.5644,226.7631 661.4894,225.7401 C659.5644,225.5341 658.1824,225.1701 657.3394,224.6591 C656.5004,224.1471 656.0774,223.5191 656.0774,222.7651 C656.0774,222.0741 656.4504,221.3961 657.2044,220.7371 C657.9534,220.0781 659.3224,219.1751 661.3054,218.0311 C660.2874,217.2191 659.5554,216.3391 659.1204,215.3921 C658.6844,214.4461 658.4654,213.2961 658.4654,211.9421 C658.4654,209.7791 659.2464,208.0061 660.8114,206.6251 C662.3734,205.2381 664.2664,204.5461 666.4934,204.5461 C667.2424,204.5461 667.9734,204.6231 668.6774,204.7751 C669.3864,204.9231 670.0554,205.1971 670.6884,205.5841 L678.1734,205.4491 L678.1734,208.0201 Z" fill="#FFFFFF" />
            <path id="Fill-94" d="M695.0822,215.8669 C688.6792,216.6789 685.4752,218.6169 685.4752,221.6819 C685.4752,222.9159 685.8382,223.8629 686.5612,224.5269 C687.2832,225.1859 688.2572,225.5179 689.4912,225.5179 C690.5142,225.5179 691.4422,225.2219 692.2862,224.6349 C693.1302,224.0519 693.9692,223.2479 694.8122,222.2249 L695.0822,215.8669 Z M702.6562,226.5999 C701.9972,227.1119 701.3282,227.5069 700.6502,227.7939 C699.9742,228.0809 699.2462,228.2239 698.4662,228.2239 C697.4912,228.2239 696.7062,227.8659 696.1142,227.1519 C695.5182,226.4379 695.1722,225.5629 695.0822,224.5269 C694.1532,225.6529 693.1442,226.5509 692.0492,227.2199 C690.9532,227.8879 689.7202,228.2239 688.3422,228.2239 C686.3632,228.2239 684.7922,227.6239 683.6212,226.4259 C682.4542,225.2269 681.8712,223.6659 681.8712,221.7499 C681.8712,218.9039 683.2442,216.8579 685.9952,215.6109 C688.7462,214.3679 691.7432,213.7489 694.9922,213.7489 L695.0822,210.9079 C695.0822,209.8849 694.8042,209.0629 694.2472,208.4489 C693.6902,207.8339 692.8292,207.5239 691.6532,207.5239 C690.7212,207.5239 689.8362,207.7219 688.9922,208.1119 C688.1532,208.5029 686.8752,209.3419 685.1602,210.6349 L683.6752,208.2919 C686.1072,206.6989 687.8622,205.6759 688.9262,205.2219 C689.9932,204.7739 691.3092,204.5499 692.8742,204.5499 C694.7052,204.5499 696.1052,205.0429 697.0652,206.0349 C698.0252,207.0219 698.5102,208.4179 698.5102,210.2169 L698.1462,222.3189 C698.1462,223.3109 698.2552,224.0919 698.4662,224.6619 C698.6722,225.2309 699.1112,225.5179 699.7712,225.5179 C700.1032,225.5179 700.4082,225.4519 700.6952,225.3259 C700.9822,225.1999 701.3062,225.0199 701.6652,224.7969 L702.6562,226.5999 Z" fill="#FFFFFF" />
            <path id="Fill-96" d="M707.213,204.7282 L710.82,204.7282 L710.641,227.6362 L707.033,227.6362 L707.213,204.7282 Z M707.033,200.4882 L710.91,200.4882 L710.91,196.4312 L707.033,196.4312 L707.033,200.4882 Z" fill="#FFFFFF" />
            <path id="Fill-98" d="M718.9366,204.7282 L722.5436,204.7282 L722.3646,208.7852 C723.3256,207.4972 724.5136,206.4642 725.9366,205.6982 C727.3596,204.9302 728.7326,204.5482 730.0516,204.5482 C732.5106,204.5482 734.2606,205.1272 735.3106,206.2862 C736.3606,207.4432 736.8856,209.1352 736.8856,211.3562 L736.8856,216.4992 L736.8406,227.6362 L733.2326,227.6362 L733.3676,217.5352 L733.3676,211.3562 C733.3676,210.1852 733.0036,209.2962 732.2776,208.6952 C731.5546,208.0932 730.5446,207.7932 729.2446,207.7932 C728.0366,207.7932 726.9156,208.1162 725.8736,208.7622 C724.8326,209.4132 723.7066,210.4722 722.4996,211.9442 L722.3646,227.6362 L718.7566,227.6362 L718.9366,204.7282 Z" fill="#FFFFFF" />
            <path id="Fill-100" d="M744.7755,223.6677 C745.8565,224.3987 746.7715,224.8927 747.5255,225.1447 C748.2755,225.3917 749.0155,225.5167 749.7335,225.5167 C750.8465,225.5167 751.8565,225.2067 752.7575,224.5927 C753.6605,223.9817 754.1085,223.0887 754.1085,221.9177 C754.1085,220.4187 753.2475,219.2617 751.5145,218.4537 C749.7875,217.6417 748.0955,216.8597 746.4445,216.1107 C744.6095,214.9717 743.6935,213.3517 743.6935,211.2517 C743.6935,209.2137 744.4165,207.5847 745.8655,206.3687 C747.3145,205.1577 749.1005,204.5477 751.2185,204.5477 C752.5025,204.5477 753.6775,204.7037 754.7375,205.0227 C755.7965,205.3367 756.7925,205.8127 757.7165,206.4407 L756.1365,208.7427 C755.3565,208.3207 754.6205,207.9667 753.9295,207.6847 C753.2385,207.3967 752.5465,207.2527 751.8565,207.2527 C750.4695,207.2527 749.3655,207.5537 748.5405,208.1547 C747.7135,208.7567 747.3015,209.6987 747.3015,210.9857 C747.3015,212.2787 748.1585,213.3147 749.8735,214.0917 C751.5825,214.8727 753.2835,215.6407 754.9655,216.3897 C756.8005,217.5877 757.7165,219.2707 757.7165,221.4287 C757.7165,223.4657 756.9715,225.1077 755.4865,226.3557 C753.9975,227.5987 752.2595,228.2227 750.2765,228.2227 C748.9535,228.2227 747.7365,228.0337 746.6245,227.6567 C745.5105,227.2847 744.3845,226.7317 743.2405,226.0147 L744.7755,223.6677 Z" fill="#FFFFFF" />
            <path id="Fill-102" d="M765.5187,205.1794 L765.6087,196.8824 L769.2157,196.8824 L769.1257,205.1794 L775.2607,205.1794 L775.2607,207.8854 L769.0817,207.8854 L768.9917,217.0624 L768.9917,222.3664 C768.9917,224.2864 769.6777,225.2464 771.0467,225.2464 C771.5847,225.2464 772.1817,225.1164 772.8367,224.8524 C773.4927,224.5914 774.0887,224.3044 774.6277,223.9814 L775.7987,226.2834 C774.9287,226.8534 774.0177,227.3204 773.0667,227.6834 C772.1107,228.0424 771.1597,228.2224 770.2077,228.2224 C768.5697,228.2224 767.3627,227.7284 766.5907,226.7374 C765.8147,225.7494 765.4287,224.3354 765.4287,222.5094 L765.4287,216.0754 L765.4737,207.8854 L761.6417,207.8854 L761.6417,205.1794 L765.5187,205.1794 Z" fill="#FFFFFF" />
            <path id="Fill-104" d="M808.2208,210.2292 C806.8078,208.4252 805.1838,207.5232 803.3528,207.5232 C801.5168,207.5232 799.9328,208.3632 798.5908,210.0412 C797.2538,211.7232 796.5848,214.0612 796.5848,217.0592 C796.5848,219.5182 797.2498,221.4972 798.5698,222.9962 C799.8928,224.4952 801.4718,225.2442 803.3078,225.2442 C804.2368,225.2442 805.1698,224.9702 806.1038,224.4222 C807.0328,223.8752 807.7988,223.2032 808.4008,222.4042 L810.2488,224.5082 C808.1448,226.9852 805.6178,228.2232 802.6748,228.2232 C799.7888,228.2232 797.4068,227.1562 795.5268,225.0292 C793.6468,222.8972 792.7078,220.0162 792.7078,216.3862 C792.7078,213.2052 793.7088,210.4362 795.7058,208.0802 C797.7068,205.7242 800.2068,204.5482 803.2128,204.5482 C804.6898,204.5482 806.0488,204.8752 807.2968,205.5312 C808.5438,206.1912 809.6348,207.1282 810.5688,208.3542 L808.2208,210.2292 Z" fill="#FFFFFF" />
            <path id="Fill-106" d="M824.6359,225.5163 C826.5299,225.5163 828.1759,224.7313 829.5719,223.1563 C830.9719,221.5803 831.6719,219.3243 831.6719,216.3843 C831.6719,213.4183 831.0479,211.1523 829.7999,209.5903 C828.5529,208.0343 826.9509,207.2523 824.9939,207.2523 C823.1009,207.2523 821.4579,208.0423 820.0589,209.6183 C818.6579,211.1883 817.9629,213.4463 817.9629,216.3843 C817.9629,219.3553 818.5859,221.6173 819.8339,223.1783 C821.0809,224.7363 822.6789,225.5163 824.6359,225.5163 M825.0389,204.5473 C828.3199,204.5473 830.8859,205.5973 832.7529,207.6973 C834.6149,209.7973 835.5489,212.6963 835.5489,216.3843 C835.5489,219.5353 834.5619,222.2943 832.5959,224.6683 C830.6259,227.0373 827.9559,228.2223 824.5909,228.2223 C821.3149,228.2223 818.7429,227.1723 816.8769,225.0723 C815.0149,222.9723 814.0859,220.0733 814.0859,216.3843 C814.0859,213.2353 815.0689,210.4753 817.0379,208.1053 C819.0039,205.7323 821.6739,204.5473 825.0389,204.5473" fill="#FFFFFF" />
            <path id="Fill-108" d="M842.3116,205.1794 L846.0086,205.1794 L845.9196,209.5544 L846.0086,209.3254 C846.4896,208.1454 847.2796,207.0504 848.3786,206.0494 C849.4736,205.0494 850.7566,204.5464 852.2336,204.5464 C852.9566,204.5464 853.6016,204.6544 854.1716,204.8654 L853.0896,208.2884 C852.4896,208.1414 852.0226,208.0654 851.6906,208.0654 C850.8196,208.0654 849.8556,208.4544 848.8046,209.2364 C847.7496,210.0214 846.7906,211.2374 845.9196,212.8884 L845.7406,227.6344 L842.1316,227.6344 L842.3116,205.1794 Z" fill="#FFFFFF" />
            <path id="Fill-110" d="M858.6808,205.1794 L862.3778,205.1794 L862.2878,209.5544 L862.3778,209.3254 C862.8588,208.1454 863.6478,207.0504 864.7468,206.0494 C865.8418,205.0494 867.1248,204.5464 868.6018,204.5464 C869.3248,204.5464 869.9708,204.6544 870.5398,204.8654 L869.4588,208.2884 C868.8578,208.1414 868.3908,208.0654 868.0588,208.0654 C867.1888,208.0654 866.2238,208.4544 865.1738,209.2364 C864.1188,210.0214 863.1588,211.2374 862.2878,212.8884 L862.1088,227.6344 L858.5008,227.6344 L858.6808,205.1794 Z" fill="#FFFFFF" />
            <path id="Fill-112" d="M875.049,205.1794 L878.656,205.1794 L878.522,215.2574 L878.522,221.4184 C878.522,222.5904 878.881,223.4744 879.604,224.0754 C880.326,224.6764 881.331,224.9734 882.623,224.9734 C883.826,224.9734 884.948,224.6544 885.985,224.0174 C887.021,223.3754 888.139,222.3294 889.346,220.8714 L889.525,205.1794 L893.133,205.1794 L892.948,227.6344 L889.346,227.6344 L889.525,224.0314 C888.56,225.3094 887.362,226.3274 885.926,227.0864 C884.494,227.8404 883.117,228.2224 881.789,228.2224 C879.317,228.2224 877.553,227.6434 876.498,226.4904 C875.44,225.3364 874.914,223.6494 874.914,221.4284 L875.049,216.2944 L875.049,205.1794 Z" fill="#FFFFFF" />
            <g id="Group-116" transform="translate(901.000000, 204.000000)">
              <mask id="mask-2" fill="white">
                <polygon points="0.1585 35 20.1355 35 20.1355 0.5462 0.1585 0.5462" />
              </mask>
              <g id="Clip-115" />
              <path id="Fill-114" d="M3.9005,17.6472 C5.4625,20.0482 7.3415,21.2472 9.5365,21.2472 C11.4295,21.2472 13.0235,20.3442 14.3155,18.5492 C15.6075,16.7462 16.2585,14.6952 16.2585,12.3832 C16.2585,9.5072 15.6885,7.3082 14.5485,5.7962 C13.4095,4.2802 12.0005,3.5262 10.3265,3.5262 C9.0065,3.5262 7.7865,3.9392 6.6645,4.7592 C5.5435,5.5852 4.6635,6.5542 4.0355,7.6632 L3.9005,17.6472 Z M0.4265,1.1792 L4.0355,1.1792 L4.0355,4.1542 C4.7255,3.1182 5.6865,2.2552 6.9205,1.5742 C8.1545,0.8912 9.5495,0.5462 11.1165,0.5462 C13.4315,0.5462 15.5135,1.4932 17.3625,3.3822 C19.2115,5.2762 20.1355,8.2282 20.1355,12.2502 C20.1355,15.3732 19.1935,18.1452 17.3175,20.5782 C15.4375,23.0052 13.0995,24.2212 10.3035,24.2212 C8.8905,24.2212 7.6335,23.9572 6.5395,23.4222 C5.4395,22.8882 4.5785,22.1932 3.9455,21.3352 L3.7655,35.0002 L0.1585,35.0002 L0.4265,1.1792 Z" fill="#FFFFFF" />
            </g>
            <path id="Fill-117" d="M929.1603,205.1794 L929.2503,196.8824 L932.8583,196.8824 L932.7683,205.1794 L938.9023,205.1794 L938.9023,207.8854 L932.7233,207.8854 L932.6343,217.0624 L932.6343,222.3664 C932.6343,224.2864 933.3203,225.2464 934.6893,225.2464 C935.2273,225.2464 935.8243,225.1164 936.4793,224.8524 C937.1353,224.5914 937.7313,224.3044 938.2693,223.9814 L939.4413,226.2834 C938.5703,226.8534 937.6593,227.3204 936.7083,227.6834 C935.7533,228.0424 934.8013,228.2224 933.8493,228.2224 C932.2123,228.2224 931.0053,227.7284 930.2333,226.7374 C929.4573,225.7494 929.0703,224.3354 929.0703,222.5094 L929.0703,216.0754 L929.1153,207.8854 L925.2833,207.8854 L925.2833,205.1794 L929.1603,205.1794 Z" fill="#FFFFFF" />
            <path id="Fill-119" d="M943.9064,204.7282 L947.5134,204.7282 L947.3344,227.6362 L943.7264,227.6362 L943.9064,204.7282 Z M943.7264,200.4882 L947.6034,200.4882 L947.6034,196.4312 L943.7264,196.4312 L943.7264,200.4882 Z" fill="#FFFFFF" />
            <path id="Fill-121" d="M964.3781,225.5163 C966.2721,225.5163 967.9191,224.7313 969.3151,223.1563 C970.7141,221.5803 971.4141,219.3243 971.4141,216.3843 C971.4141,213.4183 970.7861,211.1523 969.5431,209.5903 C968.2911,208.0343 966.6931,207.2523 964.7371,207.2523 C962.8441,207.2523 961.2011,208.0423 959.8011,209.6183 C958.4011,211.1883 957.7051,213.4463 957.7051,216.3843 C957.7051,219.3553 958.3291,221.6173 959.5761,223.1783 C960.8241,224.7363 962.4261,225.5163 964.3781,225.5163 M964.7821,204.5473 C968.0631,204.5473 970.6291,205.5973 972.4961,207.6973 C974.3581,209.7973 975.2911,212.6963 975.2911,216.3843 C975.2911,219.5353 974.3041,222.2943 972.3391,224.6683 C970.3691,227.0373 967.6981,228.2223 964.3331,228.2223 C961.0581,228.2223 958.4861,227.1723 956.6241,225.0723 C954.7571,222.9723 953.8281,220.0733 953.8281,216.3843 C953.8281,213.2353 954.8121,210.4753 956.7811,208.1053 C958.7461,205.7323 961.4161,204.5473 964.7821,204.5473" fill="#FFFFFF" />
            <path id="Fill-123" d="M982.0548,204.7282 L985.6628,204.7282 L985.4838,208.7852 C986.4398,207.4972 987.6328,206.4642 989.0558,205.6982 C990.4778,204.9302 991.8508,204.5482 993.1698,204.5482 C995.6248,204.5482 997.3788,205.1272 998.4298,206.2862 C999.4748,207.4432 999.9998,209.1352 999.9998,211.3562 L999.9998,216.4992 L999.9548,227.6362 L996.3478,227.6362 L996.4868,217.5352 L996.4868,211.3562 C996.4868,210.1852 996.1228,209.2962 995.3958,208.6952 C994.6738,208.0932 993.6638,207.7932 992.3628,207.7932 C991.1558,207.7932 990.0338,208.1162 988.9918,208.7622 C987.9508,209.4132 986.8258,210.4722 985.6178,211.9442 L985.4838,227.6362 L981.8758,227.6362 L982.0548,204.7282 Z" fill="#FFFFFF" />
          </g>
        </g>
      </g>
    </svg>