<svg viewBox="0 0 999 451" xmlns="http://www.w3.org/2000/svg" role="img"  xmlns:xlink= "http://www.w3.org/1999/xlink">
<style>path,polygon{fill: #333;} #Fill-144 {fill: #ffffff;} #Group-141 {path, polygon {fill: #333;}}</style>
<defs><polygon id="path-1" points="0 452.229299 998.063694 452.229299 998.063694 1.70700637 0 1.70700637"></polygon></defs><g id="Page-1" fill="none" stroke="none" stroke-width="1"><g transform="translate(0.000000, -6.000000)"><g id="Group-141" transform="translate(0.000000, 4.664968)"><path id="Fill-1" d="M193.998089,42.4025478 C195.959873,43.644586 198.246497,44.3643312 201.354777,44.3643312 C205.463057,44.3643312 208.857962,42.2624204 208.857962,37.5299363 C208.857962,30.988535 193.571338,30.1732484 193.571338,21.4343949 C193.571338,16.077707 198.246497,12.7401274 204.125478,12.7401274 C205.749682,12.7401274 208.373885,12.9757962 210.673248,13.8356688 L210.144586,16.8420382 C208.66051,16.033121 206.32293,15.6 204.080892,15.6 C200.635032,15.6 196.864331,17.0394904 196.864331,21.3324841 C196.864331,28.0203822 212.150955,28.0713376 212.150955,37.8165605 C212.150955,44.5490446 206.373885,47.2305732 201.20828,47.2305732 C197.966242,47.2305732 195.43121,46.555414 193.666879,45.7910828 L193.998089,42.4025478 Z" fill="#FEFEFE"></path><path id="Fill-3" d="M238.042675,25.5401274 C236.418471,24.8267516 234.463057,24.2980892 232.838854,24.2980892 C226.959873,24.2980892 223.666879,28.5528662 223.666879,34.4700637 C223.666879,40.011465 227.010828,44.6484076 232.501274,44.6484076 C234.412102,44.6484076 236.182803,44.2216561 237.998089,43.5464968 L238.284713,46.3681529 C236.227389,47.0815287 234.316561,47.2280255 232.023567,47.2280255 C224.189172,47.2280255 220.367516,41.2598726 220.367516,34.4700637 C220.367516,26.9732484 225.189172,21.7184713 232.405732,21.7184713 C235.32293,21.7184713 237.424841,22.3872611 238.284713,22.6738854 L238.042675,25.5401274 Z" fill="#FEFEFE"></path><path id="Fill-5" d="M247.121019,10.8261146 L250.127389,10.8261146 L250.127389,26.3993631 L250.22293,26.3993631 C251.509554,23.7242038 254.235669,21.7178344 257.821656,21.7178344 C264.363057,21.7178344 266.133758,26.0681529 266.133758,32.0808917 L266.133758,46.6541401 L263.121019,46.6541401 L263.121019,32.1318471 C263.121019,27.9280255 262.312102,24.2974522 257.33758,24.2974522 C251.993631,24.2974522 250.127389,29.3611465 250.127389,33.6159236 L250.127389,46.6541401 L247.121019,46.6541401 L247.121019,10.8261146 Z" fill="#FEFEFE"></path><polygon id="Fill-7" fill="#FEFEFE" points="302.436943 46.6541401 298.806369 46.6541401 292.169427 25.5840764 292.073885 25.5840764 285.430573 46.6541401 281.8 46.6541401 273.965605 22.2910828 277.264968 22.2910828 283.666242 43.3547771 283.755414 43.3547771 290.545223 22.2910828 294.175796 22.2910828 300.621656 43.3547771 300.717197 43.3547771 307.456051 22.2910828 310.46242 22.2910828"></polygon><path id="Fill-9" d="M333.152229,32.7522293 C333.152229,28.5038217 331.432484,24.2936306 326.942038,24.2936306 C322.502548,24.2936306 319.776433,28.7394904 319.776433,32.7522293 L333.152229,32.7522293 Z M334.629936,45.8923567 C332.534395,46.7522293 329.80828,47.2299363 327.566242,47.2299363 C319.489809,47.2299363 316.483439,41.777707 316.483439,34.4719745 C316.483439,27.0197452 320.58535,21.7203822 326.750955,21.7203822 C333.629936,21.7203822 336.451592,27.2617834 336.451592,33.8031847 L336.451592,35.3318471 L319.776433,35.3318471 C319.776433,40.4910828 322.547134,44.6503185 327.801911,44.6503185 C329.999363,44.6503185 333.203185,43.7394904 334.629936,42.8350318 L334.629936,45.8923567 Z" fill="#FEFEFE"></path><mask id="mask-2" fill="white"><polygon points="0 452.229299 998.063694 452.229299 998.063694 1.70700637 0 1.70700637"></polygon></mask><g id="Clip-12"></g><path id="Fill-11" d="M345.910828,46.656051 L348.917197,46.656051 L348.917197,22.2929936 L345.910828,22.2929936 L345.910828,46.656051 Z M345.910828,15.7898089 L348.917197,15.7898089 L348.917197,11.7770701 L345.910828,11.7770701 L345.910828,15.7898089 Z" fill="#FEFEFE"></path><polygon id="Fill-13" fill="#FEFEFE" points="357.994904 44.122293 372.657325 24.8738854 358.568153 24.8738854 358.568153 22.2942675 376.147771 22.2942675 376.147771 24.8738854 361.478981 44.077707 376.147771 44.077707 376.147771 46.6509554 357.994904 46.6509554"></polygon><path id="Fill-14" d="M400.03121,32.7522293 C400.03121,28.5038217 398.311465,24.2936306 393.821019,24.2936306 C389.375159,24.2936306 386.655414,28.7394904 386.655414,32.7522293 L400.03121,32.7522293 Z M401.508917,45.8923567 C399.407006,46.7522293 396.687261,47.2299363 394.445223,47.2299363 C386.36879,47.2299363 383.356051,41.777707 383.356051,34.4719745 C383.356051,27.0197452 387.464331,21.7203822 393.629936,21.7203822 C400.508917,21.7203822 403.330573,27.2617834 403.330573,33.8031847 L403.330573,35.3318471 L386.655414,35.3318471 C386.655414,40.4910828 389.426115,44.6503185 394.680892,44.6503185 C396.878344,44.6503185 400.082166,43.7394904 401.508917,42.8350318 L401.508917,45.8923567 Z" fill="#FEFEFE"></path><path id="Fill-15" d="M412.788535,27.7356688 C412.788535,25.0605096 412.788535,24.0605096 412.597452,22.2961783 L415.603822,22.2961783 L415.603822,26.9713376 L415.699363,26.9713376 C416.801274,24.2515924 418.852229,21.7165605 421.95414,21.7165605 C422.673885,21.7165605 423.533758,21.8630573 424.06242,22.0031847 L424.06242,25.156051 C423.438217,24.9649682 422.629299,24.8694268 421.864968,24.8694268 C417.087898,24.8694268 415.794904,30.2197452 415.794904,34.6146497 L415.794904,46.6528662 L412.788535,46.6528662 L412.788535,27.7356688 Z" fill="#FEFEFE"></path><path id="Fill-16" d="M432.420382,46.656051 L435.433121,46.656051 L435.433121,22.2929936 L432.420382,22.2929936 L432.420382,46.656051 Z M432.414013,15.7898089 L435.426752,15.7898089 L435.426752,11.7770701 L432.414013,11.7770701 L432.414013,15.7898089 Z" fill="#FEFEFE"></path><path id="Fill-17" d="M444.887261,43.1178344 C446.702548,44.0286624 448.9,44.6464968 451.243949,44.6464968 C454.110191,44.6464968 456.638854,43.0732484 456.638854,40.3025478 C456.638854,34.5191083 444.931847,35.4299363 444.931847,28.3598726 C444.931847,23.5318471 448.855414,21.7165605 452.861783,21.7165605 C454.154777,21.7165605 456.734395,22.0031847 458.887261,22.8121019 L458.594268,25.4426752 C457.021019,24.7229299 454.868153,24.2961783 453.199363,24.2961783 C450.091083,24.2961783 447.944586,25.2515924 447.944586,28.3598726 C447.944586,32.9012739 459.938217,32.3216561 459.938217,40.3025478 C459.938217,45.4617834 455.110191,47.2324841 451.428662,47.2324841 C449.091083,47.2324841 446.747134,46.9394904 444.600637,46.0796178 L444.887261,43.1178344 Z" fill="#FEFEFE"></path><path id="Fill-18" d="M484.917197,25.5401274 C483.292994,24.8267516 481.33758,24.2980892 479.713376,24.2980892 C473.834395,24.2980892 470.535032,28.5528662 470.535032,34.4700637 C470.535032,40.011465 473.88535,44.6484076 479.375796,44.6484076 C481.286624,44.6484076 483.050955,44.2216561 484.866242,43.5464968 L485.152866,46.3681529 C483.101911,47.0815287 481.191083,47.2280255 478.898089,47.2280255 C471.063694,47.2280255 467.242038,41.2598726 467.242038,34.4700637 C467.242038,26.9732484 472.063694,21.7184713 479.280255,21.7184713 C482.191083,21.7184713 484.292994,22.3872611 485.152866,22.6738854 L484.917197,25.5401274 Z" fill="#FEFEFE"></path><path id="Fill-19" d="M493.992357,10.8261146 L497.005096,10.8261146 L497.005096,26.3993631 L497.094268,26.3993631 C498.387261,23.7242038 501.113376,21.7178344 504.699363,21.7178344 C511.240764,21.7178344 513.005096,26.0681529 513.005096,32.0808917 L513.005096,46.6541401 L509.998726,46.6541401 L509.998726,32.1318471 C509.998726,27.9280255 509.189809,24.2974522 504.215287,24.2974522 C498.864968,24.2974522 497.005096,29.3611465 497.005096,33.6159236 L497.005096,46.6541401 L493.992357,46.6541401 L493.992357,10.8261146 Z" fill="#FEFEFE"></path><path id="Fill-20" d="M539.131847,32.7522293 C539.131847,28.5038217 537.412102,24.2936306 532.921656,24.2936306 C528.482166,24.2936306 525.756051,28.7394904 525.756051,32.7522293 L539.131847,32.7522293 Z M540.615924,45.8923567 C538.514013,46.7522293 535.794268,47.2299363 533.54586,47.2299363 C525.469427,47.2299363 522.463057,41.777707 522.463057,34.4719745 C522.463057,27.0197452 526.571338,21.7203822 532.736943,21.7203822 C539.615924,21.7203822 542.43121,27.2617834 542.43121,33.8031847 L542.43121,35.3318471 L525.756051,35.3318471 C525.756051,40.4910828 528.533121,44.6503185 533.781529,44.6503185 C535.98535,44.6503185 539.182803,43.7394904 540.615924,42.8350318 L540.615924,45.8923567 Z" fill="#FEFEFE"></path><polygon id="Fill-21" fill="#FEFEFE" points="569.23758 13.310828 585.56879 13.310828 585.56879 16.1770701 572.536943 16.1770701 572.536943 28.0687898 584.9 28.0687898 584.9 30.9414013 572.536943 30.9414013 572.536943 43.788535 586.142038 43.788535 586.142038 46.6547771 569.23758 46.6547771"></polygon><path id="Fill-22" d="M596.509554,46.656051 L599.522293,46.656051 L599.522293,22.2929936 L596.509554,22.2929936 L596.509554,46.656051 Z M596.503185,15.7898089 L599.515924,15.7898089 L599.515924,11.7770701 L596.503185,11.7770701 L596.503185,15.7898089 Z" fill="#FEFEFE"></path><path id="Fill-23" d="M619.919108,44.6484076 C625.269427,44.6484076 627.129299,38.9159236 627.129299,34.4700637 C627.129299,30.0305732 625.269427,24.2980892 619.919108,24.2980892 C614.186624,24.2980892 612.702548,29.743949 612.702548,34.4700637 C612.702548,39.2025478 614.186624,44.6484076 619.919108,44.6484076 L619.919108,44.6484076 Z M630.135669,46.6547771 L627.129299,46.6547771 L627.129299,42.788535 L627.033758,42.788535 C625.403185,45.8904459 622.931847,47.2280255 619.435032,47.2280255 C612.753503,47.2280255 609.409554,41.6866242 609.409554,34.4700637 C609.409554,27.0687898 612.269427,21.7184713 619.435032,21.7184713 C624.212102,21.7184713 626.600637,25.2025478 627.033758,26.4 L627.129299,26.4 L627.129299,10.8267516 L630.135669,10.8267516 L630.135669,46.6547771 Z" fill="#FEFEFE"></path><path id="Fill-24" d="M650.012102,44.0757962 C655.457962,44.0757962 657.413376,38.9101911 657.413376,34.4707006 C657.413376,28.5980892 655.7,24.2987261 650.203185,24.2987261 C644.47707,24.2987261 642.986624,29.744586 642.986624,34.4707006 C642.986624,39.2477707 644.897452,44.0757962 650.012102,44.0757962 L650.012102,44.0757962 Z M660.426115,44.6490446 C660.426115,51.4324841 657.36879,56.9738854 649.012102,56.9738854 C645.80828,56.9738854 642.897452,56.0630573 641.655414,55.6808917 L641.891083,52.6745223 C643.757325,53.6299363 646.432484,54.3942675 649.056688,54.3942675 C656.795541,54.3942675 657.464331,48.7573248 657.464331,41.8783439 L657.36879,41.8783439 C655.744586,45.4133758 653.069427,46.655414 649.961146,46.655414 C642.177707,46.655414 639.7,39.8719745 639.7,34.4707006 C639.7,27.0694268 642.559873,21.7191083 649.725478,21.7191083 C652.973885,21.7191083 655.075796,22.1458599 657.324204,25.0630573 L657.413376,25.0630573 L657.413376,22.2923567 L660.426115,22.2923567 L660.426115,44.6490446 Z" fill="#FEFEFE"></path><path id="Fill-25" d="M686.269427,32.7522293 C686.269427,28.5038217 684.543312,24.2936306 680.059236,24.2936306 C675.613376,24.2936306 672.893631,28.7394904 672.893631,32.7522293 L686.269427,32.7522293 Z M687.753503,45.8923567 C685.651592,46.7522293 682.931847,47.2299363 680.67707,47.2299363 C672.600637,47.2299363 669.600637,41.777707 669.600637,34.4719745 C669.600637,27.0197452 673.708917,21.7203822 679.868153,21.7203822 C686.747134,21.7203822 689.56879,27.2617834 689.56879,33.8031847 L689.56879,35.3318471 L672.893631,35.3318471 C672.893631,40.4910828 675.664331,44.6503185 680.919108,44.6503185 C683.116561,44.6503185 686.320382,43.7394904 687.753503,42.8350318 L687.753503,45.8923567 Z" fill="#FEFEFE"></path><path id="Fill-26" d="M699.026752,28.0216561 C699.026752,26.1617834 699.026752,24.2509554 698.835669,22.2955414 L701.752866,22.2955414 L701.752866,26.6394904 L701.842038,26.6394904 C702.848408,24.4420382 704.663694,21.7159236 709.727389,21.7159236 C715.746497,21.7159236 718.033121,25.7350318 718.033121,31.0789809 L718.033121,46.6522293 L715.026752,46.6522293 L715.026752,31.8496815 C715.026752,27.2573248 713.408917,24.2955414 709.243312,24.2955414 C703.752866,24.2955414 702.03949,29.1235669 702.03949,33.1872611 L702.03949,46.6522293 L699.026752,46.6522293 L699.026752,28.0216561 Z" fill="#FEFEFE"></path><path id="Fill-27" d="M738.817197,44.6484076 C744.071975,44.6484076 746.893631,40.1070064 746.893631,34.4700637 C746.893631,28.8394904 744.071975,24.2980892 738.817197,24.2980892 C733.56242,24.2980892 730.740764,28.8394904 730.740764,34.4700637 C730.740764,40.1070064 733.56242,44.6484076 738.817197,44.6484076 M738.817197,21.7184713 C746.696178,21.7184713 750.186624,27.833121 750.186624,34.4700637 C750.186624,41.1133758 746.696178,47.2280255 738.817197,47.2280255 C730.938217,47.2280255 727.447771,41.1133758 727.447771,34.4700637 C727.447771,27.833121 730.938217,21.7184713 738.817197,21.7184713" fill="#FEFEFE"></path><path id="Fill-28" d="M757.732484,43.1178344 C759.547771,44.0286624 761.751592,44.6464968 764.089172,44.6464968 C766.949045,44.6464968 769.490446,43.0732484 769.490446,40.3025478 C769.490446,34.5191083 757.783439,35.4299363 757.783439,28.3598726 C757.783439,23.5318471 761.700637,21.7165605 765.713376,21.7165605 C767,21.7165605 769.579618,22.0031847 771.726115,22.8121019 L771.43949,25.4426752 C769.866242,24.7229299 767.719745,24.2961783 766.044586,24.2961783 C762.942675,24.2961783 760.789809,25.2515924 760.789809,28.3598726 C760.789809,32.9012739 772.783439,32.3216561 772.783439,40.3025478 C772.783439,45.4617834 767.955414,47.2324841 764.273885,47.2324841 C761.936306,47.2324841 759.598726,46.9394904 757.44586,46.0796178 L757.732484,43.1178344 Z" fill="#FEFEFE"></path><path id="Fill-29" d="M780.038217,43.1178344 C781.853503,44.0286624 784.057325,44.6464968 786.394904,44.6464968 C789.261146,44.6464968 791.796178,43.0732484 791.796178,40.3025478 C791.796178,34.5191083 780.089172,35.4299363 780.089172,28.3598726 C780.089172,23.5318471 784.006369,21.7165605 788.025478,21.7165605 C789.305732,21.7165605 791.89172,22.0031847 794.038217,22.8121019 L793.751592,25.4426752 C792.178344,24.7229299 790.025478,24.2961783 788.356688,24.2961783 C785.248408,24.2961783 783.095541,25.2515924 783.095541,28.3598726 C783.095541,32.9012739 795.089172,32.3216561 795.089172,40.3025478 C795.089172,45.4617834 790.261146,47.2324841 786.585987,47.2324841 C784.242038,47.2324841 781.904459,46.9394904 779.751592,46.0796178 L780.038217,43.1178344 Z" fill="#FEFEFE"></path><path id="Fill-30" d="M819.069427,32.7522293 C819.069427,28.5038217 817.343312,24.2936306 812.859236,24.2936306 C808.413376,24.2936306 805.693631,28.7394904 805.693631,32.7522293 L819.069427,32.7522293 Z M820.553503,45.8923567 C818.451592,46.7522293 815.731847,47.2299363 813.47707,47.2299363 C805.400637,47.2299363 802.400637,41.777707 802.400637,34.4719745 C802.400637,27.0197452 806.508917,21.7203822 812.668153,21.7203822 C819.547134,21.7203822 822.36879,27.2617834 822.36879,33.8031847 L822.36879,35.3318471 L805.693631,35.3318471 C805.693631,40.4910828 808.464331,44.6503185 813.719108,44.6503185 C815.916561,44.6503185 819.120382,43.7394904 820.553503,42.8350318 L820.553503,45.8923567 Z" fill="#FEFEFE"></path><path id="Fill-31" d="M831.826752,28.0216561 C831.826752,26.1617834 831.826752,24.2509554 831.642038,22.2955414 L834.552866,22.2955414 L834.552866,26.6394904 L834.648408,26.6394904 C835.648408,24.4420382 837.463694,21.7159236 842.527389,21.7159236 C848.546497,21.7159236 850.83949,25.7350318 850.83949,31.0789809 L850.83949,46.6522293 L847.833121,46.6522293 L847.833121,31.8496815 C847.833121,27.2573248 846.208917,24.2955414 842.049682,24.2955414 C836.552866,24.2955414 834.83949,29.1235669 834.83949,33.1872611 L834.83949,46.6522293 L831.826752,46.6522293 L831.826752,28.0216561 Z" fill="#FEFEFE"></path><path id="Fill-32" d="M860.252866,43.1178344 C862.068153,44.0286624 864.265605,44.6464968 866.603185,44.6464968 C869.469427,44.6464968 872.004459,43.0732484 872.004459,40.3025478 C872.004459,34.5191083 860.303822,35.4299363 860.303822,28.3598726 C860.303822,23.5318471 864.21465,21.7165605 868.227389,21.7165605 C869.520382,21.7165605 872.093631,22.0031847 874.246497,22.8121019 L873.959873,25.4426752 C872.380255,24.7229299 870.233758,24.2961783 868.564968,24.2961783 C865.456688,24.2961783 863.303822,25.2515924 863.303822,28.3598726 C863.303822,32.9012739 875.297452,32.3216561 875.297452,40.3025478 C875.297452,45.4617834 870.469427,47.2324841 866.794268,47.2324841 C864.456688,47.2324841 862.112739,46.9394904 859.966242,46.0796178 L860.252866,43.1178344 Z" fill="#FEFEFE"></path><path id="Fill-33" d="M900.285987,25.5401274 C898.655414,24.8267516 896.706369,24.2980892 895.075796,24.2980892 C889.203185,24.2980892 885.903822,28.5528662 885.903822,34.4700637 C885.903822,40.011465 889.25414,44.6484076 894.738217,44.6484076 C896.655414,44.6484076 898.419745,44.2216561 900.235032,43.5464968 L900.521656,46.3681529 C898.470701,47.0815287 896.553503,47.2280255 894.266879,47.2280255 C886.426115,47.2280255 882.610828,41.2598726 882.610828,34.4700637 C882.610828,26.9732484 887.432484,21.7184713 894.642675,21.7184713 C897.559873,21.7184713 899.661783,22.3872611 900.521656,22.6738854 L900.285987,25.5401274 Z" fill="#FEFEFE"></path><path id="Fill-34" d="M909.354777,10.8261146 L912.367516,10.8261146 L912.367516,26.3993631 L912.463057,26.3993631 C913.749682,23.7242038 916.469427,21.7178344 920.055414,21.7178344 C926.596815,21.7178344 928.367516,26.0681529 928.367516,32.0808917 L928.367516,46.6541401 L925.361146,46.6541401 L925.361146,32.1318471 C925.361146,27.9280255 924.54586,24.2974522 919.577707,24.2974522 C914.233758,24.2974522 912.367516,29.3611465 912.367516,33.6159236 L912.367516,46.6541401 L909.354777,46.6541401 L909.354777,10.8261146 Z" fill="#FEFEFE"></path><path id="Fill-35" d="M953.356051,34.3789809 L952.496178,34.3789809 C947.285987,34.3789809 941.075796,34.9012739 941.075796,40.2515924 C941.075796,43.455414 943.375159,44.6464968 946.13949,44.6464968 C953.215924,44.6464968 953.356051,38.4872611 953.356051,35.8566879 L953.356051,34.3789809 Z M953.642675,42.7356688 L953.540764,42.7356688 C952.209554,45.6528662 948.81465,47.2324841 945.801911,47.2324841 C938.884713,47.2324841 937.782803,42.544586 937.782803,40.3471338 C937.782803,32.1815287 946.47707,31.7993631 952.782803,31.7993631 L953.356051,31.7993631 L953.356051,30.5509554 C953.356051,26.3980892 951.878344,24.2961783 947.81465,24.2961783 C945.279618,24.2961783 942.891083,24.8694268 940.649045,26.3025478 L940.649045,23.3853503 C942.508917,22.4808917 945.668153,21.7165605 947.81465,21.7165605 C953.827389,21.7165605 956.36879,24.4363057 956.36879,30.7993631 L956.36879,41.544586 C956.36879,43.5 956.36879,44.9840764 956.604459,46.6528662 L953.642675,46.6528662 L953.642675,42.7356688 Z" fill="#FEFEFE"></path><path id="Fill-36" d="M969.310828,24.8713376 L964.393631,24.8713376 L964.393631,22.2917197 L969.310828,22.2917197 L969.310828,20.5210191 C969.310828,15.4127389 969.501911,10.2535032 975.763057,10.2535032 C976.718471,10.2535032 977.998726,10.3936306 978.578344,10.7312102 L978.387261,13.355414 C977.763057,13.0242038 976.858599,12.833121 975.998726,12.833121 C971.890446,12.833121 972.323567,17.2726115 972.323567,20.1898089 L972.323567,22.2917197 L977.814013,22.2917197 L977.814013,24.8713376 L972.323567,24.8713376 L972.323567,46.6547771 L969.310828,46.6547771 L969.310828,24.8713376 Z" fill="#FEFEFE"></path><path id="Fill-37" d="M997.401274,24.8713376 L991.859873,24.8713376 L991.859873,40.6356688 C991.859873,42.833121 992.66879,44.6484076 995.10828,44.6484076 C996.248408,44.6484076 997.019108,44.4063694 997.878981,44.0751592 L998.063694,46.5592357 C997.350318,46.8458599 995.872611,47.2280255 994.388535,47.2280255 C989.044586,47.2280255 988.847134,43.5464968 988.847134,39.1070064 L988.847134,24.8713376 L984.070064,24.8713376 L984.070064,22.2917197 L988.847134,22.2917197 L988.847134,16.4127389 L991.859873,15.3617834 L991.859873,22.2917197 L997.401274,22.2917197 L997.401274,24.8713376 Z" fill="#FEFEFE"></path><path id="Fill-38" d="M217.787261,82.9579618 C215.68535,81.856051 212.678981,81.5248408 210.335032,81.5248408 C201.69172,81.5248408 196.819108,87.6394904 196.819108,95.9006369 C196.819108,104.31465 201.545223,110.282803 210.335032,110.282803 C212.532484,110.282803 215.876433,109.996178 217.787261,108.849682 L217.978344,111.715924 C216.163057,112.811465 212.436943,113.149045 210.335032,113.149045 C199.825478,113.149045 193.519745,106.219108 193.519745,95.9006369 C193.519745,85.7732484 200.016561,78.6585987 210.335032,78.6585987 C212.296815,78.6585987 216.258599,78.9898089 217.978344,79.9006369 L217.787261,82.9579618 Z" fill="#FEFEFE"></path><path id="Fill-39" d="M239.666242,110.569427 C244.921019,110.569427 247.742675,106.028025 247.742675,100.391083 C247.742675,94.7605096 244.921019,90.2191083 239.666242,90.2191083 C234.411465,90.2191083 231.589809,94.7605096 231.589809,100.391083 C231.589809,106.028025 234.411465,110.569427 239.666242,110.569427 M239.666242,87.6394904 C247.551592,87.6394904 251.035669,93.7541401 251.035669,100.391083 C251.035669,107.034395 247.551592,113.149045 239.666242,113.149045 C231.780892,113.149045 228.296815,107.034395 228.296815,100.391083 C228.296815,93.7541401 231.780892,87.6394904 239.666242,87.6394904" fill="#FEFEFE"></path><path id="Fill-40" d="M260.447771,93.9426752 C260.447771,92.0828025 260.447771,90.1719745 260.256688,88.2165605 L263.167516,88.2165605 L263.167516,92.5605096 L263.263057,92.5605096 C264.269427,90.3630573 266.084713,87.6369427 271.148408,87.6369427 C277.167516,87.6369427 279.46051,91.656051 279.46051,97 L279.46051,112.573248 L276.447771,112.573248 L276.447771,97.7707006 C276.447771,93.1783439 274.823567,90.2165605 270.670701,90.2165605 C265.180255,90.2165605 263.45414,95.044586 263.45414,99.1082803 L263.45414,112.573248 L260.447771,112.573248 L260.447771,93.9426752 Z" fill="#FEFEFE"></path><path id="Fill-41" d="M292.789172,90.7923567 L287.871975,90.7923567 L287.871975,88.2127389 L292.789172,88.2127389 L292.789172,86.4420382 C292.789172,81.333758 292.980255,76.1745223 299.235032,76.1745223 C300.190446,76.1745223 301.483439,76.3146497 302.056688,76.6522293 L301.865605,79.2764331 C301.241401,78.9452229 300.336943,78.7541401 299.47707,78.7541401 C295.36879,78.7541401 295.795541,83.1936306 295.795541,86.110828 L295.795541,88.2127389 L301.292357,88.2127389 L301.292357,90.7923567 L295.795541,90.7923567 L295.795541,112.575796 L292.789172,112.575796 L292.789172,90.7923567 Z" fill="#FEFEFE"></path><path id="Fill-42" d="M320.207643,78.8031847 L323.984713,78.8031847 L317.959236,85.6821656 L315.768153,85.6821656 L320.207643,78.8031847 Z M325.226752,98.6757962 C325.226752,94.4210191 323.507006,90.2171975 319.016561,90.2171975 C314.570701,90.2171975 311.850955,94.6630573 311.850955,98.6757962 L325.226752,98.6757962 Z M326.704459,111.809554 C324.602548,112.669427 321.882803,113.153503 319.634395,113.153503 C311.564331,113.153503 308.551592,107.701274 308.551592,100.395541 C308.551592,92.9433121 312.659873,87.6375796 318.819108,87.6375796 C325.698089,87.6375796 328.519745,93.1789809 328.519745,99.7267516 L328.519745,101.249045 L311.850955,101.249045 C311.850955,106.41465 314.621656,110.567516 319.870064,110.567516 C322.067516,110.567516 325.271338,109.663057 326.704459,108.752229 L326.704459,111.809554 Z" fill="#FEFEFE"></path><path id="Fill-43" d="M347.05414,110.569427 C352.404459,110.569427 354.270701,104.836943 354.270701,100.391083 C354.270701,95.9515924 352.404459,90.2191083 347.05414,90.2191083 C341.321656,90.2191083 339.843949,95.6649682 339.843949,100.391083 C339.843949,105.123567 341.321656,110.569427 347.05414,110.569427 L347.05414,110.569427 Z M357.27707,112.575796 L354.270701,112.575796 L354.270701,108.709554 L354.175159,108.709554 C352.550955,111.811465 350.066879,113.149045 346.576433,113.149045 C339.888535,113.149045 336.544586,107.607643 336.544586,100.391083 C336.544586,92.9898089 339.410828,87.6394904 346.576433,87.6394904 C351.353503,87.6394904 353.742038,91.1235669 354.175159,92.3210191 L354.270701,92.3210191 L354.270701,76.7477707 L357.27707,76.7477707 L357.27707,112.575796 Z" fill="#FEFEFE"></path><path id="Fill-44" d="M378.105096,78.8031847 L381.882166,78.8031847 L375.856688,85.6821656 L373.665605,85.6821656 L378.105096,78.8031847 Z M383.124204,98.6757962 C383.124204,94.4210191 381.404459,90.2171975 376.914013,90.2171975 C372.468153,90.2171975 369.748408,94.6630573 369.748408,98.6757962 L383.124204,98.6757962 Z M384.601911,111.809554 C382.5,112.669427 379.780255,113.153503 377.531847,113.153503 C369.461783,113.153503 366.449045,107.701274 366.449045,100.395541 C366.449045,92.9433121 370.557325,87.6375796 376.716561,87.6375796 C383.595541,87.6375796 386.417197,93.1789809 386.417197,99.7267516 L386.417197,101.249045 L369.748408,101.249045 C369.748408,106.41465 372.519108,110.567516 377.767516,110.567516 C379.964968,110.567516 383.16879,109.663057 384.601911,108.752229 L384.601911,111.809554 Z" fill="#FEFEFE"></path><path id="Fill-45" d="M395.875796,93.6566879 C395.875796,90.9815287 395.875796,89.9815287 395.684713,88.2171975 L398.691083,88.2171975 L398.691083,92.8923567 L398.792994,92.8923567 C399.888535,90.1726115 401.94586,87.6375796 405.047771,87.6375796 C405.767516,87.6375796 406.621019,87.7840764 407.156051,87.9242038 L407.156051,91.0770701 C406.531847,90.8859873 405.716561,90.7904459 404.952229,90.7904459 C400.175159,90.7904459 398.888535,96.1407643 398.888535,100.535669 L398.888535,112.573885 L395.875796,112.573885 L395.875796,93.6566879 Z" fill="#FEFEFE"></path><path id="Fill-46" d="M429.222293,100.3 L428.36242,100.3 C423.152229,100.3 416.942038,100.822293 416.942038,106.172611 C416.942038,109.376433 419.235032,110.567516 422.005732,110.567516 C429.075796,110.567516 429.222293,104.40828 429.222293,101.777707 L429.222293,100.3 Z M429.508917,108.656688 L429.407006,108.656688 C428.069427,111.573885 424.680892,113.153503 421.668153,113.153503 C414.744586,113.153503 413.649045,108.465605 413.649045,106.268153 C413.649045,98.1025478 422.343312,97.7203822 428.649045,97.7203822 L429.222293,97.7203822 L429.222293,96.4719745 C429.222293,92.3191083 427.738217,90.2171975 423.680892,90.2171975 C421.14586,90.2171975 418.757325,90.7904459 416.515287,92.2235669 L416.515287,89.3063694 C418.375159,88.4019108 421.528025,87.6375796 423.680892,87.6375796 C429.7,87.6375796 432.228662,90.3573248 432.228662,96.7203822 L432.228662,107.465605 C432.228662,109.421019 432.228662,110.905096 432.470701,112.573885 L429.508917,112.573885 L429.508917,108.656688 Z" fill="#FEFEFE"></path><path id="Fill-47" d="M453.629936,90.7923567 L448.088535,90.7923567 L448.088535,106.556688 C448.088535,108.75414 448.903822,110.569427 451.336943,110.569427 C452.483439,110.569427 453.247771,110.327389 454.107643,109.996178 L454.298726,112.480255 C453.58535,112.766879 452.101274,113.149045 450.617197,113.149045 C445.273248,113.149045 445.075796,109.467516 445.075796,105.028025 L445.075796,90.7923567 L440.298726,90.7923567 L440.298726,88.2127389 L445.075796,88.2127389 L445.075796,82.333758 L448.088535,81.2828025 L448.088535,88.2127389 L453.629936,88.2127389 L453.629936,90.7923567 Z" fill="#FEFEFE"></path><path id="Fill-48" d="M462.757962,112.579618 L465.770701,112.579618 L465.770701,88.2165605 L462.757962,88.2165605 L462.757962,112.579618 Z M462.751592,81.7133758 L465.764331,81.7133758 L465.764331,77.7006369 L462.751592,77.7006369 L462.751592,81.7133758 Z" fill="#FEFEFE"></path><path id="Fill-49" d="M486.596815,110.569427 C491.845223,110.569427 494.666879,106.028025 494.666879,100.391083 C494.666879,94.7605096 491.845223,90.2191083 486.596815,90.2191083 C481.335669,90.2191083 478.520382,94.7605096 478.520382,100.391083 C478.520382,106.028025 481.335669,110.569427 486.596815,110.569427 M486.596815,87.6394904 C494.469427,87.6394904 497.959873,93.7541401 497.959873,100.391083 C497.959873,107.034395 494.469427,113.149045 486.596815,113.149045 C478.711465,113.149045 475.227389,107.034395 475.227389,100.391083 C475.227389,93.7541401 478.711465,87.6394904 486.596815,87.6394904" fill="#FEFEFE"></path><path id="Fill-50" d="M507.371975,93.9426752 C507.371975,92.0828025 507.371975,90.1719745 507.187261,88.2165605 L510.098089,88.2165605 L510.098089,92.5605096 L510.193631,92.5605096 C511.193631,90.3630573 513.008917,87.6369427 518.072611,87.6369427 C524.09172,87.6369427 526.384713,91.656051 526.384713,97 L526.384713,112.573248 L523.378344,112.573248 L523.378344,97.7707006 C523.378344,93.1783439 521.75414,90.2165605 517.594904,90.2165605 C512.098089,90.2165605 510.384713,95.044586 510.384713,99.1082803 L510.384713,112.573248 L507.371975,112.573248 L507.371975,93.9426752 Z" fill="#FEFEFE"></path><path id="Fill-51" d="M552.803822,109.038854 C554.619108,109.949682 556.816561,110.567516 559.15414,110.567516 C562.020382,110.567516 564.555414,108.994268 564.555414,106.223567 C564.555414,100.440127 552.854777,101.350955 552.854777,94.2808917 C552.854777,89.4528662 556.765605,87.6375796 560.778344,87.6375796 C562.071338,87.6375796 564.644586,87.9242038 566.797452,88.733121 L566.510828,91.3636943 C564.93121,90.643949 562.784713,90.2171975 561.115924,90.2171975 C558.007643,90.2171975 555.854777,91.1726115 555.854777,94.2808917 C555.854777,98.822293 567.848408,98.2426752 567.848408,106.223567 C567.848408,111.382803 563.020382,113.153503 559.345223,113.153503 C557.007643,113.153503 554.663694,112.86051 552.517197,112.000637 L552.803822,109.038854 Z" fill="#FEFEFE"></path><path id="Fill-52" d="M595.984076,106.843312 C595.984076,108.703185 595.984076,110.614013 596.175159,112.575796 L593.257962,112.575796 L593.257962,108.225478 L593.175159,108.225478 C592.16242,110.42293 590.347134,113.149045 585.283439,113.149045 C579.264331,113.149045 576.977707,109.136306 576.977707,103.785987 L576.977707,88.2127389 L579.984076,88.2127389 L579.984076,103.021656 C579.984076,107.607643 581.601911,110.569427 585.767516,110.569427 C591.257962,110.569427 592.971338,105.741401 592.971338,101.684076 L592.971338,88.2127389 L595.984076,88.2127389 L595.984076,106.843312 Z" fill="#FEFEFE"></path><path id="Fill-53" d="M607.254777,112.579618 L610.267516,112.579618 L610.267516,88.2165605 L607.254777,88.2165605 L607.254777,112.579618 Z M607.254777,81.7133758 L610.267516,81.7133758 L610.267516,77.7006369 L607.254777,77.7006369 L607.254777,81.7133758 Z" fill="#FEFEFE"></path><path id="Fill-54" d="M619.726115,109.038854 C621.541401,109.949682 623.738854,110.567516 626.076433,110.567516 C628.949045,110.567516 631.477707,108.994268 631.477707,106.223567 C631.477707,100.440127 619.77707,101.350955 619.77707,94.2808917 C619.77707,89.4528662 623.687898,87.6375796 627.707006,87.6375796 C628.993631,87.6375796 631.573248,87.9242038 633.726115,88.733121 L633.43949,91.3636943 C631.859873,90.643949 629.707006,90.2171975 628.044586,90.2171975 C624.929936,90.2171975 622.77707,91.1726115 622.77707,94.2808917 C622.77707,98.822293 634.770701,98.2426752 634.770701,106.223567 C634.770701,111.382803 629.942675,113.153503 626.273885,113.153503 C623.929936,113.153503 621.585987,112.86051 619.43949,112.000637 L619.726115,109.038854 Z" fill="#FEFEFE"></path><path id="Fill-55" d="M642.038217,109.038854 C643.853503,109.949682 646.050955,110.567516 648.388535,110.567516 C651.254777,110.567516 653.789809,108.994268 653.789809,106.223567 C653.789809,100.440127 642.089172,101.350955 642.089172,94.2808917 C642.089172,89.4528662 646,87.6375796 650.012739,87.6375796 C651.305732,87.6375796 653.878981,87.9242038 656.031847,88.733121 L655.745223,91.3636943 C654.165605,90.643949 652.019108,90.2171975 650.350318,90.2171975 C647.242038,90.2171975 645.089172,91.1726115 645.089172,94.2808917 C645.089172,98.822293 657.082803,98.2426752 657.082803,106.223567 C657.082803,111.382803 652.254777,113.153503 648.579618,113.153503 C646.242038,113.153503 643.898089,112.86051 641.751592,112.000637 L642.038217,109.038854 Z" fill="#FEFEFE"></path><path id="Fill-56" d="M681.063057,98.6732484 C681.063057,94.4248408 679.343312,90.2146497 674.852866,90.2146497 C670.413376,90.2146497 667.687261,94.6605096 667.687261,98.6732484 L681.063057,98.6732484 Z M682.540764,111.813376 C680.438854,112.673248 677.719108,113.150955 675.47707,113.150955 C667.400637,113.150955 664.394268,107.698726 664.394268,100.392994 C664.394268,92.9407643 668.496178,87.6414013 674.661783,87.6414013 C681.540764,87.6414013 684.36242,93.1828025 684.36242,99.7242038 L684.36242,101.252866 L667.687261,101.252866 C667.687261,106.412102 670.457962,110.571338 675.712739,110.571338 C677.916561,110.571338 681.114013,109.66051 682.540764,108.756051 L682.540764,111.813376 Z" fill="#FEFEFE"></path><path id="Fill-57" d="M217.787261,148.88535 C215.68535,147.783439 212.678981,147.452229 210.335032,147.452229 C201.69172,147.452229 196.819108,153.566879 196.819108,161.828025 C196.819108,170.242038 201.545223,176.210191 210.335032,176.210191 C212.532484,176.210191 215.876433,175.923567 217.787261,174.77707 L217.978344,177.643312 C216.163057,178.738854 212.436943,179.076433 210.335032,179.076433 C199.825478,179.076433 193.519745,172.146497 193.519745,161.828025 C193.519745,151.700637 200.016561,144.585987 210.335032,144.585987 C212.296815,144.585987 216.258599,144.917197 217.978344,145.828025 L217.787261,148.88535 Z" fill="#FEFEFE"></path><path id="Fill-58" d="M239.666242,176.496815 C244.921019,176.496815 247.742675,171.955414 247.742675,166.318471 C247.742675,160.687898 244.921019,156.146497 239.666242,156.146497 C234.411465,156.146497 231.589809,160.687898 231.589809,166.318471 C231.589809,171.955414 234.411465,176.496815 239.666242,176.496815 M239.666242,153.566879 C247.551592,153.566879 251.035669,159.681529 251.035669,166.318471 C251.035669,172.961783 247.551592,179.076433 239.666242,179.076433 C231.780892,179.076433 228.296815,172.961783 228.296815,166.318471 C228.296815,159.681529 231.780892,153.566879 239.666242,153.566879" fill="#FEFEFE"></path><path id="Fill-59" d="M260.447771,159.870064 C260.447771,158.010191 260.447771,156.099363 260.256688,154.143949 L263.167516,154.143949 L263.167516,158.487898 L263.263057,158.487898 C264.269427,156.290446 266.084713,153.564331 271.148408,153.564331 C277.167516,153.564331 279.46051,157.583439 279.46051,162.927389 L279.46051,178.500637 L276.447771,178.500637 L276.447771,163.698089 C276.447771,159.105732 274.823567,156.143949 270.670701,156.143949 C265.180255,156.143949 263.45414,160.971975 263.45414,165.035669 L263.45414,178.500637 L260.447771,178.500637 L260.447771,159.870064 Z" fill="#FEFEFE"></path><path id="Fill-60" d="M292.789172,156.719745 L287.871975,156.719745 L287.871975,154.140127 L292.789172,154.140127 L292.789172,152.369427 C292.789172,147.261146 292.980255,142.101911 299.235032,142.101911 C300.190446,142.101911 301.483439,142.242038 302.056688,142.579618 L301.865605,145.203822 C301.241401,144.872611 300.336943,144.681529 299.47707,144.681529 C295.36879,144.681529 295.795541,149.121019 295.795541,152.038217 L295.795541,154.140127 L301.292357,154.140127 L301.292357,156.719745 L295.795541,156.719745 L295.795541,178.503185 L292.789172,178.503185 L292.789172,156.719745 Z" fill="#FEFEFE"></path><path id="Fill-61" d="M325.224204,164.600637 C325.224204,160.352229 323.504459,156.142038 319.014013,156.142038 C314.574522,156.142038 311.848408,160.587898 311.848408,164.600637 L325.224204,164.600637 Z M326.701911,177.740764 C324.6,178.600637 321.880255,179.078344 319.638217,179.078344 C311.561783,179.078344 308.549045,173.626115 308.549045,166.320382 C308.549045,158.868153 312.657325,153.56879 318.82293,153.56879 C325.701911,153.56879 328.523567,159.110191 328.523567,165.651592 L328.523567,167.180255 L311.848408,167.180255 C311.848408,172.33949 314.619108,176.498726 319.873885,176.498726 C322.071338,176.498726 325.26879,175.587898 326.701911,174.683439 L326.701911,177.740764 Z" fill="#FEFEFE"></path><path id="Fill-62" d="M347.05414,176.496815 C352.404459,176.496815 354.270701,170.764331 354.270701,166.318471 C354.270701,161.878981 352.404459,156.146497 347.05414,156.146497 C341.321656,156.146497 339.843949,161.592357 339.843949,166.318471 C339.843949,171.050955 341.321656,176.496815 347.05414,176.496815 L347.05414,176.496815 Z M357.27707,178.503185 L354.270701,178.503185 L354.270701,174.636943 L354.175159,174.636943 C352.550955,177.738854 350.066879,179.076433 346.576433,179.076433 C339.888535,179.076433 336.544586,173.535032 336.544586,166.318471 C336.544586,158.917197 339.410828,153.566879 346.576433,153.566879 C351.353503,153.566879 353.742038,157.050955 354.175159,158.248408 L354.270701,158.248408 L354.270701,142.675159 L357.27707,142.675159 L357.27707,178.503185 Z" fill="#FEFEFE"></path><path id="Fill-63" d="M383.121656,164.600637 C383.121656,160.352229 381.401911,156.142038 376.911465,156.142038 C372.471975,156.142038 369.74586,160.587898 369.74586,164.600637 L383.121656,164.600637 Z M384.599363,177.740764 C382.497452,178.600637 379.777707,179.078344 377.535669,179.078344 C369.459236,179.078344 366.446497,173.626115 366.446497,166.320382 C366.446497,158.868153 370.554777,153.56879 376.720382,153.56879 C383.599363,153.56879 386.421019,159.110191 386.421019,165.651592 L386.421019,167.180255 L369.74586,167.180255 C369.74586,172.33949 372.516561,176.498726 377.771338,176.498726 C379.96879,176.498726 383.166242,175.587898 384.599363,174.683439 L384.599363,177.740764 Z" fill="#FEFEFE"></path><path id="Fill-64" d="M395.875796,159.584076 C395.875796,156.908917 395.875796,155.908917 395.684713,154.144586 L398.691083,154.144586 L398.691083,158.819745 L398.792994,158.819745 C399.888535,156.1 401.94586,153.564968 405.047771,153.564968 C405.767516,153.564968 406.621019,153.711465 407.156051,153.851592 L407.156051,157.004459 C406.531847,156.813376 405.716561,156.717834 404.952229,156.717834 C400.175159,156.717834 398.888535,162.068153 398.888535,166.463057 L398.888535,178.501274 L395.875796,178.501274 L395.875796,159.584076 Z" fill="#FEFEFE"></path><path id="Fill-65" d="M429.222293,166.227389 L428.36242,166.227389 C423.152229,166.227389 416.942038,166.749682 416.942038,172.1 C416.942038,175.303822 419.235032,176.494904 422.005732,176.494904 C429.075796,176.494904 429.222293,170.335669 429.222293,167.705096 L429.222293,166.227389 Z M429.508917,174.584076 L429.407006,174.584076 C428.069427,177.501274 424.680892,179.080892 421.668153,179.080892 C414.744586,179.080892 413.649045,174.392994 413.649045,172.195541 C413.649045,164.029936 422.343312,163.647771 428.649045,163.647771 L429.222293,163.647771 L429.222293,162.399363 C429.222293,158.246497 427.738217,156.144586 423.680892,156.144586 C421.14586,156.144586 418.757325,156.717834 416.515287,158.150955 L416.515287,155.233758 C418.375159,154.329299 421.528025,153.564968 423.680892,153.564968 C429.7,153.564968 432.228662,156.284713 432.228662,162.647771 L432.228662,173.392994 C432.228662,175.348408 432.228662,176.832484 432.470701,178.501274 L429.508917,178.501274 L429.508917,174.584076 Z" fill="#FEFEFE"></path><polygon id="Fill-66" fill="#FEFEFE" points="440.875796 175.970701 455.538217 156.722293 441.449045 156.722293 441.449045 154.142675 459.028662 154.142675 459.028662 156.722293 444.359873 175.926115 459.028662 175.926115 459.028662 178.499363 440.875796 178.499363"></polygon><path id="Fill-67" d="M468.063694,178.503185 L471.070064,178.503185 L471.070064,154.140127 L468.063694,154.140127 L468.063694,178.503185 Z M468.057325,147.643312 L471.063694,147.643312 L471.063694,143.630573 L468.057325,143.630573 L468.057325,147.643312 Z" fill="#FEFEFE"></path><path id="Fill-68" d="M491.896178,176.496815 C497.144586,176.496815 499.972611,171.955414 499.972611,166.318471 C499.972611,160.687898 497.144586,156.146497 491.896178,156.146497 C486.635032,156.146497 483.819745,160.687898 483.819745,166.318471 C483.819745,171.955414 486.635032,176.496815 491.896178,176.496815 M491.896178,153.566879 C499.775159,153.566879 503.265605,159.681529 503.265605,166.318471 C503.265605,172.961783 499.775159,179.076433 491.896178,179.076433 C484.010828,179.076433 480.526752,172.961783 480.526752,166.318471 C480.526752,159.681529 484.010828,153.566879 491.896178,153.566879" fill="#FEFEFE"></path><path id="Fill-69" d="M512.671338,159.870064 C512.671338,158.010191 512.671338,156.099363 512.486624,154.143949 L515.397452,154.143949 L515.397452,158.487898 L515.492994,158.487898 C516.492994,156.290446 518.30828,153.564331 523.371975,153.564331 C529.391083,153.564331 531.684076,157.583439 531.684076,162.927389 L531.684076,178.500637 L528.677707,178.500637 L528.677707,163.698089 C528.677707,159.105732 527.053503,156.143949 522.894268,156.143949 C517.397452,156.143949 515.684076,160.971975 515.684076,165.035669 L515.684076,178.500637 L512.671338,178.500637 L512.671338,159.870064 Z" fill="#FEFEFE"></path><path id="Fill-70" d="M557.817197,164.600637 C557.817197,160.352229 556.097452,156.142038 551.607006,156.142038 C547.167516,156.142038 544.441401,160.587898 544.441401,164.600637 L557.817197,164.600637 Z M559.294904,177.740764 C557.192994,178.600637 554.473248,179.078344 552.23121,179.078344 C544.154777,179.078344 541.148408,173.626115 541.148408,166.320382 C541.148408,158.868153 545.250318,153.56879 551.415924,153.56879 C558.294904,153.56879 561.116561,159.110191 561.116561,165.651592 L561.116561,167.180255 L544.441401,167.180255 C544.441401,172.33949 547.212102,176.498726 552.466879,176.498726 C554.670701,176.498726 557.868153,175.587898 559.294904,174.683439 L559.294904,177.740764 Z" fill="#FEFEFE"></path><path id="Fill-71" d="M587.001911,174.250955 C588.970064,175.492994 591.256688,176.212739 594.364968,176.212739 C598.473248,176.212739 601.861783,174.110828 601.861783,169.378344 C601.861783,162.836943 586.581529,162.021656 586.581529,153.282803 C586.581529,147.926115 591.256688,144.588535 597.129299,144.588535 C598.759873,144.588535 601.384076,144.824204 603.67707,145.684076 L603.148408,148.690446 C601.670701,147.881529 599.333121,147.448408 597.084713,147.448408 C593.645223,147.448408 589.874522,148.887898 589.874522,153.180892 C589.874522,159.86879 605.161146,159.919745 605.161146,169.664968 C605.161146,176.397452 599.377707,179.078981 594.218471,179.078981 C590.970064,179.078981 588.441401,178.403822 586.670701,177.63949 L587.001911,174.250955 Z" fill="#FEFEFE"></path><polygon id="Fill-72" fill="#FEFEFE" points="623.645223 178.502548 620.110191 178.502548 611.842675 154.13949 615.142038 154.13949 621.880892 175.203185 621.970064 175.203185 629.046497 154.13949 632.199363 154.13949"></polygon><path id="Fill-73" d="M640.121019,178.503185 L643.133758,178.503185 L643.133758,154.140127 L640.121019,154.140127 L640.121019,178.503185 Z M640.121019,147.643312 L643.133758,147.643312 L643.133758,143.630573 L640.121019,143.630573 L640.121019,147.643312 Z" fill="#FEFEFE"></path><polygon id="Fill-74" fill="#FEFEFE" points="652.214013 175.970701 666.876433 156.722293 652.787261 156.722293 652.787261 154.142675 670.366879 154.142675 670.366879 156.722293 655.698089 175.926115 670.366879 175.926115 670.366879 178.499363 652.214013 178.499363"></polygon><polygon id="Fill-75" fill="#FEFEFE" points="677.144586 175.970701 691.813376 156.722293 677.717834 156.722293 677.717834 154.142675 695.297452 154.142675 695.297452 156.722293 680.635032 175.926115 695.297452 175.926115 695.297452 178.499363 677.144586 178.499363"></polygon><path id="Fill-76" d="M719.180255,164.600637 C719.180255,160.352229 717.46051,156.142038 712.970064,156.142038 C708.530573,156.142038 705.804459,160.587898 705.804459,164.600637 L719.180255,164.600637 Z M720.664331,177.740764 C718.56242,178.600637 715.842675,179.078344 713.594268,179.078344 C705.517834,179.078344 702.511465,173.626115 702.511465,166.320382 C702.511465,158.868153 706.619745,153.56879 712.78535,153.56879 C719.664331,153.56879 722.479618,159.110191 722.479618,165.651592 L722.479618,167.180255 L705.804459,167.180255 C705.804459,172.33949 708.581529,176.498726 713.829936,176.498726 C716.033758,176.498726 719.23121,175.587898 720.664331,174.683439 L720.664331,177.740764 Z" fill="#FEFEFE"></path><path id="Fill-77" d="M731.93758,159.584076 C731.93758,156.908917 731.93758,155.908917 731.746497,154.144586 L734.752866,154.144586 L734.752866,158.819745 L734.854777,158.819745 C735.950318,156.1 738.001274,153.564968 741.109554,153.564968 C741.829299,153.564968 742.682803,153.711465 743.217834,153.851592 L743.217834,157.004459 C742.593631,156.813376 741.784713,156.717834 741.014013,156.717834 C736.236943,156.717834 734.950318,162.068153 734.950318,166.463057 L734.950318,178.501274 L731.93758,178.501274 L731.93758,159.584076 Z" fill="#FEFEFE"></path><path id="Fill-78" d="M765.284076,166.227389 L764.424204,166.227389 C759.214013,166.227389 753.003822,166.749682 753.003822,172.1 C753.003822,175.303822 755.303185,176.494904 758.067516,176.494904 C765.143949,176.494904 765.284076,170.335669 765.284076,167.705096 L765.284076,166.227389 Z M765.570701,174.584076 L765.46879,174.584076 C764.13758,177.501274 760.742675,179.080892 757.729936,179.080892 C750.812739,179.080892 749.710828,174.392994 749.710828,172.195541 C749.710828,164.029936 758.405096,163.647771 764.710828,163.647771 L765.284076,163.647771 L765.284076,162.399363 C765.284076,158.246497 763.806369,156.144586 759.742675,156.144586 C757.207643,156.144586 754.819108,156.717834 752.57707,158.150955 L752.57707,155.233758 C754.436943,154.329299 757.596178,153.564968 759.742675,153.564968 C765.755414,153.564968 768.296815,156.284713 768.296815,162.647771 L768.296815,173.392994 C768.296815,175.348408 768.296815,176.832484 768.532484,178.501274 L765.570701,178.501274 L765.570701,174.584076 Z" fill="#FEFEFE"></path><path id="Fill-79" d="M217.787261,214.806369 C215.68535,213.704459 212.678981,213.373248 210.335032,213.373248 C201.69172,213.373248 196.819108,219.481529 196.819108,227.749045 C196.819108,236.163057 201.545223,242.13121 210.335032,242.13121 C212.532484,242.13121 215.876433,241.844586 217.787261,240.69172 L217.978344,243.570701 C216.163057,244.659873 212.436943,244.997452 210.335032,244.997452 C199.825478,244.997452 193.519745,238.067516 193.519745,227.749045 C193.519745,217.621656 200.016561,210.507006 210.335032,210.507006 C212.296815,210.507006 216.258599,210.838217 217.978344,211.749045 L217.787261,214.806369 Z" fill="#FEFEFE"></path><path id="Fill-80" d="M239.666242,242.417834 C244.921019,242.417834 247.742675,237.882803 247.742675,232.23949 C247.742675,226.608917 244.921019,222.067516 239.666242,222.067516 C234.411465,222.067516 231.589809,226.608917 231.589809,232.23949 C231.589809,237.882803 234.411465,242.417834 239.666242,242.417834 M239.666242,219.481529 C247.551592,219.481529 251.035669,225.602548 251.035669,232.23949 C251.035669,238.876433 247.551592,244.997452 239.666242,244.997452 C231.780892,244.997452 228.296815,238.876433 228.296815,232.23949 C228.296815,225.602548 231.780892,219.481529 239.666242,219.481529" fill="#FEFEFE"></path><path id="Fill-81" d="M260.447771,225.791083 C260.447771,223.93121 260.447771,222.020382 260.256688,220.058599 L263.167516,220.058599 L263.167516,224.408917 L263.263057,224.408917 C264.269427,222.211465 266.084713,219.48535 271.148408,219.48535 C277.167516,219.48535 279.46051,223.504459 279.46051,228.848408 L279.46051,244.428025 L276.447771,244.428025 L276.447771,229.612739 C276.447771,225.033121 274.823567,222.064968 270.670701,222.064968 C265.180255,222.064968 263.45414,226.892994 263.45414,230.956688 L263.45414,244.428025 L260.447771,244.428025 L260.447771,225.791083 Z" fill="#FEFEFE"></path><path id="Fill-82" d="M292.789172,222.643949 L287.871975,222.643949 L287.871975,220.057962 L292.789172,220.057962 L292.789172,218.287261 C292.789172,213.18535 292.980255,208.019745 299.235032,208.019745 C300.190446,208.019745 301.483439,208.166242 302.056688,208.497452 L301.865605,211.121656 C301.241401,210.796815 300.336943,210.599363 299.47707,210.599363 C295.36879,210.599363 295.795541,215.045223 295.795541,217.96242 L295.795541,220.057962 L301.292357,220.057962 L301.292357,222.643949 L295.795541,222.643949 L295.795541,244.427389 L292.789172,244.427389 L292.789172,222.643949 Z" fill="#FEFEFE"></path><path id="Fill-83" d="M325.224204,230.518471 C325.224204,226.270064 323.504459,222.066242 319.014013,222.066242 C314.574522,222.066242 311.848408,226.512102 311.848408,230.518471 L325.224204,230.518471 Z M326.701911,243.658599 C324.6,244.518471 321.880255,244.996178 319.638217,244.996178 C311.561783,244.996178 308.549045,239.550318 308.549045,232.244586 C308.549045,224.792357 312.657325,219.486624 318.82293,219.486624 C325.701911,219.486624 328.523567,225.034395 328.523567,231.575796 L328.523567,233.104459 L311.848408,233.104459 C311.848408,238.263694 314.619108,242.416561 319.873885,242.416561 C322.071338,242.416561 325.26879,241.512102 326.701911,240.601274 L326.701911,243.658599 Z" fill="#FEFEFE"></path><path id="Fill-84" d="M347.05414,242.417834 C352.404459,242.417834 354.270701,236.69172 354.270701,232.23949 C354.270701,227.8 352.404459,222.067516 347.05414,222.067516 C341.321656,222.067516 339.843949,227.513376 339.843949,232.23949 C339.843949,236.978344 341.321656,242.417834 347.05414,242.417834 L347.05414,242.417834 Z M357.27707,244.424204 L354.270701,244.424204 L354.270701,240.557962 L354.175159,240.557962 C352.550955,243.653503 350.066879,244.997452 346.576433,244.997452 C339.888535,244.997452 336.544586,239.456051 336.544586,232.23949 C336.544586,224.831847 339.410828,219.481529 346.576433,219.481529 C351.353503,219.481529 353.742038,222.971975 354.175159,224.169427 L354.270701,224.169427 L354.270701,208.596178 L357.27707,208.596178 L357.27707,244.424204 Z" fill="#FEFEFE"></path><path id="Fill-85" d="M383.121656,230.518471 C383.121656,226.270064 381.401911,222.066242 376.911465,222.066242 C372.471975,222.066242 369.74586,226.512102 369.74586,230.518471 L383.121656,230.518471 Z M384.599363,243.658599 C382.497452,244.518471 379.777707,244.996178 377.535669,244.996178 C369.459236,244.996178 366.446497,239.550318 366.446497,232.244586 C366.446497,224.792357 370.554777,219.486624 376.720382,219.486624 C383.599363,219.486624 386.421019,225.034395 386.421019,231.575796 L386.421019,233.104459 L369.74586,233.104459 C369.74586,238.263694 372.516561,242.416561 377.771338,242.416561 C379.96879,242.416561 383.166242,241.512102 384.599363,240.601274 L384.599363,243.658599 Z" fill="#FEFEFE"></path><path id="Fill-86" d="M395.875796,225.505096 C395.875796,222.829936 395.875796,221.829936 395.684713,220.059236 L398.691083,220.059236 L398.691083,224.747134 L398.792994,224.747134 C399.888535,222.021019 401.94586,219.485987 405.047771,219.485987 C405.767516,219.485987 406.621019,219.632484 407.156051,219.772611 L407.156051,222.931847 C406.531847,222.734395 405.716561,222.645223 404.952229,222.645223 C400.175159,222.645223 398.888535,227.995541 398.888535,232.384076 L398.888535,244.428662 L395.875796,244.428662 L395.875796,225.505096 Z" fill="#FEFEFE"></path><path id="Fill-87" d="M429.222293,232.148408 L428.36242,232.148408 C423.152229,232.148408 416.942038,232.670701 416.942038,238.021019 C416.942038,241.224841 419.235032,242.415924 422.005732,242.415924 C429.075796,242.415924 429.222293,236.256688 429.222293,233.626115 L429.222293,232.148408 Z M429.508917,240.505096 L429.407006,240.505096 C428.069427,243.422293 424.680892,245.001911 421.668153,245.001911 C414.744586,245.001911 413.649045,240.314013 413.649045,238.116561 C413.649045,229.944586 422.343312,229.56879 428.649045,229.56879 L429.222293,229.56879 L429.222293,228.326752 C429.222293,224.167516 427.738217,222.065605 423.680892,222.065605 C421.14586,222.065605 418.757325,222.645223 416.515287,224.071975 L416.515287,221.161146 C418.375159,220.256688 421.528025,219.485987 423.680892,219.485987 C429.7,219.485987 432.228662,222.205732 432.228662,228.56879 L432.228662,239.314013 C432.228662,241.269427 432.228662,242.747134 432.470701,244.428662 L429.508917,244.428662 L429.508917,240.505096 Z" fill="#FEFEFE"></path><polygon id="Fill-88" fill="#FEFEFE" points="440.875796 241.889172 455.538217 222.647134 441.449045 222.647134 441.449045 220.054777 459.028662 220.054777 459.028662 222.647134 444.359873 241.844586 459.028662 241.844586 459.028662 244.424204 440.875796 244.424204"></polygon><path id="Fill-89" d="M468.063694,244.426752 L471.070064,244.426752 L471.070064,220.057325 L468.063694,220.057325 L468.063694,244.426752 Z M468.057325,213.56051 L471.063694,213.56051 L471.063694,209.547771 L468.057325,209.547771 L468.057325,213.56051 Z" fill="#FEFEFE"></path><path id="Fill-90" d="M501.400637,238.69172 C501.400637,240.557962 501.400637,242.46242 501.58535,244.424204 L498.674522,244.424204 L498.674522,240.073885 L498.58535,240.073885 C497.578981,242.271338 495.763694,244.997452 490.7,244.997452 C484.680892,244.997452 482.387898,240.978344 482.387898,235.634395 L482.387898,220.054777 L485.394268,220.054777 L485.394268,234.870064 C485.394268,239.456051 487.018471,242.417834 491.177707,242.417834 C496.674522,242.417834 498.387898,237.589809 498.387898,233.526115 L498.387898,220.054777 L501.400637,220.054777 L501.400637,238.69172 Z" fill="#FEFEFE"></path><path id="Fill-91" d="M512.671338,225.791083 C512.671338,223.93121 512.671338,222.020382 512.486624,220.058599 L515.397452,220.058599 L515.397452,224.408917 L515.492994,224.408917 C516.492994,222.211465 518.30828,219.48535 523.371975,219.48535 C529.391083,219.48535 531.684076,223.504459 531.684076,228.848408 L531.684076,244.428025 L528.677707,244.428025 L528.677707,229.612739 C528.677707,225.033121 527.053503,222.064968 522.894268,222.064968 C517.397452,222.064968 515.684076,226.892994 515.684076,230.956688 L515.684076,244.428025 L512.671338,244.428025 L512.671338,225.791083 Z" fill="#FEFEFE"></path><path id="Fill-92" d="M558.103185,240.887261 C559.918471,241.798089 562.122293,242.415924 564.459873,242.415924 C567.319745,242.415924 569.861146,240.842675 569.861146,238.071975 C569.861146,232.288535 558.15414,233.192994 558.15414,226.129299 C558.15414,221.301274 562.071338,219.485987 566.084076,219.485987 C567.370701,219.485987 569.950318,219.772611 572.096815,220.581529 L571.810191,223.218471 C570.236943,222.492357 568.090446,222.065605 566.415287,222.065605 C563.313376,222.065605 561.16051,223.021019 561.16051,226.129299 C561.16051,230.670701 573.15414,230.097452 573.15414,238.071975 C573.15414,243.23121 568.326115,245.001911 564.644586,245.001911 C562.307006,245.001911 559.969427,244.715287 557.816561,243.855414 L558.103185,240.887261 Z" fill="#FEFEFE"></path><polygon id="Fill-93" fill="#FEFEFE" points="590.734395 244.426752 587.199363 244.426752 578.925478 220.057325 582.224841 220.057325 588.970064 241.127389 589.059236 241.127389 596.135669 220.057325 599.282166 220.057325"></polygon><path id="Fill-94" d="M607.203822,244.426752 L610.216561,244.426752 L610.216561,220.057325 L607.203822,220.057325 L607.203822,244.426752 Z M607.203822,213.56051 L610.216561,213.56051 L610.216561,209.547771 L607.203822,209.547771 L607.203822,213.56051 Z" fill="#FEFEFE"></path><polygon id="Fill-95" fill="#FEFEFE" points="619.297452 241.889172 633.966242 222.647134 619.870701 222.647134 619.870701 220.054777 637.450318 220.054777 637.450318 222.647134 622.781529 241.844586 637.450318 241.844586 637.450318 244.424204 619.297452 244.424204"></polygon><path id="Fill-96" d="M646.478981,225.505096 C646.478981,222.829936 646.478981,221.829936 646.287898,220.059236 L649.294268,220.059236 L649.294268,224.747134 L649.389809,224.747134 C650.49172,222.021019 652.542675,219.485987 655.644586,219.485987 C656.370701,219.485987 657.224204,219.632484 657.752866,219.772611 L657.752866,222.931847 C657.128662,222.734395 656.319745,222.645223 655.555414,222.645223 C650.778344,222.645223 649.49172,227.995541 649.49172,232.384076 L649.49172,244.428662 L646.478981,244.428662 L646.478981,225.505096 Z" fill="#FEFEFE"></path><path id="Fill-97" d="M679.819108,232.148408 L678.959236,232.148408 C673.755414,232.148408 667.538854,232.670701 667.538854,238.021019 C667.538854,241.224841 669.844586,242.415924 672.602548,242.415924 C679.68535,242.415924 679.819108,236.256688 679.819108,233.626115 L679.819108,232.148408 Z M680.105732,240.505096 L680.010191,240.505096 C678.672611,243.422293 675.284076,245.001911 672.271338,245.001911 C665.35414,245.001911 664.24586,240.314013 664.24586,238.116561 C664.24586,229.944586 672.940127,229.56879 679.24586,229.56879 L679.819108,229.56879 L679.819108,228.326752 C679.819108,224.167516 678.341401,222.065605 674.284076,222.065605 C671.742675,222.065605 669.35414,222.645223 667.118471,224.071975 L667.118471,221.161146 C668.978344,220.256688 672.13121,219.485987 674.284076,219.485987 C680.296815,219.485987 682.831847,222.205732 682.831847,228.56879 L682.831847,239.314013 C682.831847,241.269427 682.831847,242.747134 683.067516,244.428662 L680.105732,244.428662 L680.105732,240.505096 Z" fill="#FEFEFE"></path><path id="Fill-98" d="M212.580892,349.043312 C210.478981,348.132484 208.141401,347.603822 205.797452,347.603822 C203.504459,347.603822 200.542675,348.616561 200.542675,352.247134 C200.542675,358.017834 215.16051,355.584713 215.16051,366.763057 C215.16051,374.075159 209.383439,376.83949 202.644586,376.83949 C199.014013,376.83949 197.389809,376.368153 194.096815,375.559236 L194.71465,369.540127 C197.007643,370.782166 199.638217,371.591083 202.26242,371.591083 C204.791083,371.591083 208.185987,370.298089 208.185987,367.28535 C208.185987,360.935032 193.568153,363.565605 193.568153,352.533758 C193.568153,345.081529 199.351592,342.355414 205.224204,342.355414 C208.090446,342.355414 210.765605,342.73758 213.205096,343.552866 L212.580892,349.043312 Z" fill="#FEFEFE"></path><polygon id="Fill-99" fill="#FEFEFE" points="218.601911 351.674522 225.378981 351.674522 230.83121 369.871975 230.926752 369.871975 235.894904 351.674522 243.347134 351.674522 248.697452 369.871975 248.792994 369.871975 253.901274 351.674522 260.015924 351.674522 252.468153 376.266879 244.920382 376.266879 239.570064 357.496178 239.474522 357.496178 234.219745 376.266879 226.914013 376.266879"></polygon><path id="Fill-100" d="M264.700637,376.267516 L271.101911,376.267516 L271.101911,351.675159 L264.700637,351.675159 L264.700637,376.267516 Z M264.700637,347.184713 L271.101911,347.184713 L271.101911,341.063694 L264.700637,341.063694 L264.700637,347.184713 Z" fill="#FEFEFE"></path><path id="Fill-101" d="M293.16879,356.824841 C291.213376,356.16242 289.780255,355.780255 287.442675,355.780255 C285.716561,355.780255 283.665605,356.404459 283.665605,358.506369 C283.665605,362.423567 294.792994,359.933121 294.792994,368.818471 C294.792994,374.550955 289.684713,376.843949 284.474522,376.843949 C282.041401,376.843949 279.557325,376.417197 277.213376,375.799363 L277.595541,370.538217 C279.601911,371.544586 281.703822,372.16242 283.901274,372.16242 C285.525478,372.16242 288.105096,371.544586 288.105096,369.156051 C288.105096,364.328025 276.977707,367.621019 276.977707,358.742038 C276.977707,353.442675 281.61465,351.098726 286.627389,351.098726 C289.633758,351.098726 291.595541,351.576433 293.601911,352.003185 L293.16879,356.824841 Z" fill="#FEFEFE"></path><path id="Fill-102" d="M315.094904,356.824841 C313.13949,356.16242 311.706369,355.780255 309.36879,355.780255 C307.642675,355.780255 305.59172,356.404459 305.59172,358.506369 C305.59172,362.423567 316.719108,359.933121 316.719108,368.818471 C316.719108,374.550955 311.610828,376.843949 306.400637,376.843949 C303.967516,376.843949 301.483439,376.417197 299.13949,375.799363 L299.521656,370.538217 C301.528025,371.544586 303.629936,372.16242 305.827389,372.16242 C307.451592,372.16242 310.03121,371.544586 310.03121,369.156051 C310.03121,364.328025 298.903822,367.621019 298.903822,358.742038 C298.903822,353.442675 303.540764,351.098726 308.553503,351.098726 C311.559873,351.098726 313.521656,351.576433 315.528025,352.003185 L315.094904,356.824841 Z" fill="#FEFEFE"></path><path id="Fill-103" d="M350.207643,349.615287 L350.112102,349.615287 L345.290446,363.373248 L355.035669,363.373248 L350.207643,349.615287 Z M346.526115,342.927389 L354.073885,342.927389 L367.169427,376.271338 L359.761783,376.271338 L356.895541,368.628025 L343.379618,368.628025 L340.46242,376.271338 L333.532484,376.271338 L346.526115,342.927389 Z" fill="#FEFEFE"></path><path id="Fill-104" d="M387.801911,363.704459 C387.801911,359.507006 386.177707,356.067516 382.451592,356.067516 C378.107643,356.067516 376.719108,360.080255 376.719108,363.850955 C376.719108,367.201274 378.483439,371.303185 382.164968,371.303185 C386.177707,371.303185 387.801911,367.819108 387.801911,363.704459 L387.801911,363.704459 Z M394.203185,351.672611 L394.203185,373.882803 C394.203185,380.570701 391.528025,386.882803 381.209554,386.882803 C378.674522,386.882803 375.763694,386.494268 372.706369,385.201274 L373.228662,379.761783 C375.190446,380.812739 378.387898,381.901911 380.394268,381.901911 C387.464331,381.901911 387.801911,376.602548 387.801911,372.347771 L387.706369,372.347771 C386.508917,374.449682 383.649045,376.271338 380.063057,376.271338 C372.801911,376.271338 370.03121,370.449682 370.03121,363.850955 C370.03121,357.933758 373.088535,351.099363 380.445223,351.099363 C383.693631,351.099363 386.222293,352.194904 387.992994,355.016561 L388.088535,355.016561 L388.088535,351.672611 L394.203185,351.672611 Z" fill="#FEFEFE"></path><path id="Fill-105" d="M416.940127,361.557962 C416.749045,358.456051 415.315924,355.780892 411.736306,355.780892 C408.150318,355.780892 406.335032,358.258599 406.048408,361.557962 L416.940127,361.557962 Z M421.23949,374.889172 C418.901911,376.175796 416.226752,376.838217 412.787261,376.838217 C404.666242,376.838217 399.933758,372.163057 399.933758,364.086624 C399.933758,356.971975 403.704459,351.092994 411.35414,351.092994 C420.475159,351.092994 423.054777,357.35414 423.054777,365.952866 L406.048408,365.952866 C406.335032,369.91465 409.105732,372.163057 413.073885,372.163057 C416.175796,372.163057 418.850955,371.016561 421.23949,369.672611 L421.23949,374.889172 Z" fill="#FEFEFE"></path><path id="Fill-106" d="M428.786624,351.674522 L434.856688,351.674522 L434.856688,355.012102 L434.952229,355.012102 C436.958599,352.196815 439.678344,351.094904 443.022293,351.094904 C448.850318,351.094904 451.38535,355.209554 451.38535,360.744586 L451.38535,376.266879 L444.984076,376.266879 L444.984076,363.133121 C444.984076,360.120382 444.933121,356.063057 440.824841,356.063057 C436.194268,356.063057 435.187898,361.082166 435.187898,364.235032 L435.187898,376.266879 L428.786624,376.266879 L428.786624,351.674522 Z" fill="#FEFEFE"></path><path id="Fill-107" d="M474.647771,356.973885 C473.501274,356.451592 472.259236,356.063057 470.297452,356.063057 C466.335669,356.063057 463.807006,359.215924 463.807006,363.852866 C463.807006,368.394268 465.953503,371.878344 470.443949,371.878344 C472.259236,371.878344 474.265605,371.203185 475.361146,370.731847 L475.647771,376.03121 C473.787898,376.604459 471.87707,376.840127 469.246497,376.840127 C461.176433,376.840127 457.119108,371.356051 457.119108,363.852866 C457.119108,356.738217 461.316561,351.094904 469.010828,351.094904 C471.596815,351.094904 473.456688,351.381529 475.221019,351.910191 L474.647771,356.973885 Z" fill="#FEFEFE"></path><path id="Fill-108" d="M490.838854,369.631847 L490.940764,369.631847 L496.857962,351.676433 L503.354777,351.676433 L494.138217,376.084076 C492.080892,381.529936 490.603185,386.880255 483.915287,386.880255 C482.386624,386.880255 480.857962,386.638217 479.373885,386.211465 L479.807006,381.478981 C480.622293,381.765605 481.526752,381.905732 483.1,381.905732 C485.679618,381.905732 487.259236,380.135032 487.259236,377.510828 L477.851592,351.676433 L484.915287,351.676433 L490.838854,369.631847 Z" fill="#FEFEFE"></path><path id="Fill-109" d="M524.228662,356.352229 L519.502548,356.352229 L519.502548,351.67707 L524.228662,351.67707 L524.228662,348.23121 C524.228662,343.314013 527.005732,339.868153 532.063057,339.868153 C533.693631,339.868153 535.508917,340.103822 536.750955,340.396815 L536.222293,345.702548 C535.649045,345.364968 534.840127,344.836306 533.451592,344.836306 C531.305096,344.836306 530.636306,346.696178 530.636306,348.613376 L530.636306,351.67707 L536.222293,351.67707 L536.222293,356.352229 L530.636306,356.352229 L530.636306,376.269427 L524.228662,376.269427 L524.228662,356.352229 Z" fill="#FEFEFE"></path><path id="Fill-110" d="M552.468153,371.877707 C557.378981,371.877707 558.678344,367.489172 558.678344,363.374522 C558.678344,359.597452 556.671975,356.06879 552.468153,356.06879 C548.308917,356.06879 546.296178,359.699363 546.296178,363.374522 C546.296178,367.438217 547.589172,371.877707 552.468153,371.877707 M552.468153,351.094268 C559.767516,351.094268 565.359873,356.017834 565.359873,364.138854 C565.359873,371.208917 560.627389,376.83949 552.468153,376.83949 C544.347134,376.83949 539.61465,371.208917 539.61465,364.138854 C539.61465,356.017834 545.200637,351.094268 552.468153,351.094268" fill="#FEFEFE"></path><path id="Fill-111" d="M571.240127,351.674522 L576.928025,351.674522 L576.928025,357.26051 L577.017197,357.26051 C577.310191,354.967516 579.934395,351.094904 583.756051,351.094904 C584.380255,351.094904 585.049045,351.094904 585.711465,351.285987 L585.711465,357.731847 C585.144586,357.400637 583.99172,357.209554 582.845223,357.209554 C577.641401,357.209554 577.641401,363.706369 577.641401,367.241401 L577.641401,376.266879 L571.240127,376.266879 L571.240127,351.674522 Z" fill="#FEFEFE"></path><path id="Fill-112" d="M611.652866,371.019108 L615.378981,371.019108 C620.964968,371.019108 626.366242,366.866242 626.366242,359.598726 C626.366242,352.33758 620.964968,348.178344 615.378981,348.178344 L611.652866,348.178344 L611.652866,371.019108 Z M604.964968,342.929936 L614.085987,342.929936 C624.308917,342.929936 633.340764,346.369427 633.340764,359.598726 C633.340764,372.834395 624.308917,376.267516 614.085987,376.267516 L604.964968,376.267516 L604.964968,342.929936 Z" fill="#FEFEFE"></path><path id="Fill-113" d="M655.025478,361.557962 C654.840764,358.456051 653.401274,355.780892 649.821656,355.780892 C646.235669,355.780892 644.420382,358.258599 644.133758,361.557962 L655.025478,361.557962 Z M659.33121,374.889172 C656.987261,376.175796 654.312102,376.838217 650.872611,376.838217 C642.745223,376.838217 638.019108,372.163057 638.019108,364.086624 C638.019108,356.971975 641.789809,351.092994 649.43949,351.092994 C658.56051,351.092994 661.140127,357.35414 661.140127,365.952866 L644.133758,365.952866 C644.420382,369.91465 647.191083,372.163057 651.159236,372.163057 C654.261146,372.163057 656.942675,371.016561 659.33121,369.672611 L659.33121,374.889172 Z" fill="#FEFEFE"></path><polygon id="Fill-114" fill="#FEFEFE" points="664.150955 351.674522 671.029936 351.674522 677.144586 369.59172 677.246497 369.59172 683.163694 351.674522 689.564968 351.674522 680.488535 376.266879 673.278344 376.266879"></polygon><path id="Fill-115" d="M709.582803,361.557962 C709.39172,358.456051 707.958599,355.780892 704.378981,355.780892 C700.792994,355.780892 698.977707,358.258599 698.691083,361.557962 L709.582803,361.557962 Z M713.882166,374.889172 C711.544586,376.175796 708.869427,376.838217 705.429936,376.838217 C697.308917,376.838217 692.576433,372.163057 692.576433,364.086624 C692.576433,356.971975 696.353503,351.092994 703.990446,351.092994 C713.124204,351.092994 715.697452,357.35414 715.697452,365.952866 L698.691083,365.952866 C698.977707,369.91465 701.754777,372.163057 705.716561,372.163057 C708.818471,372.163057 711.493631,371.016561 713.882166,369.672611 L713.882166,374.889172 Z" fill="#FEFEFE"></path><polygon id="Fill-116" fill="#FEFEFE" points="721.566879 376.267516 727.974522 376.267516 727.974522 340.43949 721.566879 340.43949"></polygon><path id="Fill-117" d="M746.698089,371.877707 C751.621656,371.877707 752.91465,367.489172 752.91465,363.374522 C752.91465,359.597452 750.901911,356.06879 746.698089,356.06879 C742.545223,356.06879 740.538854,359.699363 740.538854,363.374522 C740.538854,367.438217 741.825478,371.877707 746.698089,371.877707 M746.698089,351.094268 C754.010191,351.094268 759.596178,356.017834 759.596178,364.138854 C759.596178,371.208917 754.870064,376.83949 746.698089,376.83949 C738.583439,376.83949 733.844586,371.208917 733.844586,364.138854 C733.844586,356.017834 739.436943,351.094268 746.698089,351.094268" fill="#FEFEFE"></path><path id="Fill-118" d="M771.777707,363.903185 C771.777707,367.387261 773.166242,371.877707 777.41465,371.877707 C781.618471,371.877707 782.809554,367.28535 782.809554,363.903185 C782.809554,360.603822 781.669427,356.06879 777.510191,356.06879 C773.40828,356.06879 771.777707,360.457325 771.777707,363.903185 L771.777707,363.903185 Z M765.331847,351.673885 L771.440127,351.673885 L771.440127,355.157962 L771.542038,355.157962 C772.96879,352.769427 775.40828,351.094268 779.178981,351.094268 C786.733121,351.094268 789.503822,357.119745 789.503822,363.903185 C789.503822,370.635669 786.733121,376.83949 779.045223,376.83949 C776.319108,376.83949 774.070701,376.17707 771.828662,373.457325 L771.726752,373.457325 L771.726752,386.310828 L765.331847,386.310828 L765.331847,351.673885 Z" fill="#FEFEFE"></path><path id="Fill-119" d="M795.140764,351.674522 L801.108917,351.674522 L801.108917,355.107643 L801.204459,355.107643 C803.217197,352.094904 806.128025,351.094904 808.516561,351.094904 C811.956051,351.094904 814.382803,352.381529 815.777707,355.445223 C817.261783,352.483439 820.459236,351.094904 823.465605,351.094904 C829.529299,351.094904 831.255414,355.25414 831.255414,360.744586 L831.255414,376.266879 L824.847771,376.266879 L824.847771,361.604459 C824.847771,359.311465 824.847771,356.063057 821.172611,356.063057 C816.924204,356.063057 816.395541,361.126752 816.395541,364.324204 L816.395541,376.266879 L809.994268,376.266879 L809.994268,361.604459 C809.994268,359.311465 809.994268,356.063057 806.312739,356.063057 C802.064331,356.063057 801.535669,361.126752 801.535669,364.324204 L801.535669,376.266879 L795.140764,376.266879 L795.140764,351.674522 Z" fill="#FEFEFE"></path><path id="Fill-120" d="M853.846497,361.557962 C853.661783,358.456051 852.222293,355.780892 848.642675,355.780892 C845.056688,355.780892 843.241401,358.258599 842.954777,361.557962 L853.846497,361.557962 Z M858.152229,374.889172 C855.80828,376.175796 853.133121,376.838217 849.693631,376.838217 C841.566242,376.838217 836.840127,372.163057 836.840127,364.086624 C836.840127,356.971975 840.610828,351.092994 848.26051,351.092994 C857.381529,351.092994 859.961146,357.35414 859.961146,365.952866 L842.954777,365.952866 C843.241401,369.91465 846.012102,372.163057 849.980255,372.163057 C853.082166,372.163057 855.763694,371.016561 858.152229,369.672611 L858.152229,374.889172 Z" fill="#FEFEFE"></path><path id="Fill-121" d="M865.695541,351.674522 L871.759236,351.674522 L871.759236,355.012102 L871.861146,355.012102 C873.861146,352.196815 876.587261,351.094904 879.93121,351.094904 C885.752866,351.094904 888.294268,355.209554 888.294268,360.744586 L888.294268,376.266879 L881.886624,376.266879 L881.886624,363.133121 C881.886624,360.120382 881.842038,356.063057 877.733758,356.063057 C873.103185,356.063057 872.096815,361.082166 872.096815,364.235032 L872.096815,376.266879 L865.695541,376.266879 L865.695541,351.674522 Z" fill="#FEFEFE"></path><path id="Fill-122" d="M897.698089,356.352229 L892.971975,356.352229 L892.971975,351.67707 L897.698089,351.67707 L897.698089,346.747134 L904.105732,344.696178 L904.105732,351.67707 L909.787261,351.67707 L909.787261,356.352229 L904.105732,356.352229 L904.105732,367.817197 C904.105732,369.919108 904.678981,371.880892 907.118471,371.880892 C908.258599,371.880892 909.35414,371.638854 910.029299,371.205732 L910.214013,376.269427 C908.882803,376.657962 907.398726,376.842675 905.487898,376.842675 C900.475159,376.842675 897.698089,373.740764 897.698089,368.868153 L897.698089,356.352229 Z" fill="#FEFEFE"></path><path id="Fill-123" d="M202.690446,438.084713 C204.652229,438.084713 206.180892,437.224841 207.180892,435.880892 C208.231847,434.505096 208.518471,432.734395 208.518471,430.817197 L205.747771,430.817197 C202.881529,430.817197 198.633121,431.307643 198.633121,435.071975 C198.633121,437.173885 200.403822,438.084713 202.690446,438.084713 L202.690446,438.084713 Z M195.193631,418.874522 C197.677707,417.734395 201.021656,417.01465 203.741401,417.01465 C211.244586,417.01465 214.346497,420.12293 214.346497,427.384076 L214.346497,430.530573 C214.346497,433.021019 214.397452,434.887261 214.442038,436.702548 C214.492994,438.56242 214.588535,440.288535 214.735032,442.192994 L209.09172,442.192994 C208.856051,440.9 208.856051,439.275796 208.805096,438.511465 L208.709554,438.511465 C207.231847,441.23758 204.028025,442.759873 201.117197,442.759873 C196.766879,442.759873 192.518471,440.135669 192.518471,435.46051 C192.518471,431.778981 194.289172,429.626115 196.722293,428.428662 C199.155414,427.23758 202.30828,427.001911 204.983439,427.001911 L208.518471,427.001911 C208.518471,423.040127 206.75414,421.702548 202.97707,421.702548 C200.257325,421.702548 197.53121,422.747134 195.384713,424.377707 L195.193631,418.874522 Z" fill="#FEFEFE"></path><path id="Fill-124" d="M221.370064,417.595541 L227.440127,417.595541 L227.440127,420.933121 L227.535669,420.933121 C229.542038,418.117834 232.261783,417.015924 235.605732,417.015924 C241.433758,417.015924 243.96879,421.130573 243.96879,426.665605 L243.96879,442.187898 L237.567516,442.187898 L237.567516,429.05414 C237.567516,426.041401 237.516561,421.984076 233.40828,421.984076 C228.777707,421.984076 227.771338,427.003185 227.771338,430.156051 L227.771338,442.187898 L221.370064,442.187898 L221.370064,417.595541 Z" fill="#FEFEFE"></path><path id="Fill-125" d="M261.78535,437.798726 C266.033758,437.798726 267.422293,433.30828 267.422293,429.824204 C267.422293,426.378344 265.798089,421.989809 261.689809,421.989809 C257.536943,421.989809 256.390446,426.524841 256.390446,429.824204 C256.390446,433.206369 257.581529,437.798726 261.78535,437.798726 L261.78535,437.798726 Z M267.657962,439.42293 L267.56879,439.42293 C265.651592,441.811465 263.027389,442.76051 260.01465,442.76051 C252.473248,442.76051 249.702548,436.556688 249.702548,429.824204 C249.702548,423.040764 252.473248,417.015287 260.01465,417.015287 C263.218471,417.015287 265.466879,418.117197 267.371338,420.454777 L267.473248,420.454777 L267.473248,406.359236 L273.868153,406.359236 L273.868153,442.187261 L267.657962,442.187261 L267.657962,439.42293 Z" fill="#FEFEFE"></path><path id="Fill-126" d="M320.015287,441.717197 C317.582166,442.290446 314.951592,442.761783 312.42293,442.761783 C301.626752,442.761783 294.129936,437.366879 294.129936,426.092994 C294.129936,414.678981 301.098089,408.277707 312.42293,408.277707 C314.620382,408.277707 317.53121,408.704459 319.970701,409.659873 L319.492994,415.296815 C316.964331,413.863694 314.664968,413.526115 312.276433,413.526115 C305.397452,413.526115 301.098089,418.787261 301.098089,425.621656 C301.098089,432.398726 305.301911,437.513376 312.42293,437.513376 C315.047134,437.513376 318.155414,436.940127 319.728662,436.124841 L320.015287,441.717197 Z" fill="#FEFEFE"></path><path id="Fill-127" d="M336.355414,437.798726 C341.272611,437.798726 342.565605,433.410191 342.565605,429.295541 C342.565605,425.518471 340.559236,421.989809 336.355414,421.989809 C332.202548,421.989809 330.189809,425.620382 330.189809,429.295541 C330.189809,433.359236 331.482803,437.798726 336.355414,437.798726 M336.355414,417.015287 C343.661146,417.015287 349.253503,421.938854 349.253503,430.059873 C349.253503,437.129936 344.521019,442.76051 336.355414,442.76051 C328.234395,442.76051 323.501911,437.129936 323.501911,430.059873 C323.501911,421.938854 329.094268,417.015287 336.355414,417.015287" fill="#FEFEFE"></path><path id="Fill-128" d="M366.258599,437.798726 C371.175796,437.798726 372.46879,433.410191 372.46879,429.295541 C372.46879,425.518471 370.46242,421.989809 366.258599,421.989809 C362.099363,421.989809 360.099363,425.620382 360.099363,429.295541 C360.099363,433.359236 361.385987,437.798726 366.258599,437.798726 M366.258599,417.015287 C373.564331,417.015287 379.156688,421.938854 379.156688,430.059873 C379.156688,437.129936 374.430573,442.76051 366.258599,442.76051 C358.13758,442.76051 353.405096,437.129936 353.405096,430.059873 C353.405096,421.938854 358.997452,417.015287 366.258599,417.015287" fill="#FEFEFE"></path><path id="Fill-129" d="M391.338217,429.824204 C391.338217,433.30828 392.720382,437.798726 396.975159,437.798726 C401.178981,437.798726 402.370064,433.206369 402.370064,429.824204 C402.370064,426.524841 401.223567,421.989809 397.070701,421.989809 C392.96242,421.989809 391.338217,426.378344 391.338217,429.824204 L391.338217,429.824204 Z M384.892357,417.594904 L391.007006,417.594904 L391.007006,421.078981 L391.096178,421.078981 C392.529299,418.690446 394.96879,417.015287 398.74586,417.015287 C406.287261,417.015287 409.064331,423.040764 409.064331,429.824204 C409.064331,436.556688 406.287261,442.76051 398.599363,442.76051 C395.873248,442.76051 393.63121,442.098089 391.382803,439.378344 L391.293631,439.378344 L391.293631,452.231847 L384.892357,452.231847 L384.892357,417.594904 Z" fill="#FEFEFE"></path><path id="Fill-130" d="M430.223567,427.479618 C430.032484,424.377707 428.599363,421.702548 425.019745,421.702548 C421.433758,421.702548 419.618471,424.180255 419.331847,427.479618 L430.223567,427.479618 Z M434.52293,440.810828 C432.18535,442.097452 429.503822,442.759873 426.070701,442.759873 C417.943312,442.759873 413.217197,438.084713 413.217197,430.00828 C413.217197,422.893631 416.987898,417.01465 424.63121,417.01465 C433.758599,417.01465 436.338217,423.275796 436.338217,431.874522 L419.331847,431.874522 C419.618471,435.836306 422.389172,438.084713 426.357325,438.084713 C429.459236,438.084713 432.134395,436.938217 434.52293,435.594268 L434.52293,440.810828 Z" fill="#FEFEFE"></path><path id="Fill-131" d="M442.212739,417.595541 L447.900637,417.595541 L447.900637,423.181529 L447.996178,423.181529 C448.282803,420.888535 450.907006,417.015924 454.728662,417.015924 C455.352866,417.015924 456.015287,417.015924 456.684076,417.207006 L456.684076,423.652866 C456.110828,423.321656 454.964331,423.130573 453.824204,423.130573 C448.614013,423.130573 448.614013,429.627389 448.614013,433.16242 L448.614013,442.187898 L442.212739,442.187898 L442.212739,417.595541 Z" fill="#FEFEFE"></path><path id="Fill-132" d="M469.963694,438.084713 C471.931847,438.084713 473.45414,437.224841 474.45414,435.880892 C475.511465,434.505096 475.798089,432.734395 475.798089,430.817197 L473.021019,430.817197 C470.154777,430.817197 465.906369,431.307643 465.906369,435.071975 C465.906369,437.173885 467.67707,438.084713 469.963694,438.084713 L469.963694,438.084713 Z M462.466879,418.874522 C464.950955,417.734395 468.294904,417.01465 471.021019,417.01465 C478.517834,417.01465 481.619745,420.12293 481.619745,427.384076 L481.619745,430.530573 C481.619745,433.021019 481.670701,434.887261 481.721656,436.702548 C481.772611,438.56242 481.861783,440.288535 482.00828,442.192994 L476.371338,442.192994 C476.129299,440.9 476.129299,439.275796 476.084713,438.511465 L475.982803,438.511465 C474.505096,441.23758 471.307643,442.759873 468.390446,442.759873 C464.040127,442.759873 459.79172,440.135669 459.79172,435.46051 C459.79172,431.778981 461.56242,429.626115 463.995541,428.428662 C466.428662,427.23758 469.581529,427.001911 472.256688,427.001911 L475.798089,427.001911 C475.798089,423.040127 474.033758,421.702548 470.256688,421.702548 C467.530573,421.702548 464.804459,422.747134 462.664331,424.377707 L462.466879,418.874522 Z" fill="#FEFEFE"></path><path id="Fill-133" d="M490.751592,422.273248 L486.019108,422.273248 L486.019108,417.598089 L490.751592,417.598089 L490.751592,412.668153 L497.146497,410.617197 L497.146497,417.598089 L502.828025,417.598089 L502.828025,422.273248 L497.146497,422.273248 L497.146497,433.738217 C497.146497,435.840127 497.719745,437.801911 500.159236,437.801911 C501.299363,437.801911 502.407643,437.559873 503.076433,437.126752 L503.267516,442.190446 C501.923567,442.578981 500.43949,442.763694 498.535032,442.763694 C493.522293,442.763694 490.751592,439.661783 490.751592,434.789172 L490.751592,422.273248 Z" fill="#FEFEFE"></path><path id="Fill-134" d="M508.089172,442.191083 L514.490446,442.191083 L514.490446,417.598726 L508.089172,417.598726 L508.089172,442.191083 Z M508.089172,413.101911 L514.490446,413.101911 L514.490446,406.980892 L508.089172,406.980892 L508.089172,413.101911 Z" fill="#FEFEFE"></path><path id="Fill-135" d="M533.216561,437.798726 C538.133758,437.798726 539.433121,433.410191 539.433121,429.295541 C539.433121,425.518471 537.420382,421.989809 533.216561,421.989809 C529.063694,421.989809 527.050955,425.620382 527.050955,429.295541 C527.050955,433.359236 528.343949,437.798726 533.216561,437.798726 M533.216561,417.015287 C540.522293,417.015287 546.10828,421.938854 546.10828,430.059873 C546.10828,437.129936 541.382166,442.76051 533.216561,442.76051 C525.101911,442.76051 520.363057,437.129936 520.363057,430.059873 C520.363057,421.938854 525.955414,417.015287 533.216561,417.015287" fill="#FEFEFE"></path><path id="Fill-136" d="M551.84586,417.595541 L557.915924,417.595541 L557.915924,420.933121 L558.005096,420.933121 C560.011465,418.117834 562.73758,417.015924 566.075159,417.015924 C571.909554,417.015924 574.438217,421.130573 574.438217,426.665605 L574.438217,442.187898 L568.043312,442.187898 L568.043312,429.05414 C568.043312,426.041401 567.992357,421.984076 563.890446,421.984076 C559.247134,421.984076 558.247134,427.003185 558.247134,430.156051 L558.247134,442.187898 L551.84586,442.187898 L551.84586,417.595541 Z" fill="#FEFEFE"></path><path id="Fill-137" d="M614.233758,414.964331 C612.131847,414.053503 609.794268,413.524841 607.456688,413.524841 C605.157325,413.524841 602.189172,414.53758 602.189172,418.168153 C602.189172,423.938854 616.813376,421.505732 616.813376,432.684076 C616.813376,439.996178 611.036306,442.76051 604.291083,442.76051 C600.666879,442.76051 599.042675,442.289172 595.749682,441.480255 L596.367516,435.461146 C598.66051,436.703185 601.291083,437.512102 603.915287,437.512102 C606.443949,437.512102 609.845223,436.219108 609.845223,433.206369 C609.845223,426.856051 595.227389,429.486624 595.227389,418.454777 C595.227389,411.002548 600.998089,408.276433 606.883439,408.276433 C609.743312,408.276433 612.418471,408.658599 614.857962,409.473885 L614.233758,414.964331 Z" fill="#FEFEFE"></path><path id="Fill-138" d="M630.282166,436.940127 L634.01465,436.940127 C639.600637,436.940127 645.001911,432.787261 645.001911,425.519745 C645.001911,418.258599 639.600637,414.099363 634.01465,414.099363 L630.282166,414.099363 L630.282166,436.940127 Z M623.594268,408.850955 L632.721656,408.850955 C642.944586,408.850955 651.970064,412.290446 651.970064,425.519745 C651.970064,438.755414 642.944586,442.188535 632.721656,442.188535 L623.594268,442.188535 L623.594268,408.850955 Z" fill="#FEFEFE"></path><path id="Fill-139" d="M683.066242,441.717197 C680.633121,442.290446 678.002548,442.761783 675.480255,442.761783 C664.677707,442.761783 657.180892,437.366879 657.180892,426.092994 C657.180892,414.678981 664.149045,408.277707 675.480255,408.277707 C677.664968,408.277707 680.582166,408.704459 683.021656,409.659873 L682.543949,415.296815 C680.015287,413.863694 677.715924,413.526115 675.327389,413.526115 C668.448408,413.526115 664.149045,418.787261 664.149045,425.621656 C664.149045,432.398726 668.352866,437.513376 675.480255,437.513376 C678.104459,437.513376 681.206369,436.940127 682.779618,436.124841 L683.066242,441.717197 Z" fill="#FEFEFE"></path></g><path id="Fill-142" d="M136.153503,17.4101911 C136.153503,17.4101911 110.73949,6.37197452 68.2044586,6.37197452 L68.1917197,6.37197452 C25.6503185,6.37197452 0.236305732,17.4101911 0.236305732,17.4101911 C0.236305732,17.4101911 -2.04394904,66.2764331 7.60573248,93.9133758 C24.643949,142.499363 68.1853503,156.149045 68.1853503,156.149045 L68.1980892,156.149045 L68.210828,156.149045 C68.210828,156.149045 111.73949,142.499363 128.784076,93.9133758 C138.427389,66.2764331 136.153503,17.4101911 136.153503,17.4101911" fill="#FEFEFE"></path><polygon id="Fill-144" fill="#1E2051" points="113.356688 59.5388535 113.356688 86.4687898 81.6815287 86.4687898 81.6815287 117.882803 54.5350318 117.882803 54.5350318 86.4687898 22.8598726 86.4687898 22.8598726 59.5388535 54.5350318 59.5388535 54.5350318 28.1312102 81.6751592 28.1312102 81.6815287 59.5388535"></polygon></g></g></svg>