<svg id="PartnerLogoCanada" version="1.1" xmlns="http://www.w3.org/2000/svg" xmlns:xlink="http://www.w3.org/1999/xlink" x="0px" y="0px" viewBox="0 0 360 144" style="enable-background:new 0 0 360 144" xml:space="preserve">
<style type="text/css">
	.st0{fill:none;}
	.st1{clip-path:url(#SVGID_00000080183169836474390240000001234781270444577963_);}
	.st2{fill:#A51F24;}
  path{fill: #333;}
</style><g id="Background"><rect class="st0" width="360" height="144"></rect></g><g id="Logo"><g><g><defs><rect id="SVGID_1_" x="36" y="21.8" width="56.9" height="100.5"></rect></defs><clipPath id="SVGID_00000087407438391348991910000001366313061175145660_"><use xlink:href="#SVGID_1_" style="overflow:visible"></use></clipPath><g style="clip-path:url(#SVGID_00000087407438391348991910000001366313061175145660_)"><path d="M145,83.5c-2.3-1-1.3-2.8-0.8-4.8l0.1-0.3l4.2-16L135.8,65c-2.1,0.4-3.8,0.7-4.9-1.5l-3.3-7.4l-12.3,13.1 c-3.3,3.7-6.4,2.1-5.2-3.3l5.6-27.6l-8.6,4.3c-2,1-3,1.1-4.2-0.9L92.9,21.8L82.9,42.3l0.1-0.4c-0.9,1.8-2.5,1.5-4,0.6L69.6,37 L75.7,67c1.1,3.8-2.1,5.6-4.4,2.9L58.6,55.5L55,62.9c-0.9,2-1.9,2.8-5.5,2l-12.9-2.8l5,16.3c0.8,2.4,0.7,3.6-0.7,4.7l-4.9,3 l56.7,36.2L54.4,76.8l35.7,29l2.7-54.7l2.6,54.7l35.7-29l-38.3,45.4l0,0l0.3-0.2l55.1-35.2l1.3-1.1L145,83.5z"></path><polygon class="st2" points="92.8,122.2 92.8,122.2 92.7,122.2 				"></polygon></g></g><g><g><path d="M160.5,87.5l-1-15.7c-0.1-0.4-0.7-0.4-0.7,0c-0.1,3.4-6,0.5-8.1,0.1c-18.4-4.2-30.8,10.6-30.8,22.9l0,0 c0,15.9,10.5,24.5,24,24.5c10.8,0,16.2-6.9,18-14.3c0.2-0.9-0.8-0.7-1.1,0c-3.3,10.4-11.3,13-15.3,13 c-8.7-0.1-16.8-7.1-17.1-23.2c-0.4-20.4,22.7-33.8,31.4-7.5C159.9,87.9,160.4,88,160.5,87.5z"></path></g><path d="M167.7,90c4.8-2,17.7-1.4,17.7,4.5v18.1c0,4.9,4.9,6.6,6.3,3.3c0.4-0.4,1.2-0.1,0.8,0.6c-0.9,3.5-9.5,4.1-12.5-0.6 c-16.6,12.1-27.2-11.7-7.3-12.1c6.2-0.9,6.9-4.5,6.9-7c0-6.2-3.3-6.8-5.2-6.8c-2.1,0-3.8,0.6-4.9,3.8 C167.7,100.3,158.1,94.6,167.7,90z M172.3,117.9c3.9,0.5,7.5-3.1,7.5-6.6v-8.5C162.9,109,168.1,117.7,172.3,117.9z"></path><g><path d="M201.5,89.4l-8.1,1.1c-0.5,0.1-0.5,0.4,0.4,0.6c1.8,0.1,2.9,1.3,2.9,3.8v18.8c0,2.3-3.2,4.2-3.8,4.5 c-1.5,0.6,0.8,0.5,0.8,0.5h13.2c0.4,0,1.8,0.1,0.1-0.7c-2-0.8-4.2-2.4-4.2-4.3c0-1.9,0-14.2,0-14.2c0-5.9,3.9-9.2,7.7-9.2 c4,0,7.3,0.9,7.3,9.1v14.2c0,2.1-2.7,3.9-4.1,4.4c-0.9,0.2-1.3,0.6-0.5,0.6h14.1c0.8,0.1,1.1-0.2,0.4-0.4 c-3.4-1.3-3.8-3.8-3.8-4.6V97.2c0-9.5-9.1-8.2-12.3-8.2c-4,0.1-8.3,2.6-8.7,3.7C202.7,89.7,202.3,89.4,201.5,89.4z"></path></g><path d="M281.8,116.5c-1.4,2.4-4.8,2.9-9,2.9c-8,0-14.5-6.1-14.5-14.5c0-7.5,4.2-15.8,14.9-15.8c9.6,0,9.6,6.4,9.6,1.1v-9.5 c0-4.9-1.9-6.3-3.4-6.8c-2.2-0.8-5-0.9-0.5-0.9l8.4-0.2c0.5,0,0.6,0.1,0.6,0.9v36.9c0,2.6,0.9,6.5,5.1,7.6 c0.4,0.1,0.8,0.3,0.4,0.4l-9.1,1c-1.3,0.1-1.9-0.5-2.4-3.1 M273.7,117.9c5,0,8.3-1.9,8.3-13.6c0-11.1-3.3-13.8-8.3-13.8 c-5,0-9,6.5-9,13.9C264.7,111.9,268.7,117.9,273.7,117.9z"></path><path d="M273.7,104.4"></path><path d="M234.1,90c4.8-2,17.7-1.4,17.7,4.5v18.1c0,4.9,4.9,6.6,6.3,3.3c0.4-0.4,1.2-0.1,0.8,0.6c-0.9,3.5-9.5,4.1-12.5-0.6 c-16.6,12.1-27.2-11.7-7.3-12.1c6.2-0.9,6.9-4.5,6.9-7c0-6.2-3.3-6.8-5.2-6.8c-2.1,0-3.8,0.6-4.9,3.8 C234.1,100.3,224.5,94.6,234.1,90z M238.4,117.9c3.9,0.5,7.5-3.1,7.5-6.6v-8.5C229,109,234.2,117.6,238.4,117.9z"></path><path d="M299.2,90.1c4.8-2,17.7-1.4,17.7,4.5v18.1c0,4.9,4.9,6.6,6.3,3.3c0.4-0.4,1.2-0.1,0.8,0.6c-0.9,3.5-9.5,4.1-12.5-0.6 c-16.6,12.1-27.2-11.7-7.3-12.1c6.2-0.9,6.9-4.5,6.9-7c0-6.2-3.3-6.8-5.2-6.8c-2.1,0-3.8,0.6-4.9,3.8 C299.1,100.3,289.5,94.6,299.2,90.1z M303.4,117.9c3.9,0.5,7.4-3.1,7.4-6.6v-8.5C294,109,299.3,117.7,303.4,117.9z"></path><g><g><rect x="291.8" y="72.8" width="6.9" height="14"></rect><path d="M295.3,79.8"></path></g><g><rect x="314" y="72.8" width="6.9" height="14"></rect><path d="M317.4,79.8"></path></g><g><path d="M305.4,75.7l1-2l1,1.9c0.1,0.2,0.2,0.2,0.4,0.1l0.8-0.4l-0.5,2.7c-0.1,0.5,0.2,0.7,0.5,0.3l1.2-1.3l0.3,0.7 c0.1,0.2,0.3,0.2,0.5,0.1l1.2-0.3l-0.4,1.6l0,0c0,0.2-0.1,0.4,0.1,0.5l0.4,0.2l-2.5,2.2c-0.3,0.3-0.2,0.4-0.1,0.7l0.2,0.7 l-2.4-0.4c-0.3-0.1-0.5-0.1-0.5,0.2l0.1,2.7H306l0.1-2.7c0-0.3-0.2-0.3-0.7-0.2l-2.2,0.4l0.3-0.7c0.1-0.3,0.1-0.5-0.1-0.7 l-2.6-2.1l0.5-0.3c0.1-0.1,0.1-0.2,0.1-0.5l-0.5-1.6l1.3,0.3c0.4,0.1,0.4,0,0.5-0.2L303,77l1.2,1.4c0.2,0.3,0.5,0.1,0.4-0.3 l-0.6-2.9l0.9,0.5C305.2,75.8,305.3,75.9,305.4,75.7"></path></g></g></g><g><path d="M166.2,56.8h-1.1V45.7h1.1V56.8z"></path><path d="M172.9,48.7c1.1,0,1.9,0.3,2.4,0.9c0.5,0.6,0.8,1.5,0.8,2.7v4.4H175v-4.7c0-1.5-0.7-2.3-2.1-2.3c-0.7,0-1.3,0.2-1.8,0.7 c-0.6,0.4-0.8,1-0.8,1.7v4.6h-1.1v-8h1.1v1.2c0.2-0.4,0.6-0.7,1.1-0.9C171.8,48.9,172.3,48.7,172.9,48.7z"></path><path d="M189.3,48.3c1.1,0,2.1,0.4,2.9,1.3c0.8,0.9,1.2,1.9,1.2,3.1s-0.4,2.2-1.2,3.1c-0.8,0.9-1.8,1.3-2.9,1.3 c-1,0-1.9-0.4-2.5-1.1v5.1h-2.1V48.6h2.1v0.9C187.4,48.7,188.3,48.3,189.3,48.3z M187.4,54.3c0.4,0.4,1,0.7,1.6,0.7 s1.1-0.2,1.6-0.7c0.4-0.4,0.7-1,0.7-1.6c0-0.6-0.2-1.1-0.7-1.6c-0.4-0.4-1-0.7-1.6-0.7s-1.1,0.2-1.6,0.7c-0.4,0.4-0.7,1-0.7,1.6 C186.8,53.3,187,53.9,187.4,54.3z"></path><path d="M201.7,48.6h2.1v8.2h-2.1V56c-0.7,0.8-1.5,1.1-2.5,1.1c-1.1,0-2.1-0.4-2.9-1.3s-1.2-1.9-1.2-3.1s0.4-2.2,1.2-3.1 s1.8-1.3,2.9-1.3c1,0,1.9,0.4,2.5,1.1V48.6z M197.9,54.3c0.4,0.4,1,0.7,1.6,0.7c0.6,0,1.1-0.2,1.6-0.7c0.4-0.4,0.7-1,0.7-1.6 c0-0.6-0.2-1.1-0.7-1.6c-0.4-0.4-1-0.7-1.6-0.7c-0.6,0-1.1,0.2-1.6,0.7c-0.4,0.4-0.7,1-0.7,1.6C197.2,53.3,197.4,53.9,197.9,54.3 z"></path><path d="M208.6,50.4c0.3-0.6,0.7-1.1,1.3-1.4c0.6-0.3,1.3-0.5,2.1-0.6v2.5c-0.6-0.1-1.1-0.1-1.6,0c-0.5,0.1-0.9,0.4-1.3,0.9 c-0.4,0.4-0.5,1-0.5,1.7v3.4h-2.1v-8.2h2.1V50.4z"></path><path d="M214.9,54.5v-4h-1.1v-1.9h1.1v-2.9h2.1v2.9h1.6v1.9h-1.6v3.4c0,0.6,0.1,1,0.4,1.1c0.3,0.1,0.7,0.1,1.2,0v1.9 c-0.4,0.2-1,0.3-1.6,0.3c-0.7,0-1.3-0.2-1.6-0.7C215.1,55.9,214.9,55.3,214.9,54.5z"></path><path d="M225.7,48.3c1,0,1.7,0.3,2.3,0.9c0.5,0.6,0.8,1.6,0.8,2.8v4.8h-2.1v-4.5c0-0.6-0.1-1.1-0.4-1.4c-0.3-0.3-0.7-0.4-1.2-0.4 c-0.5,0-1,0.2-1.3,0.5c-0.4,0.4-0.5,0.9-0.5,1.6v4.2h-2.1v-8.2h2.1v0.8C223.9,48.7,224.7,48.3,225.7,48.3z"></path><path d="M239,52.7c0,0.2,0,0.4,0,0.7h-6c0.2,0.6,0.4,1,0.9,1.4c0.4,0.3,0.9,0.5,1.6,0.5c0.9,0,1.7-0.3,2.5-0.8l0.6,1.8 c-0.1,0.1-0.2,0.1-0.4,0.2c-0.2,0.1-0.5,0.2-1,0.3c-0.5,0.1-1.1,0.2-1.7,0.2c-1.5,0-2.7-0.4-3.5-1.2c-0.8-0.8-1.2-1.9-1.2-3.2 c0-1.3,0.4-2.3,1.1-3.1c0.7-0.8,1.8-1.2,3.2-1.2c1.3,0,2.3,0.4,3,1.2C238.7,50.3,239,51.3,239,52.7z M233,51.8h3.7 c0-0.4-0.2-0.8-0.5-1.1c-0.3-0.3-0.8-0.5-1.4-0.5c-0.5,0-0.9,0.2-1.3,0.5C233.2,51.1,233,51.4,233,51.8z"></path><path d="M243.1,50.4c0.3-0.6,0.7-1.1,1.3-1.4c0.6-0.3,1.3-0.5,2.1-0.6v2.5c-0.6-0.1-1.1-0.1-1.6,0c-0.5,0.1-0.9,0.4-1.3,0.9 c-0.4,0.4-0.5,1-0.5,1.7v3.4H241v-8.2h2.1V50.4z"></path><path d="M252.4,51.6c1.3,0.2,2.1,0.5,2.6,1c0.5,0.5,0.7,1,0.7,1.6c0,0.9-0.3,1.6-1,2.1c-0.6,0.5-1.5,0.8-2.6,0.8 c-0.9,0-1.6-0.1-2.3-0.4c-0.7-0.3-1.2-0.5-1.5-0.8l0.7-2c0.4,0.3,0.8,0.6,1.4,0.8c0.5,0.2,1.1,0.3,1.6,0.3c1.1,0,1.7-0.2,1.7-0.7 c0-0.2-0.1-0.3-0.3-0.4c-0.2-0.1-0.6-0.2-1.2-0.3c-0.7-0.1-1.4-0.3-1.8-0.5s-0.9-0.4-1.1-0.6c-0.2-0.3-0.4-0.5-0.5-0.8 c-0.1-0.3-0.1-0.6-0.1-0.9c0-0.7,0.3-1.3,1-1.8c0.7-0.5,1.5-0.7,2.6-0.7c1.1,0,2.2,0.3,3.2,0.8l-0.6,1.9 c-0.2-0.2-0.6-0.3-1.1-0.5c-0.5-0.1-1-0.2-1.5-0.2c-1,0-1.5,0.1-1.5,0.5c0,0.3,0.3,0.5,1,0.6c0.1,0,0.3,0,0.5,0.1L252.4,51.6z"></path><path d="M262.4,48.3c1,0,1.7,0.3,2.3,0.9c0.5,0.6,0.8,1.6,0.8,2.8v4.8h-2.1v-4.5c0-0.6-0.1-1.1-0.4-1.4c-0.3-0.3-0.7-0.4-1.2-0.4 c-0.5,0-1,0.2-1.3,0.5s-0.5,0.9-0.5,1.6v4.2h-2.1V45.2h2.1v4.2C260.5,48.7,261.3,48.3,262.4,48.3z"></path><path d="M269.9,47.1c-0.3,0.3-0.6,0.4-1,0.4c-0.4,0-0.8-0.1-1-0.4s-0.4-0.6-0.4-1c0-0.4,0.1-0.8,0.4-1c0.3-0.3,0.6-0.4,1-0.4 c0.4,0,0.8,0.1,1,0.4c0.3,0.3,0.4,0.6,0.4,1C270.3,46.5,270.2,46.8,269.9,47.1z M267.8,56.8v-8.2h2.1v8.2H267.8z"></path><path d="M277.2,48.3c1.1,0,2.1,0.4,2.9,1.3s1.2,1.9,1.2,3.1s-0.4,2.2-1.2,3.1s-1.8,1.3-2.9,1.3c-1,0-1.9-0.4-2.5-1.1v5.1h-2.1 V48.6h2.1v0.9C275.3,48.7,276.2,48.3,277.2,48.3z M275.3,54.3c0.4,0.4,1,0.7,1.6,0.7s1.1-0.2,1.6-0.7c0.4-0.4,0.7-1,0.7-1.6 c0-0.6-0.2-1.1-0.7-1.6c-0.4-0.4-1-0.7-1.6-0.7s-1.1,0.2-1.6,0.7c-0.4,0.4-0.7,1-0.7,1.6C274.7,53.3,274.9,53.9,275.3,54.3z"></path><path d="M299.4,48.9h1.2l-3.6,8.2l-2.4-5.9l-2.4,5.9l-3.6-8.2h1.2l2.4,5.6l2.4-5.9l2.4,5.9L299.4,48.9z"></path><path d="M303.7,47.3c-0.2,0.2-0.4,0.3-0.7,0.3c-0.3,0-0.5-0.1-0.7-0.3c-0.2-0.2-0.3-0.4-0.3-0.7c0-0.3,0.1-0.5,0.3-0.7 c0.2-0.2,0.4-0.3,0.7-0.3c0.3,0,0.5,0.1,0.7,0.3s0.3,0.4,0.3,0.7C304,46.9,303.9,47.1,303.7,47.3z M302.5,56.8v-8h1.1v8H302.5z"></path><path d="M307.2,54.2v-4.3h-1.1v-1.1h1.1v-3.2h1.1v3.2h1.6v1.1h-1.6v4.4c0,0.8,0.1,1.2,0.3,1.4c0.4,0.3,0.8,0.3,1.3,0v1.1 c-0.3,0.1-0.6,0.2-0.9,0.2c-0.5,0-0.8-0.1-1.1-0.4c-0.3-0.3-0.4-0.6-0.5-0.9S307.2,54.8,307.2,54.2z"></path><path d="M316.2,48.7c1.1,0,1.9,0.3,2.4,0.9c0.5,0.6,0.8,1.5,0.8,2.7v4.4h-1.1v-4.7c0-1.5-0.7-2.3-2.1-2.3c-0.7,0-1.3,0.2-1.8,0.7 c-0.6,0.4-0.8,1-0.8,1.7v4.6h-1.1V45.2h1.1v4.9c0.2-0.4,0.6-0.7,1.1-0.9C315.2,48.9,315.7,48.7,316.2,48.7z"></path></g></g></g></svg>