<?xml version="1.0" encoding="UTF-8" standalone="no"?>
<svg width="18px" height="12px" viewBox="0 0 18 12" version="1.1" xmlns="http://www.w3.org/2000/svg" role="img" title="Right"  xmlns:xlink="http://www.w3.org/1999/xlink">
    <!-- Generator: Sketch 46.2 (44496) - http://www.bohemiancoding.com/sketch -->
    <title>Fill 1</title>
    <desc>Created with Sketch.</desc>
    <defs></defs>
    <g id="Welcome" stroke="none" stroke-width="1" fill="none" fill-rule="evenodd">
        <g id="Workshops-and-events-Copy" transform="translate(-938.000000, -952.000000)" fill="#00C2FF">
            <path d="M947.000188,967 C946.74668,967 946.493172,966.914075 946.299666,966.738066 L941.289509,962.195103 C941.103503,962.02741 941,961.800123 941,961.560363 C941,961.320604 941.103503,961.094703 941.289509,960.924238 C941.664521,960.586079 942.317041,960.586079 942.690553,960.924238 L946.008657,963.933015 L946.008657,949.89806 C946.008657,949.403295 946.45267,949 947.000188,949 C947.546205,949 947.991718,949.403295 947.991718,949.89806 L947.991718,963.933015 L951.308322,960.924238 C951.695334,960.573606 952.323854,960.574992 952.710866,960.924238 C953.096378,961.274869 953.096378,961.845858 952.710866,962.195103 L947.700709,966.738066 C947.507203,966.914075 947.253695,967 947.000188,967" id="Fill-1" transform="translate(947.000000, 958.000000) rotate(-90.000000) translate(-947.000000, -958.000000) "></path>
        </g>
    </g>
</svg>