<?xml version="1.0" encoding="utf-8"?>
<!-- Generator: Adobe Illustrator 20.1.0, SVG Export Plug-In . SVG Version: 6.00 Build 0)  -->
<svg version="1.1" id="Layer_1" xmlns="http://www.w3.org/2000/svg" role="img"  xmlns:xlink="http://www.w3.org/1999/xlink" x="0px" y="0px"
	 viewBox="0 0 24 28" style="enable-background:new 0 0 24 28;" xml:space="preserve">
<style type="text/css">
	.st0{fill:#1E2051;}
</style>
<title>Fill 1</title>
<desc>Created with Sketch.</desc>
<g id="Welcome">
	<g id="Workshops-and-events" transform="translate(-1332.000000, -1863.000000)">
		<path id="Fill-1" class="st0" d="M1344,1882.7c-0.2,0-0.3-0.1-0.4-0.2l-3.2-2.9c-0.1-0.1-0.2-0.2-0.2-0.4s0.1-0.3,0.2-0.4
			c0.2-0.2,0.7-0.2,0.9,0l2.1,1.9v-8.9c0-0.3,0.3-0.6,0.6-0.6c0.3,0,0.6,0.3,0.6,0.6v8.9l2.1-1.9c0.2-0.2,0.6-0.2,0.9,0
			c0.2,0.2,0.2,0.6,0,0.8l-3.2,2.9C1344.3,1882.6,1344.2,1882.7,1344,1882.7"/>
	</g>
</g>
</svg>
