<?xml version="1.0" encoding="utf-8"?>
<!-- Generator: Adobe Illustrator 20.1.0, SVG Export Plug-In . SVG Version: 6.00 Build 0)  -->
<svg version="1.1" id="Layer_1" xmlns="http://www.w3.org/2000/svg" role="img"  xmlns:xlink="http://www.w3.org/1999/xlink" x="0px" y="0px"
	 viewBox="0 0 18 12" style="enable-background:new 0 0 18 12;" xml:space="preserve">
<style type="text/css">
	.st0{fill:#1E2051;}
</style>
<title>Fill 1</title>
<desc>Created with Sketch.</desc>
<g id="Welcome">
	<g id="Workshops-and-events" transform="translate(-1332.000000, -1863.000000)">
		<path id="Fill-1" class="st0" d="M1350,1869c0,0.3-0.1,0.5-0.3,0.7l-4.5,5c-0.2,0.2-0.4,0.3-0.6,0.3c-0.2,0-0.5-0.1-0.6-0.3
			c-0.3-0.4-0.3-1,0-1.4l3-3.3h-14c-0.5,0-0.9-0.4-0.9-1c0-0.5,0.4-1,0.9-1h14l-3-3.3c-0.4-0.4-0.3-1,0-1.4c0.4-0.4,0.9-0.4,1.3,0
			l4.5,5C1349.9,1868.5,1350,1868.7,1350,1869"/>
	</g>
</g>
</svg>
