<?xml version="1.0" encoding="UTF-8" standalone="no"?>
<svg width="31px" height="40px" viewBox="0 0 31 40" version="1.1" xmlns="http://www.w3.org/2000/svg" role="img"  xmlns:xlink="http://www.w3.org/1999/xlink">
    <!-- Generator: Sketch 47.1 (45422) - http://www.bohemiancoding.com/sketch -->
    <title>Group 2</title>
    <desc>Created with Sketch.</desc>
    <defs>
        <polygon id="path-1" points="0 0 34 0 34 44 1.2190136e-20 44"></polygon>
    </defs>
    <g id="Welcome" stroke="none" stroke-width="1" fill="none" fill-rule="evenodd">
        <g id="Workshops-and-events" transform="translate(-579.000000, -2729.000000)">
            <g id="Group-2" transform="translate(578.000000, 2727.000000)">
                <g id="Page-1">
                    <mask id="mask-2" fill="white">
                        <use xlink:href="#path-1"></use>
                    </mask>
                    <g id="Clip-2"></g>
                    <path d="M28.0462963,24.66 L17.2668122,39.594 L17.228836,39.632 C16.9986772,40.012 16.7301587,40.24 16.4616402,40.24 C16.1931217,40.24 15.9246032,40.012 15.6944444,39.632 L4.91534392,24.66 C3.53439153,22.494 2.76719577,20.024 2.76719577,17.44 C2.80555556,9.878 8.94312169,3.76 16.4616402,3.76 C23.9797751,3.76 30.1173413,9.878 30.1944444,17.44 C30.1560847,20.024 29.4272487,22.532 28.0462963,24.66 M16.4616402,3 C8.52116402,3 2.03835979,9.498 2,17.44 C2.03835979,20.138 2.80555556,22.798 4.3015873,25.078 L15.0806878,40.012 C15.4259259,40.658 15.962963,41 16.5,41 C17.037037,41 17.5740741,40.658 17.9193122,40.012 L28.6984127,25.078 C30.1560847,22.798 30.9616402,20.176 31,17.44 C30.884537,9.498 24.4021164,3 16.4616402,3 M16.4616402,23.064 C13.2777778,23.064 10.6693122,20.48 10.6693122,17.326 C10.6693122,14.172 13.2777778,11.588 16.4616402,11.588 C19.6455026,11.588 22.2535847,14.172 22.2535847,17.326 C22.2535847,20.48 19.6455026,23.064 16.4616402,23.064 M16.4616402,10.866 C12.8558201,10.866 9.9021164,13.792 9.9021164,17.364 C9.9021164,20.936 12.8558201,23.824 16.4616402,23.824 C20.0674603,23.824 23.0207804,20.898 23.0207804,17.326 C23.0207804,13.754 20.0674603,10.866 16.4616402,10.866" id="Fill-1" stroke="#0079CF" fill="#0079CF" mask="url(#mask-2)"></path>
                </g>
            </g>
        </g>
    </g>
</svg>