<svg width="71" height="56" viewBox="0 0 71 56" fill="none" xmlns="http://www.w3.org/2000/svg">
<path opacity="0.2" d="M31.9531 43.125C31.9531 46.4583 30.599 49.375 27.8906 51.875C25.2344 54.375 22.0833 55.625 18.4375 55.625C12.7083 55.625 8.30729 53.724 5.23438 49.9219C2.16146 46.1198 0.625 40.8594 0.625 34.1406C0.625 27.8906 3.25521 21.5885 8.51562 15.2344C13.8281 8.88021 20.2083 4.0625 27.6562 0.78125L31.0938 6.32812C25.2083 9.19271 20.599 12.526 17.2656 16.3281C13.9323 20.1302 12.0052 24.7396 11.4844 30.1562H15.8594C19.0885 30.1562 21.7188 30.5208 23.75 31.25C25.7812 31.9792 27.4219 32.9948 28.6719 34.2969C29.8698 35.5469 30.7031 36.9271 31.1719 38.4375C31.6927 39.9479 31.9531 41.5104 31.9531 43.125ZM70.4688 43.125C70.4688 46.4583 69.1146 49.375 66.4062 51.875C63.75 54.375 60.599 55.625 56.9531 55.625C51.224 55.625 46.8229 53.724 43.75 49.9219C40.6771 46.1198 39.1406 40.8594 39.1406 34.1406C39.1406 27.8906 41.7708 21.5885 47.0312 15.2344C52.3438 8.88021 58.724 4.0625 66.1719 0.78125L69.6094 6.32812C63.724 9.19271 59.1146 12.526 55.7812 16.3281C52.4479 20.1302 50.5208 24.7396 50 30.1562H54.375C57.6042 30.1562 60.2344 30.5208 62.2656 31.25C64.2969 31.9792 65.9375 32.9948 67.1875 34.2969C68.3854 35.5469 69.2188 36.9271 69.6875 38.4375C70.2083 39.9479 70.4688 41.5104 70.4688 43.125Z" fill="#00C2FF"/>
</svg>
