<?xml version="1.0" encoding="UTF-8"?>
<svg width="29px" height="18px" viewBox="0 0 29 18" version="1.1" xmlns="http://www.w3.org/2000/svg" role="img"  xmlns:xlink="http://www.w3.org/1999/xlink">
    <!-- Generator: Sketch 46.2 (44496) - http://www.bohemiancoding.com/sketch -->
    <title>noun_880237_cc</title>
    <desc>Created with Sketch.</desc>
    <defs></defs>
    <g id="Page-1" stroke="none" stroke-width="1" fill="none" fill-rule="evenodd">
        <g id="Mobile-Copy-6" transform="translate(-261.000000, -488.000000)" fill-rule="nonzero" fill="#FFFFFF">
            <g id="noun_880237_cc" transform="translate(261.000000, 488.000000)">
                <circle id="Oval" transform="translate(2.000000, 2.000000) rotate(-360.000000) translate(-2.000000, -2.000000) " cx="2" cy="2" r="2"></circle>
                <path d="M28.0099256,1 L8.99007444,1 C8.46898263,1 8,1.37209302 8,1.88372093 L8,2.11627907 C8,2.58139535 8.41687345,3 8.99007444,3 L28.0099256,3 C28.5310174,3 29,2.62790698 29,2.11627907 L29,1.88372093 C28.9478908,1.41860465 28.5310174,1 28.0099256,1 Z" id="Shape"></path>
                <circle id="Oval" cx="2" cy="9" r="2"></circle>
                <path d="M28.0099256,8 L8.99007444,8 C8.46898263,8 8,8.37209302 8,8.88372093 L8,9.11627907 C8,9.58139535 8.41687345,10 8.99007444,10 L28.0099256,10 C28.5310174,10 29,9.62790698 29,9.11627907 L29,8.88372093 C28.9478908,8.37209302 28.5310174,8 28.0099256,8 Z" id="Shape"></path>
                <circle id="Oval" cx="2" cy="16" r="2"></circle>
                <path d="M28.0099256,15 L8.99007444,15 C8.46898263,15 8,15.372093 8,15.8837209 L8,16.1162791 C8,16.5813953 8.41687345,17 8.99007444,17 L28.0099256,17 C28.5310174,17 29,16.627907 29,16.1162791 L29,15.8837209 C28.9478908,15.372093 28.5310174,15 28.0099256,15 Z" id="Shape"></path>
            </g>
        </g>
    </g>
</svg>