<?xml version="1.0" encoding="UTF-8" standalone="no"?>
<svg width="489px" height="101px" viewBox="0 0 489 101" version="1.1" xmlns="http://www.w3.org/2000/svg" xmlns:xlink="http://www.w3.org/1999/xlink">
    <!-- Generator: Sketch 46.2 (44496) - http://www.bohemiancoding.com/sketch -->
    <title>U4 logo</title>
    <desc>Created with Sketch.</desc>
    <defs>
        <polygon id="path-1" points="0 101 489 101 489 0.974 0 0.974"></polygon>
    </defs>
    <g id="Page-1" stroke="none" stroke-width="1" fill="none" fill-rule="evenodd">
        <g id="U4-logo" transform="translate(0.000000, -1.000000)">
            <path d="M90.1224,1 L30.3714,87.823 L76.0734,87.823 L76.0734,101.026 L90.1224,101.026 L90.1224,87.823 L100.0084,87.823 L100.0084,75.04 L90.1224,75.04 L90.1224,1 Z M76.0734,43.868 L76.0734,75.04 L54.6094,75.04 L76.0734,43.868 Z" id="Fill-1" fill="#0079CF"></path>
            <g id="Group-39" transform="translate(0.000000, 0.026000)">
                <path d="M17.9761,66.6315 C21.3061,71.1975 25.7981,73.8085 31.4441,74.4765 L23.4011,86.1635 C18.0711,84.4775 13.3251,81.4905 9.1691,77.1885 C3.0561,70.8345 0.0001,62.7505 0.0001,52.9385 L0.0001,1.0445 L14.0561,1.0445 L14.0561,49.0775 C14.0561,57.0805 15.3621,62.9315 17.9761,66.6315 Z" id="Fill-2" fill="#0079CF"></path>
                <polygon id="Fill-4" fill="#0079CF" points="68.9482 1.0446 54.8932 1.0446 54.8932 40.4026 68.9482 19.9806"></polygon>
                <path d="M122.8691,36.4758 L129.4481,36.4758 L126.2311,23.8358 L126.0851,23.8358 L122.8691,36.4758 Z M130.8701,42.0458 L121.4461,42.0458 L119.5321,49.6798 L112.4881,49.6798 L122.5501,13.9448 L129.8151,13.9448 L139.8521,49.6798 L132.8101,49.6798 L130.8701,42.0458 Z" id="Fill-6" fill="#0079CF"></path>
                <polygon id="Fill-8" fill="#0079CF" points="167.6348 49.6794 160.6918 49.6794 149.7688 26.8304 149.6218 26.8804 149.6218 49.6794 142.6268 49.6794 142.6268 13.9444 149.6218 13.9444 160.5428 36.7714 160.6918 36.7214 160.6918 13.9444 167.6348 13.9444"></polygon>
                <polygon id="Fill-10" fill="#0079CF" points="193.4067 19.5173 185.3557 19.5173 185.3557 49.6793 178.3857 49.6793 178.3857 19.5173 170.3857 19.5173 170.3857 13.9443 193.4067 13.9443"></polygon>
                <mask id="mask-2" fill="white">
                    <use xlink:href="#path-1"></use>
                </mask>
                <g id="Clip-13"></g>
                <polygon id="Fill-12" fill="#0079CF" mask="url(#mask-2)" points="197.134 49.679 204.08 49.679 204.08 13.944 197.134 13.944"></polygon>
                <polygon id="Fill-14" fill="#0079CF" mask="url(#mask-2)" points="210.12 37.114 222.318 37.114 222.318 31.541 210.12 31.541"></polygon>
                <path d="M250.6377,38.1696 L250.7117,38.3156 C250.7437,42.2416 249.8137,45.2046 247.9127,47.2006 C246.0167,49.1976 243.2177,50.1956 239.5197,50.1956 C235.8227,50.1956 232.8697,49.0616 230.6617,46.7966 C228.4517,44.5286 227.3467,41.3176 227.3467,37.1636 L227.3467,26.4876 C227.3467,22.3486 228.4147,19.1376 230.5507,16.8526 C232.6857,14.5706 235.5437,13.4306 239.1277,13.4306 C242.9247,13.4306 245.7897,14.4436 247.7297,16.4726 C249.6687,18.5016 250.6697,21.5036 250.7377,25.4796 L250.6617,25.6286 L243.9377,25.6286 C244.0367,23.2796 243.7167,21.5876 242.9817,20.5526 C242.2437,19.5196 240.9597,19.0006 239.1277,19.0006 C237.5577,19.0006 236.3537,19.6166 235.5187,20.8426 C234.6847,22.0726 234.2677,23.9296 234.2677,26.4206 L234.2677,37.1556 C234.2677,39.6796 234.7147,41.5546 235.6057,42.7806 C236.4977,44.0096 237.8037,44.6236 239.5197,44.6236 C241.2057,44.6236 242.3807,44.1366 243.0437,43.1636 C243.7037,42.1906 243.9947,40.5256 243.9127,38.1696 L250.6377,38.1696 Z" id="Fill-15" fill="#0079CF" mask="url(#mask-2)"></path>
                <path d="M272.0664,26.7536 C272.0664,24.1956 271.5894,22.2636 270.6404,20.9576 C269.6924,19.6536 268.3084,19.0006 266.4944,19.0006 C264.6614,19.0006 263.2884,19.6486 262.3714,20.9446 C261.4554,22.2416 260.9964,24.1786 260.9964,26.7536 L260.9964,36.8456 C260.9964,39.4386 261.4624,41.3826 262.3964,42.6786 C263.3274,43.9756 264.7034,44.6236 266.5184,44.6236 C268.3194,44.6236 269.6924,43.9756 270.6404,42.6786 C271.5894,41.3826 272.0664,39.4386 272.0664,36.8456 L272.0664,26.7536 Z M279.0094,36.8436 C279.0094,41.0326 277.8724,44.3056 275.6004,46.6596 C273.3254,49.0166 270.2974,50.1956 266.5184,50.1956 C262.7394,50.1956 259.7194,49.0166 257.4624,46.6596 C255.2044,44.3056 254.0744,41.0326 254.0744,36.8436 L254.0744,26.8306 C254.0744,22.6586 255.2044,19.3806 257.4624,17.0016 C259.7194,14.6196 262.7314,13.4306 266.4944,13.4306 C270.2554,13.4306 273.2834,14.6196 275.5754,17.0016 C277.8654,19.3806 279.0094,22.6586 279.0094,26.8306 L279.0094,36.8436 Z" id="Fill-16" fill="#0079CF" mask="url(#mask-2)"></path>
                <path d="M290.5469,29.8976 L295.2109,29.8976 C296.6339,29.8976 297.7139,29.4656 298.4489,28.5966 C299.1869,27.7296 299.5549,26.4956 299.5549,24.8906 C299.5549,23.2546 299.1869,21.9556 298.4489,20.9896 C297.7139,20.0236 296.6419,19.5426 295.2339,19.5426 L290.5469,19.5426 L290.5469,29.8976 Z M290.5469,35.4696 L290.5469,49.6796 L283.5759,49.6796 L283.5759,13.9696 L295.2339,13.9696 C298.7519,13.9696 301.5139,14.8976 303.5179,16.7556 C305.5219,18.6126 306.5259,21.1936 306.5259,24.4986 C306.5259,26.3636 306.1079,27.9706 305.2739,29.3216 C304.4399,30.6716 303.2199,31.7476 301.6149,32.5496 C303.4479,33.1706 304.7699,34.2006 305.5789,35.6416 C306.3889,37.0816 306.7929,38.8796 306.7929,41.0406 L306.7929,43.5676 C306.7929,44.5486 306.9069,45.6016 307.1389,46.7226 C307.3669,47.8416 307.7669,48.6566 308.3399,49.1626 L308.3399,49.6796 L301.1239,49.6796 C300.5529,49.1556 300.1929,48.3066 300.0459,47.1266 C299.8979,45.9496 299.8249,44.7476 299.8249,43.5186 L299.8249,41.0896 C299.8249,39.3066 299.4599,37.9236 298.7329,36.9426 C298.0049,35.9596 296.9619,35.4696 295.6039,35.4696 L290.5469,35.4696 Z" id="Fill-17" fill="#0079CF" mask="url(#mask-2)"></path>
                <path d="M319.0654,29.8976 L323.7294,29.8976 C325.1524,29.8976 326.2324,29.4656 326.9674,28.5966 C327.7054,27.7296 328.0734,26.4956 328.0734,24.8906 C328.0734,23.2546 327.7054,21.9556 326.9674,20.9896 C326.2324,20.0236 325.1604,19.5426 323.7524,19.5426 L319.0654,19.5426 L319.0654,29.8976 Z M319.0654,35.4696 L319.0654,49.6796 L312.0944,49.6796 L312.0944,13.9696 L323.7524,13.9696 C327.2704,13.9696 330.0324,14.8976 332.0364,16.7556 C334.0404,18.6126 335.0444,21.1936 335.0444,24.4986 C335.0444,26.3636 334.6264,27.9706 333.7924,29.3216 C332.9584,30.6716 331.7384,31.7476 330.1334,32.5496 C331.9664,33.1706 333.2884,34.2006 334.0974,35.6416 C334.9074,37.0816 335.3114,38.8796 335.3114,41.0406 L335.3114,43.5676 C335.3114,44.5486 335.4254,45.6016 335.6574,46.7226 C335.8854,47.8416 336.2854,48.6566 336.8584,49.1626 L336.8584,49.6796 L329.6424,49.6796 C329.0714,49.1556 328.7114,48.3066 328.5644,47.1266 C328.4164,45.9496 328.3434,44.7476 328.3434,43.5186 L328.3434,41.0896 C328.3434,39.3066 327.9784,37.9236 327.2514,36.9426 C326.5234,35.9596 325.4804,35.4696 324.1224,35.4696 L319.0654,35.4696 Z" id="Fill-18" fill="#0079CF" mask="url(#mask-2)"></path>
                <path d="M364.4434,13.9445 L364.4434,38.2665 C364.4434,42.0805 363.3294,45.0205 361.0934,47.0895 C358.8614,49.1605 355.9354,50.1955 352.3204,50.1955 C348.7044,50.1955 345.7794,49.1555 343.5474,47.0765 C341.3144,45.0015 340.1964,42.0635 340.1964,38.2665 L340.1964,13.9445 L347.1674,13.9445 L347.1674,38.2665 C347.1674,40.4445 347.6164,42.0465 348.5154,43.0765 C349.4174,44.1095 350.6834,44.6235 352.3204,44.6235 C354.0054,44.6235 355.2904,44.1315 356.1734,43.1515 C357.0584,42.1705 357.5004,40.5415 357.5004,38.2665 L357.5004,13.9445 L364.4434,13.9445 Z" id="Fill-19" fill="#0079CF" mask="url(#mask-2)"></path>
                <path d="M376.4453,31.2731 L381.8693,31.2731 C383.3563,31.2731 384.4943,30.7241 385.2813,29.6241 C386.0663,28.5261 386.4583,27.1331 386.4583,25.4421 C386.4583,23.7391 386.0713,22.3231 385.2943,21.2011 C384.5163,20.0781 383.3743,19.5171 381.8693,19.5171 L376.4453,19.5171 L376.4453,31.2731 Z M376.4453,36.8431 L376.4453,49.6791 L369.4503,49.6791 L369.4503,13.9441 L381.8693,13.9441 C385.4353,13.9441 388.2513,15.0001 390.3123,17.1081 C392.3743,19.2161 393.4043,21.9781 393.4043,25.3951 C393.4043,28.8271 392.3693,31.5931 390.2993,33.6941 C388.2293,35.7931 385.4203,36.8431 381.8693,36.8431 L376.4453,36.8431 Z" id="Fill-20" fill="#0079CF" mask="url(#mask-2)"></path>
                <polygon id="Fill-21" fill="#0079CF" mask="url(#mask-2)" points="418.9053 19.5173 410.8543 19.5173 410.8543 49.6793 403.8843 49.6793 403.8843 19.5173 395.8843 19.5173 395.8843 13.9443 418.9053 13.9443"></polygon>
                <polygon id="Fill-22" fill="#0079CF" mask="url(#mask-2)" points="422.636 49.679 429.581 49.679 429.581 13.944 422.636 13.944"></polygon>
                <path d="M452.5049,26.7536 C452.5049,24.1956 452.0279,22.2636 451.0789,20.9576 C450.1309,19.6536 448.7479,19.0006 446.9329,19.0006 C445.0999,19.0006 443.7269,19.6486 442.8109,20.9446 C441.8939,22.2416 441.4349,24.1786 441.4349,26.7536 L441.4349,36.8456 C441.4349,39.4386 441.9009,41.3826 442.8349,42.6786 C443.7669,43.9756 445.1419,44.6236 446.9569,44.6236 C448.7579,44.6236 450.1309,43.9756 451.0789,42.6786 C452.0279,41.3826 452.5049,39.4386 452.5049,36.8456 L452.5049,26.7536 Z M459.4479,36.8436 C459.4479,41.0326 458.3109,44.3056 456.0389,46.6596 C453.7639,49.0166 450.7369,50.1956 446.9569,50.1956 C443.1779,50.1956 440.1579,49.0166 437.9009,46.6596 C435.6439,44.3056 434.5139,41.0326 434.5139,36.8436 L434.5139,26.8306 C434.5139,22.6586 435.6439,19.3806 437.9009,17.0016 C440.1579,14.6196 443.1699,13.4306 446.9329,13.4306 C450.6939,13.4306 453.7219,14.6196 456.0139,17.0016 C458.3039,19.3806 459.4479,22.6586 459.4479,26.8306 L459.4479,36.8436 Z" id="Fill-23" fill="#0079CF" mask="url(#mask-2)"></path>
                <polygon id="Fill-24" fill="#0079CF" mask="url(#mask-2)" points="489 49.6794 482.054 49.6794 471.133 26.8304 470.986 26.8804 470.986 49.6794 463.99 49.6794 463.99 13.9444 470.986 13.9444 481.907 36.7714 482.054 36.7214 482.054 13.9444 489 13.9444"></polygon>
                <path d="M115.2129,74.5309 L120.1029,74.5309 C121.8699,74.5309 123.1639,74.0829 123.9849,73.1799 C124.8049,72.2799 125.2149,71.0539 125.2149,69.5039 C125.2149,67.8639 124.8139,66.6019 124.0109,65.7169 C123.2079,64.8339 121.9839,64.3919 120.3439,64.3919 L115.2129,64.3919 L115.2129,74.5309 Z M115.2129,76.2889 L115.2129,87.6339 L113.1469,87.6339 L113.1469,62.5829 L120.3439,62.5829 C122.5929,62.5829 124.3149,63.1749 125.5089,64.3559 C126.7019,65.5369 127.2989,67.2559 127.2989,69.5129 C127.2989,70.8429 126.9839,72.0259 126.3519,73.0639 C125.7209,74.1019 124.8259,74.8659 123.6659,75.3589 C124.9409,75.7489 125.8559,76.4519 126.4129,77.4629 C126.9689,78.4729 127.2469,79.7329 127.2469,81.2369 L127.2469,83.5989 C127.2469,84.3809 127.3219,85.0809 127.4719,85.7029 C127.6209,86.3239 127.8739,86.8289 128.2289,87.2189 L128.2289,87.6339 L126.1099,87.6339 C125.7549,87.2189 125.5109,86.6439 125.3799,85.9069 C125.2479,85.1699 125.1809,84.3879 125.1809,83.5569 L125.1809,81.2619 C125.1809,79.7409 124.7959,78.5329 124.0279,77.6349 C123.2589,76.7379 122.2029,76.2889 120.8599,76.2889 L115.2129,76.2889 Z" id="Fill-25" fill="#0079CF" mask="url(#mask-2)"></path>
                <polygon id="Fill-26" fill="#0079CF" mask="url(#mask-2)" points="144.6714 75.5124 134.8224 75.5124 134.8224 85.8774 146.1344 85.8774 146.1344 87.6334 132.7564 87.6334 132.7564 62.5664 146.0304 62.5664 146.0304 64.3924 134.8224 64.3924 134.8224 73.7564 144.6714 73.7564"></polygon>
                <path d="M161.6626,81.5065 C161.6626,80.1355 161.2636,79.0215 160.4656,78.1625 C159.6676,77.3045 158.2656,76.5475 156.2566,75.8925 C153.9726,75.1925 152.2416,74.2895 151.0656,73.1805 C149.8896,72.0725 149.3016,70.5885 149.3016,68.7295 C149.3016,66.8145 149.9586,65.2455 151.2726,64.0295 C152.5866,62.8125 154.2816,62.2055 156.3606,62.2055 C158.5396,62.2055 160.2946,62.9235 161.6196,64.3585 C162.9446,65.7925 163.5906,67.5405 163.5566,69.6075 L163.5046,69.7105 L161.5586,69.7105 C161.5586,68.0465 161.0966,66.6835 160.1736,65.6225 C159.2486,64.5605 157.9776,64.0295 156.3606,64.0295 C154.7876,64.0295 153.5646,64.4715 152.6926,65.3575 C151.8206,66.2385 151.3846,67.3465 151.3846,68.6775 C151.3846,69.9175 151.8066,70.9585 152.6496,71.8045 C153.4936,72.6475 154.9256,73.3845 156.9446,74.0155 C159.1726,74.7035 160.8626,75.6355 162.0156,76.8145 C163.1686,77.9895 163.7456,79.5355 163.7456,81.4515 C163.7456,83.4615 163.0656,85.0545 161.7056,86.2305 C160.3466,87.4055 158.5986,87.9955 156.4626,87.9955 C154.3636,87.9955 152.5356,87.3635 150.9796,86.1025 C149.4246,84.8395 148.6756,83.0075 148.7336,80.6095 L148.7676,80.5055 L150.6956,80.5055 C150.6956,82.4705 151.2606,83.9145 152.3916,84.8445 C153.5216,85.7745 154.8796,86.2395 156.4626,86.2395 C158.0236,86.2395 159.2806,85.8085 160.2336,84.9435 C161.1866,84.0795 161.6626,82.9335 161.6626,81.5065" id="Fill-27" fill="#0079CF" mask="url(#mask-2)"></path>
                <path d="M180.6353,71.5524 C180.6353,69.0744 180.1243,67.2084 179.1023,65.9584 C178.0803,64.7084 176.6173,64.0814 174.7133,64.0814 C172.8643,64.0814 171.4473,64.7084 170.4603,65.9584 C169.4733,67.2084 168.9793,69.0744 168.9793,71.5524 L168.9793,78.6284 C168.9793,81.1434 169.4733,83.0254 170.4603,84.2774 C171.4473,85.5274 172.8713,86.1544 174.7303,86.1544 C176.6353,86.1544 178.0953,85.5274 179.1113,84.2774 C180.1273,83.0254 180.6353,81.1434 180.6353,78.6284 L180.6353,71.5524 Z M182.6843,78.6284 C182.6843,81.6714 181.9753,83.9904 180.5573,85.5944 C179.1393,87.1944 177.1973,87.9954 174.7303,87.9954 C172.3073,87.9954 170.4053,87.1944 169.0223,85.5944 C167.6393,83.9904 166.9473,81.6714 166.9473,78.6284 L166.9473,71.6044 C166.9473,68.5644 167.6363,66.2374 169.0133,64.6244 C170.3903,63.0124 172.2903,62.2054 174.7133,62.2054 C177.1803,62.2054 179.1263,63.0144 180.5493,64.6314 C181.9723,66.2514 182.6843,68.5734 182.6843,71.6044 L182.6843,78.6284 Z" id="Fill-28" fill="#0079CF" mask="url(#mask-2)"></path>
                <path d="M201.4507,62.5661 L201.4507,80.1111 C201.4507,82.6701 200.7677,84.6231 199.4017,85.9711 C198.0357,87.3201 196.2567,87.9961 194.0647,87.9961 C191.9187,87.9961 190.1797,87.3201 188.8477,85.9711 C187.5167,84.6231 186.8507,82.6701 186.8507,80.1111 L186.8507,62.5661 L188.8827,62.5661 L188.8827,80.1351 C188.8827,82.1001 189.3617,83.6091 190.3197,84.6621 C191.2787,85.7121 192.5267,86.2401 194.0647,86.2401 C195.6837,86.2401 196.9767,85.7371 197.9467,84.7311 C198.9167,83.7251 199.4017,82.1941 199.4017,80.1351 L199.4017,62.5661 L201.4507,62.5661 Z" id="Fill-29" fill="#0079CF" mask="url(#mask-2)"></path>
                <path d="M208.6118,74.5309 L213.5018,74.5309 C215.2688,74.5309 216.5628,74.0829 217.3838,73.1799 C218.2038,72.2799 218.6148,71.0539 218.6148,69.5039 C218.6148,67.8639 218.2128,66.6019 217.4098,65.7169 C216.6068,64.8339 215.3828,64.3919 213.7428,64.3919 L208.6118,64.3919 L208.6118,74.5309 Z M208.6118,76.2889 L208.6118,87.6339 L206.5458,87.6339 L206.5458,62.5829 L213.7428,62.5829 C215.9918,62.5829 217.7138,63.1749 218.9078,64.3559 C220.1008,65.5369 220.6978,67.2559 220.6978,69.5129 C220.6978,70.8429 220.3828,72.0259 219.7508,73.0639 C219.1198,74.1019 218.2248,74.8659 217.0648,75.3589 C218.3398,75.7489 219.2548,76.4519 219.8118,77.4629 C220.3678,78.4729 220.6458,79.7329 220.6458,81.2369 L220.6458,83.5989 C220.6458,84.3809 220.7208,85.0809 220.8708,85.7029 C221.0198,86.3239 221.2728,86.8289 221.6278,87.2189 L221.6278,87.6339 L219.5098,87.6339 C219.1538,87.2189 218.9098,86.6439 218.7788,85.9069 C218.6468,85.1699 218.5798,84.3879 218.5798,83.5569 L218.5798,81.2619 C218.5798,79.7409 218.1948,78.5329 217.4268,77.6349 C216.6578,76.7379 215.6018,76.2889 214.2588,76.2889 L208.6118,76.2889 Z" id="Fill-30" fill="#0079CF" mask="url(#mask-2)"></path>
                <path d="M239.8428,80.3522 L239.8948,80.4532 C239.8708,82.8992 239.2288,84.7682 237.9668,86.0572 C236.7028,87.3492 234.9648,87.9962 232.7498,87.9962 C230.4428,87.9962 228.6128,87.1792 227.2578,85.5492 C225.9028,83.9192 225.2258,81.5972 225.2258,78.5772 L225.2258,71.6392 C225.2258,68.6432 225.9058,66.3232 227.2658,64.6762 C228.6258,63.0292 230.4538,62.2062 232.7498,62.2062 C234.9888,62.2062 236.7328,62.8362 237.9838,64.0992 C239.2338,65.3622 239.8708,67.2432 239.8948,69.7462 L239.8428,69.8492 L237.9318,69.8492 C237.8738,67.8642 237.4158,66.3972 236.5548,65.4512 C235.6938,64.5032 234.4248,64.0302 232.7498,64.0302 C231.0288,64.0302 229.6848,64.6782 228.7208,65.9782 C227.7568,67.2772 227.2748,69.1512 227.2748,71.5992 L227.2748,78.5992 C227.2748,81.0942 227.7568,82.9932 228.7208,84.2902 C229.6848,85.5892 231.0288,86.2402 232.7498,86.2402 C234.4248,86.2402 235.6938,85.7742 236.5548,84.8442 C237.4158,83.9152 237.8738,82.4182 237.9318,80.3522 L239.8428,80.3522 Z" id="Fill-31" fill="#0079CF" mask="url(#mask-2)"></path>
                <polygon id="Fill-32" fill="#0079CF" mask="url(#mask-2)" points="256.3535 75.5124 246.5045 75.5124 246.5045 85.8774 257.8165 85.8774 257.8165 87.6334 244.4385 87.6334 244.4385 62.5664 257.7125 62.5664 257.7125 64.3924 246.5045 64.3924 246.5045 73.7564 256.3535 73.7564"></polygon>
                <path d="M282.832,80.3522 L282.884,80.4532 C282.86,82.8992 282.219,84.7682 280.956,86.0572 C279.692,87.3492 277.954,87.9962 275.739,87.9962 C273.433,87.9962 271.602,87.1792 270.247,85.5492 C268.893,83.9192 268.216,81.5972 268.216,78.5772 L268.216,71.6392 C268.216,68.6432 268.895,66.3232 270.256,64.6762 C271.615,63.0292 273.443,62.2062 275.739,62.2062 C277.978,62.2062 279.722,62.8362 280.974,64.0992 C282.224,65.3622 282.86,67.2432 282.884,69.7462 L282.832,69.8492 L280.922,69.8492 C280.863,67.8642 280.405,66.3972 279.545,65.4512 C278.683,64.5032 277.414,64.0302 275.739,64.0302 C274.018,64.0302 272.675,64.6782 271.71,65.9782 C270.746,67.2772 270.265,69.1512 270.265,71.5992 L270.265,78.5992 C270.265,81.0942 270.746,82.9932 271.71,84.2902 C272.675,85.5892 274.018,86.2402 275.739,86.2402 C277.414,86.2402 278.683,85.7742 279.545,84.8442 C280.405,83.9152 280.863,82.4182 280.922,80.3522 L282.832,80.3522 Z" id="Fill-33" fill="#0079CF" mask="url(#mask-2)"></path>
                <polygon id="Fill-34" fill="#0079CF" mask="url(#mask-2)" points="299.3428 75.5124 289.4938 75.5124 289.4938 85.8774 300.8068 85.8774 300.8068 87.6334 287.4288 87.6334 287.4288 62.5664 300.7028 62.5664 300.7028 64.3924 289.4938 64.3924 289.4938 73.7564 299.3428 73.7564"></polygon>
                <polygon id="Fill-35" fill="#0079CF" mask="url(#mask-2)" points="320.1055 87.6335 318.0415 87.6335 306.8495 66.6465 306.7465 66.6635 306.7465 87.6335 304.6625 87.6335 304.6625 62.5665 306.7465 62.5665 317.9375 83.5525 318.0415 83.5345 318.0415 62.5665 320.1055 62.5665"></polygon>
                <polygon id="Fill-36" fill="#0079CF" mask="url(#mask-2)" points="339.2324 64.3923 332.2244 64.3923 332.2244 87.6333 330.1604 87.6333 330.1604 64.3923 323.1704 64.3923 323.1704 62.5663 339.2324 62.5663"></polygon>
                <path d="M344.8447,74.5309 L349.7357,74.5309 C351.5017,74.5309 352.7957,74.0829 353.6167,73.1799 C354.4377,72.2799 354.8477,71.0539 354.8477,69.5039 C354.8477,67.8639 354.4457,66.6019 353.6437,65.7169 C352.8397,64.8339 351.6157,64.3919 349.9757,64.3919 L344.8447,64.3919 L344.8447,74.5309 Z M344.8447,76.2889 L344.8447,87.6339 L342.7787,87.6339 L342.7787,62.5829 L349.9757,62.5829 C352.2257,62.5829 353.9467,63.1749 355.1407,64.3559 C356.3337,65.5369 356.9307,67.2559 356.9307,69.5129 C356.9307,70.8429 356.6157,72.0259 355.9847,73.0639 C355.3537,74.1019 354.4577,74.8659 353.2977,75.3589 C354.5727,75.7489 355.4877,76.4519 356.0447,77.4629 C356.6007,78.4729 356.8787,79.7329 356.8787,81.2369 L356.8787,83.5989 C356.8787,84.3809 356.9537,85.0809 357.1037,85.7029 C357.2527,86.3239 357.5057,86.8289 357.8607,87.2189 L357.8607,87.6339 L355.7417,87.6339 C355.3877,87.2189 355.1437,86.6439 355.0117,85.9069 C354.8797,85.1699 354.8137,84.3879 354.8137,83.5569 L354.8137,81.2619 C354.8137,79.7409 354.4287,78.5329 353.6597,77.6349 C352.8917,76.7379 351.8347,76.2889 350.4917,76.2889 L344.8447,76.2889 Z" id="Fill-37" fill="#0079CF" mask="url(#mask-2)"></path>
                <polygon id="Fill-38" fill="#0079CF" mask="url(#mask-2)" points="374.3037 75.5124 364.4547 75.5124 364.4547 85.8774 375.7667 85.8774 375.7667 87.6334 362.3887 87.6334 362.3887 62.5664 375.6627 62.5664 375.6627 64.3924 364.4547 64.3924 364.4547 73.7564 374.3037 73.7564"></polygon>
            </g>
        </g>
    </g>
</svg>